<mxfile host="Electron" modified="2025-08-16T23:55:04.255Z" agent="Mozilla/5.0 (Windows NT 10.0; Win64; x64) AppleWebKit/537.36 (KHTML, like Gecko) draw.io/24.1.0 Chrome/120.0.6099.109 Electron/28.1.0 Safari/537.36" etag="ef6Af226hA93aaqWaeQh" version="24.1.0" type="device">
  <diagram name="Sheet 1" id="rlgoqLv1cVGT0BMiNDzZ">
    <mxGraphModel dx="1434" dy="836" grid="1" gridSize="1.9685" guides="1" tooltips="1" connect="1" arrows="1" fold="1" page="1" pageScale="1" pageWidth="827" pageHeight="1169" math="0" shadow="0">
      <root>
        <mxCell id="6ik4fCtfQ_uQef5bXLx3-0" />
        <mxCell id="6ik4fCtfQ_uQef5bXLx3-1" parent="6ik4fCtfQ_uQef5bXLx3-0" />
        <mxCell id="GFSL9ZZmrz8AD8LF_BrB-0" value="" style="shape=image;verticalLabelPosition=bottom;verticalAlign=top;imageAspect=0;aspect=fixed;image=data:image/svg+xml,PHN2ZyB4bWxucz0iaHR0cDovL3d3dy53My5vcmcvMjAwMC9zdmciIHZpZXdCb3g9IjAgMCA3OTMuMzMzMzEgMTEyMi42NjY3IiBoZWlnaHQ9IjExMjIuNjY2NyIgd2lkdGg9Ijc5My4zMzMzMSIgaWQ9InN2ZzIiIHZlcnNpb249IjEuMSI+JiN4YTsgIDxkZWZzIGlkPSJkZWZzNiI+JiN4YTsgICAgPGNsaXBQYXRoIGlkPSJjbGlwUGF0aDE2IiBjbGlwUGF0aFVuaXRzPSJ1c2VyU3BhY2VPblVzZSI+JiN4YTsgICAgICA8cGF0aCBpZD0icGF0aDE0IiBkPSJtIDExODQsOTE1MyBoIDIyOTAgdiAzMTIzIEggMTE4NCBWIDkxNTMiLz4mI3hhOyAgICA8L2NsaXBQYXRoPiYjeGE7ICAgIDxjbGlwUGF0aCBpZD0iY2xpcFBhdGgxNjYiIGNsaXBQYXRoVW5pdHM9InVzZXJTcGFjZU9uVXNlIj4mI3hhOyAgICAgIDxwYXRoIGlkPSJwYXRoMTY0IiBkPSJtIDQyOTIsOTE1MyBoIDQ2OTkgdiAzMTIzIEggNDI5MiBWIDkxNTMiLz4mI3hhOyAgICA8L2NsaXBQYXRoPiYjeGE7ICAgIDxjbGlwUGF0aCBpZD0iY2xpcFBhdGgyNTgiIGNsaXBQYXRoVW5pdHM9InVzZXJTcGFjZU9uVXNlIj4mI3hhOyAgICAgIDxwYXRoIGlkPSJwYXRoMjU2IiBkPSJNIDExODQsMzYxNiBIIDM0NzQgViA4MzE1IEggMTE4NCBWIDM2MTYiLz4mI3hhOyAgICA8L2NsaXBQYXRoPiYjeGE7ICAgIDxjbGlwUGF0aCBpZD0iY2xpcFBhdGgzNDYiIGNsaXBQYXRoVW5pdHM9InVzZXJTcGFjZU9uVXNlIj4mI3hhOyAgICAgIDxwYXRoIGlkPSJwYXRoMzQ0IiBkPSJNIDQyNjAsNDI5NyBIIDg5NTkgViA3NDIwIEggNDI2MCBWIDQyOTciLz4mI3hhOyAgICA8L2NsaXBQYXRoPiYjeGE7ICAgIDxjbGlwUGF0aCBpZD0iY2xpcFBhdGg0NTQiIGNsaXBQYXRoVW5pdHM9InVzZXJTcGFjZU9uVXNlIj4mI3hhOyAgICAgIDxwYXRoIGlkPSJwYXRoNDUyIiBkPSJNIDAsMCBIIDk5MjEgViAxNDAzMSBIIDAgViAwIi8+JiN4YTsgICAgPC9jbGlwUGF0aD4mI3hhOyAgICA8Y2xpcFBhdGggaWQ9ImNsaXBQYXRoNDc2IiBjbGlwUGF0aFVuaXRzPSJ1c2VyU3BhY2VPblVzZSI+JiN4YTsgICAgICA8cGF0aCBpZD0icGF0aDQ3NCIgZD0iTSAwLDAgSCA5OTIxIFYgMTQwMzEgSCAwIFYgMCIvPiYjeGE7ICAgIDwvY2xpcFBhdGg+JiN4YTsgICAgPGNsaXBQYXRoIGlkPSJjbGlwUGF0aDQ4OCIgY2xpcFBhdGhVbml0cz0idXNlclNwYWNlT25Vc2UiPiYjeGE7ICAgICAgPHBhdGggaWQ9InBhdGg0ODYiIGQ9Ik0gMCwwIEggOTkyMSBWIDE0MDMxIEggMCBWIDAiLz4mI3hhOyAgICA8L2NsaXBQYXRoPiYjeGE7ICAgIDxjbGlwUGF0aCBpZD0iY2xpcFBhdGg4MzIiIGNsaXBQYXRoVW5pdHM9InVzZXJTcGFjZU9uVXNlIj4mI3hhOyAgICAgIDxwYXRoIGlkPSJwYXRoODMwIiBkPSJNIDAsMCBIIDk5MjEgViAxNDAzMSBIIDAgViAwIi8+JiN4YTsgICAgPC9jbGlwUGF0aD4mI3hhOyAgICA8Y2xpcFBhdGggaWQ9ImNsaXBQYXRoODQ0IiBjbGlwUGF0aFVuaXRzPSJ1c2VyU3BhY2VPblVzZSI+JiN4YTsgICAgICA8cGF0aCBpZD0icGF0aDg0MiIgZD0iTSAwLDAgSCA5OTIxIFYgMTQwMzEgSCAwIFYgMCIvPiYjeGE7ICAgIDwvY2xpcFBhdGg+JiN4YTsgIDwvZGVmcz4mI3hhOyAgPGcgdHJhbnNmb3JtPSJtYXRyaXgoMC4wOCwwLDAsLTAuMDgsMCwxMTIyLjY2NjcpIiBpZD0iZzgiPiYjeGE7ICAgIDxnIGlkPSJnMTAiPiYjeGE7ICAgICAgPGcgY2xpcC1wYXRoPSJ1cmwoI2NsaXBQYXRoMTYpIiBpZD0iZzEyIj4mI3hhOyAgICAgICAgPHBhdGggaWQ9InBhdGgxOCIgc3R5bGU9ImZpbGw6bm9uZTtzdHJva2U6IzAwMDAwMDtzdHJva2Utd2lkdGg6MTI7c3Ryb2tlLWxpbmVjYXA6cm91bmQ7c3Ryb2tlLWxpbmVqb2luOnJvdW5kO3N0cm9rZS1taXRlcmxpbWl0OjEwO3N0cm9rZS1kYXNoYXJyYXk6bm9uZTtzdHJva2Utb3BhY2l0eToxIiBkPSJtIDMwMzEuNSw5MzA2IGMgMjAuNzEwNywwIDM3LjUsMTYuNzg5MSAzNy41LDM3LjUiLz4mI3hhOyAgICAgICAgPHBhdGggaWQ9InBhdGgyMCIgc3R5bGU9ImZpbGw6bm9uZTtzdHJva2U6IzAwMDAwMDtzdHJva2Utd2lkdGg6MTI7c3Ryb2tlLWxpbmVjYXA6cm91bmQ7c3Ryb2tlLWxpbmVqb2luOnJvdW5kO3N0cm9rZS1taXRlcmxpbWl0OjEwO3N0cm9rZS1kYXNoYXJyYXk6bm9uZTtzdHJva2Utb3BhY2l0eToxIiBkPSJtIDMwNjksOTM0MyAtMiwxIC00LDIgLTcsMyAtOSw1IC0xMiw2IC0xMyw2IC0xNCw3IC0xNSw4IDgsLTE1IDcsLTE0IDYsLTEzIDYsLTEyIDUsLTkgMywtNyAyLC00IDEsLTIiLz4mI3hhOyAgICAgICAgPHBhdGggaWQ9InBhdGgyMiIgc3R5bGU9ImZpbGw6bm9uZTtzdHJva2U6IzAwMDAwMDtzdHJva2Utd2lkdGg6MTI7c3Ryb2tlLWxpbmVjYXA6cm91bmQ7c3Ryb2tlLWxpbmVqb2luOnJvdW5kO3N0cm9rZS1taXRlcmxpbWl0OjEwO3N0cm9rZS1kYXNoYXJyYXk6bm9uZTtzdHJva2Utb3BhY2l0eToxIiBkPSJtIDMwMzEsMTIxMjQgLTEsLTEgLTEsLTQgLTMsLTUgLTQsLTggLTUsLTkgLTUsLTExIC02LC0xMiAtNiwtMTMgLTcsLTEzIDEzLDcgMTMsNiAxMiw2IDExLDYgOSw0IDgsNCA1LDMgNCwyIGggMSIvPiYjeGE7ICAgICAgICA8cGF0aCBpZD0icGF0aDI0IiBzdHlsZT0iZmlsbDpub25lO3N0cm9rZTojMDAwMDAwO3N0cm9rZS13aWR0aDoxMjtzdHJva2UtbGluZWNhcDpyb3VuZDtzdHJva2UtbGluZWpvaW46cm91bmQ7c3Ryb2tlLW1pdGVybGltaXQ6MTA7c3Ryb2tlLWRhc2hhcnJheTpub25lO3N0cm9rZS1vcGFjaXR5OjEiIGQ9Im0gMTU4OSwxMjA4NiBoIDEgbCA0LC0yIDUsLTMgOCwtNCA5LC00IDExLC02IDEyLC02IDEzLC02IDEzLC03IC03LDEzIC02LDEzIC02LDEyIC01LDExIC01LDkgLTQsOCAtMyw1IC0xLDQgLTEsMSIvPiYjeGE7ICAgICAgICA8ZyB0cmFuc2Zvcm09InJvdGF0ZSgxODAsODEzLjc1LDQ2NzEuNzUpIiBpZD0iZzI2Ij4mI3hhOyAgICAgICAgICA8cGF0aCBpZD0icGF0aDI4IiBzdHlsZT0iZmlsbDpub25lO3N0cm9rZTojMDAwMDAwO3N0cm9rZS13aWR0aDoxMjtzdHJva2UtbGluZWNhcDpyb3VuZDtzdHJva2UtbGluZWpvaW46cm91bmQ7c3Ryb2tlLW1pdGVybGltaXQ6MTA7c3Ryb2tlLWRhc2hhcnJheTpub25lO3N0cm9rZS1vcGFjaXR5OjEiIGQ9Ik0gMzcuNSwwIEMgMzcuNSwyMC43MTA2OCAyMC43MTA2OCwzNy41IDAsMzcuNSIvPiYjeGE7ICAgICAgICA8L2c+JiN4YTsgICAgICAgIDxwYXRoIGlkPSJwYXRoMzAiIHN0eWxlPSJmaWxsOm5vbmU7c3Ryb2tlOiMwMDAwMDA7c3Ryb2tlLXdpZHRoOjEyO3N0cm9rZS1saW5lY2FwOnJvdW5kO3N0cm9rZS1saW5lam9pbjpyb3VuZDtzdHJva2UtbWl0ZXJsaW1pdDoxMDtzdHJva2UtZGFzaGFycmF5Om5vbmU7c3Ryb2tlLW9wYWNpdHk6MSIgZD0ibSAxNjI3LDkzMDUgMSwxIDEsNCAzLDUgNCw4IDUsOSA1LDExIDYsMTIgNiwxMyA3LDEzIC0xMywtNyAtMTMsLTYgLTEyLC02IC0xMSwtNiAtOSwtNCAtOCwtNCAtNSwtMyAtNCwtMiBoIC0xIi8+JiN4YTsgICAgICAgIDxwYXRoIGlkPSJwYXRoMzIiIHN0eWxlPSJmaWxsOm5vbmU7c3Ryb2tlOiMwMDAwMDA7c3Ryb2tlLXdpZHRoOjEyO3N0cm9rZS1saW5lY2FwOnJvdW5kO3N0cm9rZS1saW5lam9pbjpyb3VuZDtzdHJva2UtbWl0ZXJsaW1pdDoxMDtzdHJva2UtZGFzaGFycmF5Om5vbmU7c3Ryb2tlLW9wYWNpdHk6MSIgZD0iTSAyOTkzLDkzODEgSCAxNjY1Ii8+JiN4YTsgICAgICAgIDxwYXRoIGlkPSJwYXRoMzQiIHN0eWxlPSJmaWxsOm5vbmU7c3Ryb2tlOiMwMDAwMDA7c3Ryb2tlLXdpZHRoOjEyO3N0cm9rZS1saW5lY2FwOnJvdW5kO3N0cm9rZS1saW5lam9pbjpyb3VuZDtzdHJva2UtbWl0ZXJsaW1pdDoxMDtzdHJva2UtZGFzaGFycmF5Om5vbmU7c3Ryb2tlLW9wYWNpdHk6MSIgZD0iTSAxNjI3LDkzMDUgSCAzMDMxIi8+JiN4YTsgICAgICAgIDxwYXRoIGlkPSJwYXRoMzYiIHN0eWxlPSJmaWxsOm5vbmU7c3Ryb2tlOiMwMDAwMDA7c3Ryb2tlLXdpZHRoOjEyO3N0cm9rZS1saW5lY2FwOnJvdW5kO3N0cm9rZS1saW5lam9pbjpyb3VuZDtzdHJva2UtbWl0ZXJsaW1pdDoxMDtzdHJva2UtZGFzaGFycmF5Om5vbmU7c3Ryb2tlLW9wYWNpdHk6MSIgZD0ibSAxNjY1LDkzODEgdiAyNjY3IEggMjk5MyBWIDkzODEiLz4mI3hhOyAgICAgICAgPHBhdGggaWQ9InBhdGgzOCIgc3R5bGU9ImZpbGw6bm9uZTtzdHJva2U6IzAwMDAwMDtzdHJva2Utd2lkdGg6MTI7c3Ryb2tlLWxpbmVjYXA6cm91bmQ7c3Ryb2tlLWxpbmVqb2luOnJvdW5kO3N0cm9rZS1taXRlcmxpbWl0OjEwO3N0cm9rZS1kYXNoYXJyYXk6bm9uZTtzdHJva2Utb3BhY2l0eToxIiBkPSJtIDE0NjcsOTMwNSBoIDE2MCIvPiYjeGE7ICAgICAgICA8cGF0aCBpZD0icGF0aDQwIiBzdHlsZT0iZmlsbDpub25lO3N0cm9rZTojMDAwMDAwO3N0cm9rZS13aWR0aDoxMjtzdHJva2UtbGluZWNhcDpyb3VuZDtzdHJva2UtbGluZWpvaW46cm91bmQ7c3Ryb2tlLW1pdGVybGltaXQ6MTA7c3Ryb2tlLWRhc2hhcnJheTpub25lO3N0cm9rZS1vcGFjaXR5OjEiIGQ9Im0gMzE5MSw5MzA1IGggMjQgMjEgMTcgMTQgOSA2IDIiLz4mI3hhOyAgICAgICAgPHBhdGggaWQ9InBhdGg0MiIgc3R5bGU9ImZpbGw6bm9uZTtzdHJva2U6IzAwMDAwMDtzdHJva2Utd2lkdGg6MTI7c3Ryb2tlLWxpbmVjYXA6cm91bmQ7c3Ryb2tlLWxpbmVqb2luOnJvdW5kO3N0cm9rZS1taXRlcmxpbWl0OjEwO3N0cm9rZS1kYXNoYXJyYXk6bm9uZTtzdHJva2Utb3BhY2l0eToxIiBkPSJtIDEzNzQsOTMwNSBoIDIgNiA5IDE0IDE3IDIxIDI0Ii8+JiN4YTsgICAgICAgIDxwYXRoIGlkPSJwYXRoNDQiIHN0eWxlPSJmaWxsOm5vbmU7c3Ryb2tlOiMwMDAwMDA7c3Ryb2tlLXdpZHRoOjEyO3N0cm9rZS1saW5lY2FwOnJvdW5kO3N0cm9rZS1saW5lam9pbjpyb3VuZDtzdHJva2UtbWl0ZXJsaW1pdDoxMDtzdHJva2UtZGFzaGFycmF5Om5vbmU7c3Ryb2tlLW9wYWNpdHk6MSIgZD0ibSAzMDMxLDkzMDUgaCAxNjAiLz4mI3hhOyAgICAgICAgPHBhdGggaWQ9InBhdGg0NiIgc3R5bGU9ImZpbGw6bm9uZTtzdHJva2U6IzAwMDAwMDtzdHJva2Utd2lkdGg6MTI7c3Ryb2tlLWxpbmVjYXA6cm91bmQ7c3Ryb2tlLWxpbmVqb2luOnJvdW5kO3N0cm9rZS1taXRlcmxpbWl0OjEwO3N0cm9rZS1kYXNoYXJyYXk6bm9uZTtzdHJva2Utb3BhY2l0eToxIiBkPSJtIDI4OTIsOTQ4NSB2IDExMjQgSCAxNzY2IFYgOTQ4NSBoIDExMjYiLz4mI3hhOyAgICAgICAgPHBhdGggaWQ9InBhdGg0OCIgc3R5bGU9ImZpbGw6bm9uZTtzdHJva2U6IzAwMDAwMDtzdHJva2Utd2lkdGg6MTI7c3Ryb2tlLWxpbmVjYXA6cm91bmQ7c3Ryb2tlLWxpbmVqb2luOnJvdW5kO3N0cm9rZS1taXRlcmxpbWl0OjEwO3N0cm9rZS1kYXNoYXJyYXk6bm9uZTtzdHJva2Utb3BhY2l0eToxIiBkPSJtIDI4OTIsMTA4MzYgdiAxMTI1IEggMTc2NiB2IC0xMTI1IGggMTEyNiIvPiYjeGE7ICAgICAgICA8cGF0aCBpZD0icGF0aDUwIiBzdHlsZT0iZmlsbDpub25lO3N0cm9rZTojMDAwMDAwO3N0cm9rZS13aWR0aDoxMjtzdHJva2UtbGluZWNhcDpyb3VuZDtzdHJva2UtbGluZWpvaW46cm91bmQ7c3Ryb2tlLW1pdGVybGltaXQ6MTA7c3Ryb2tlLWRhc2hhcnJheTpub25lO3N0cm9rZS1vcGFjaXR5OjEiIGQ9Im0gMjg5MiwxMDYwOSAtMTQsLTEzIC0xMiwtMTIgLTEyLC0xMiAtMTEsLTExIC05LC0xMCAtOCwtNyAtNSwtNiAtNCwtMyAtMSwtMSB2IC05NzQgbCAxLC0xIDQsLTMgNSwtNiA4LC03IDksLTEwIDExLC0xMSAxMiwtMTEgMTIsLTEzIDE0LC0xMyIvPiYjeGE7ICAgICAgICA8cGF0aCBpZD0icGF0aDUyIiBzdHlsZT0iZmlsbDpub25lO3N0cm9rZTojMDAwMDAwO3N0cm9rZS13aWR0aDoxMjtzdHJva2UtbGluZWNhcDpyb3VuZDtzdHJva2UtbGluZWpvaW46cm91bmQ7c3Ryb2tlLW1pdGVybGltaXQ6MTA7c3Ryb2tlLWRhc2hhcnJheTpub25lO3N0cm9rZS1vcGFjaXR5OjEiIGQ9Im0gMTc2Niw5NDg1IDE0LDEzIDEyLDEzIDEyLDExIDExLDExIDksMTAgOCw3IDUsNiA0LDMgMSwxIHYgOTc0IGwgLTEsMSAtNCwzIC01LDYgLTgsNyAtOSwxMCAtMTEsMTEgLTEyLDEyIC0xMiwxMiAtMTQsMTMiLz4mI3hhOyAgICAgICAgPHBhdGggaWQ9InBhdGg1NCIgc3R5bGU9ImZpbGw6bm9uZTtzdHJva2U6IzAwMDAwMDtzdHJva2Utd2lkdGg6MTI7c3Ryb2tlLWxpbmVjYXA6cm91bmQ7c3Ryb2tlLWxpbmVqb2luOnJvdW5kO3N0cm9rZS1taXRlcmxpbWl0OjEwO3N0cm9rZS1kYXNoYXJyYXk6bm9uZTtzdHJva2Utb3BhY2l0eToxIiBkPSJNIDI4MTYsOTU2MCBIIDE4NDIiLz4mI3hhOyAgICAgICAgPHBhdGggaWQ9InBhdGg1NiIgc3R5bGU9ImZpbGw6bm9uZTtzdHJva2U6IzAwMDAwMDtzdHJva2Utd2lkdGg6MTI7c3Ryb2tlLWxpbmVjYXA6cm91bmQ7c3Ryb2tlLWxpbmVqb2luOnJvdW5kO3N0cm9rZS1taXRlcmxpbWl0OjEwO3N0cm9rZS1kYXNoYXJyYXk6bm9uZTtzdHJva2Utb3BhY2l0eToxIiBkPSJtIDE4NDIsMTA1MzQgaCA5NzQiLz4mI3hhOyAgICAgICAgPHBhdGggaWQ9InBhdGg1OCIgc3R5bGU9ImZpbGw6bm9uZTtzdHJva2U6IzAwMDAwMDtzdHJva2Utd2lkdGg6MTI7c3Ryb2tlLWxpbmVjYXA6cm91bmQ7c3Ryb2tlLWxpbmVqb2luOnJvdW5kO3N0cm9rZS1taXRlcmxpbWl0OjEwO3N0cm9rZS1kYXNoYXJyYXk6bm9uZTtzdHJva2Utb3BhY2l0eToxIiBkPSJtIDE3NjYsMTA4MzYgMTQsMTMgMTIsMTMgMTIsMTIgMTEsMTEgOSw5IDgsOCA1LDUgNCw0IDEsMSB2IDk3MyBsIC0xLDEgLTQsNCAtNSw1IC04LDggLTksOSAtMTEsMTEgLTEyLDEyIC0xMiwxMyAtMTQsMTMiLz4mI3hhOyAgICAgICAgPHBhdGggaWQ9InBhdGg2MCIgc3R5bGU9ImZpbGw6bm9uZTtzdHJva2U6IzAwMDAwMDtzdHJva2Utd2lkdGg6MTI7c3Ryb2tlLWxpbmVjYXA6cm91bmQ7c3Ryb2tlLWxpbmVqb2luOnJvdW5kO3N0cm9rZS1taXRlcmxpbWl0OjEwO3N0cm9rZS1kYXNoYXJyYXk6bm9uZTtzdHJva2Utb3BhY2l0eToxIiBkPSJtIDI4OTIsMTA4MzYgLTE0LDEzIC0xMiwxMyAtMTIsMTIgLTExLDExIC05LDkgLTgsOCAtNSw1IC00LDQgLTEsMSBoIC05NzQiLz4mI3hhOyAgICAgICAgPHBhdGggaWQ9InBhdGg2MiIgc3R5bGU9ImZpbGw6bm9uZTtzdHJva2U6IzAwMDAwMDtzdHJva2Utd2lkdGg6MTI7c3Ryb2tlLWxpbmVjYXA6cm91bmQ7c3Ryb2tlLWxpbmVqb2luOnJvdW5kO3N0cm9rZS1taXRlcmxpbWl0OjEwO3N0cm9rZS1kYXNoYXJyYXk6bm9uZTtzdHJva2Utb3BhY2l0eToxIiBkPSJtIDE4NDIsMTE4ODUgaCA5NzQgbCAxLDEgNCw0IDUsNSA4LDggOSw5IDExLDExIDEyLDEyIDEyLDEzIDE0LDEzIi8+JiN4YTsgICAgICAgIDxwYXRoIGlkPSJwYXRoNjQiIHN0eWxlPSJmaWxsOm5vbmU7c3Ryb2tlOiMwMDAwMDA7c3Ryb2tlLXdpZHRoOjEyO3N0cm9rZS1saW5lY2FwOnJvdW5kO3N0cm9rZS1saW5lam9pbjpyb3VuZDtzdHJva2UtbWl0ZXJsaW1pdDoxMDtzdHJva2UtZGFzaGFycmF5Om5vbmU7c3Ryb2tlLW9wYWNpdHk6MSIgZD0ibSAyODE2LDExODg1IHYgLTk3MyIvPiYjeGE7ICAgICAgICA8cGF0aCBpZD0icGF0aDY2IiBzdHlsZT0iZmlsbDpub25lO3N0cm9rZTojMDAwMDAwO3N0cm9rZS13aWR0aDoxMjtzdHJva2UtbGluZWNhcDpyb3VuZDtzdHJva2UtbGluZWpvaW46cm91bmQ7c3Ryb2tlLW1pdGVybGltaXQ6MTA7c3Ryb2tlLWRhc2hhcnJheTpub25lO3N0cm9rZS1vcGFjaXR5OjEiIGQ9Ik0gMzE5MSwxMDQzOSBIIDMwNjkiLz4mI3hhOyAgICAgICAgPHBhdGggaWQ9InBhdGg2OCIgc3R5bGU9ImZpbGw6bm9uZTtzdHJva2U6IzAwMDAwMDtzdHJva2Utd2lkdGg6MTI7c3Ryb2tlLWxpbmVjYXA6cm91bmQ7c3Ryb2tlLWxpbmVqb2luOnJvdW5kO3N0cm9rZS1taXRlcmxpbWl0OjEwO3N0cm9rZS1kYXNoYXJyYXk6bm9uZTtzdHJva2Utb3BhY2l0eToxIiBkPSJtIDE0NjcsMTA0MzkgaCAtMjQgLTIxIC0xNyAtMTQgLTkgLTYgLTIiLz4mI3hhOyAgICAgICAgPHBhdGggaWQ9InBhdGg3MCIgc3R5bGU9ImZpbGw6bm9uZTtzdHJva2U6IzAwMDAwMDtzdHJva2Utd2lkdGg6MTI7c3Ryb2tlLWxpbmVjYXA6cm91bmQ7c3Ryb2tlLWxpbmVqb2luOnJvdW5kO3N0cm9rZS1taXRlcmxpbWl0OjEwO3N0cm9rZS1kYXNoYXJyYXk6bm9uZTtzdHJva2Utb3BhY2l0eToxIiBkPSJtIDMyODQsMTA0MzkgaCAtMiAtNiAtOSAtMTQgLTE3IC0yMSAtMjQiLz4mI3hhOyAgICAgICAgPHBhdGggaWQ9InBhdGg3MiIgc3R5bGU9ImZpbGw6bm9uZTtzdHJva2U6IzAwMDAwMDtzdHJva2Utd2lkdGg6MTI7c3Ryb2tlLWxpbmVjYXA6cm91bmQ7c3Ryb2tlLWxpbmVqb2luOnJvdW5kO3N0cm9rZS1taXRlcmxpbWl0OjEwO3N0cm9rZS1kYXNoYXJyYXk6bm9uZTtzdHJva2Utb3BhY2l0eToxIiBkPSJNIDE1ODksMTA0MzkgSCAxNDY3Ii8+JiN4YTsgICAgICAgIDxwYXRoIGlkPSJwYXRoNzQiIHN0eWxlPSJmaWxsOm5vbmU7c3Ryb2tlOiMwMDAwMDA7c3Ryb2tlLXdpZHRoOjEyO3N0cm9rZS1saW5lY2FwOnJvdW5kO3N0cm9rZS1saW5lam9pbjpyb3VuZDtzdHJva2UtbWl0ZXJsaW1pdDoxMDtzdHJva2UtZGFzaGFycmF5Om5vbmU7c3Ryb2tlLW9wYWNpdHk6MSIgZD0ibSAxOTcxLDExMzY2IGggMTYgbCAxNSwtMSAxNCwtMSAxMiwtMSBoIDkgNyBsIDIsLTEgMSw4IHYgNyBsIDEsOCB2IDcgbCAxLDcgMSw4IDEsNyAyLDcgMSw4IDIsNyAxLDcgMiw3IDIsNyAyLDggMSwzIDEsNCAxLDMgMiw0IDEsMyAxLDQgMSwzIDIsNCAxLDMgMiw0IDEsMyAyLDQgMSwzIDIsMyAxLDQgMiwzIDIsMyAxLDQgMiwzIDIsMyAyLDQgMiwzIDEsMyAyLDMgMiwzIDIsNCAyLDMgMywzIDIsMyAyLDMgMiwzIDIsMyAzLDMgMiwzIDIsMyAzLDMgMiwyIDIsMyAzLDMgMywzIDIsMiAzLDMgMiwzIDMsMiAzLDMgMywzIDIsMiAzLDIgMywzIDMsMiAzLDMgMywyIDMsMiAzLDIgMywzIDMsMiAzLDIgMywyIDQsMiAzLDIgMywyIDMsMiA0LDIgMywxIDMsMiA0LDIgMywxIDQsMiAzLDIgMywxIDQsMSAzLDIgNCwxIDMsMiA0LDEgNCwxIDMsMSA0LDEgMywxIDQsMSA0LDEgMywxIDQsMSA0LDEgaCA0IGwgMywxIDQsMSBoIDQgbCA0LDEgaCAzIGwgNCwxIGggNCA0IGwgMywxIGggNCA0IDQgMyA0IDQgNCBsIDQsLTEgaCAzIDQgbCA0LC0xIGggNCBsIDMsLTEgaCA0IGwgNCwtMSBoIDQgbCAzLC0xIDQsLTEgNCwtMSAzLC0xIDQsLTEgNCwtMSAzLC0xIDQsLTEgNCwtMSAzLC0xIDQsLTEgMywtMiA0LC0xIDMsLTEgNCwtMiAzLC0xIDQsLTIgMywtMSA0LC0yIDMsLTIgMywtMSA0LC0yIDMsLTIgMywtMiA0LC0yIDMsLTIgMywtMiAzLC0yIDMsLTIgMywtMiAzLC0yIDQsLTIgMywtMyAzLC0yIDIsLTIgMywtMyAzLC0yIDMsLTIgMywtMyAzLC0yIDIsLTMgMywtMyAzLC0yIDIsLTMgMywtMyAyLC0yIDMsLTMgMiwtMyAzLC0zIDIsLTMgMywtMiAyLC0zIDIsLTMgMiwtMyAzLC0zIDIsLTMgMiwtMyAyLC0zIDIsLTQgMiwtMyAyLC0zIDIsLTMgMiwtMyAyLC0zIDIsLTQgMiwtMyAxLC0zIDIsLTQgMiwtMyAxLC0zIDIsLTQgMiwtMyAxLC0zIDIsLTQgMSwtMyAyLC00IDEsLTMgMSwtNCAyLC0zIDEsLTQgMSwtMyAyLC00IDEsLTMgMSwtNCAyLC03IDIsLTcgMiwtNyAyLC03IDIsLTggMSwtNyAxLC03IDIsLTggMSwtNyAxLC03IDEsLTggMSwtNyB2IC03IGwgMSwtOCB2IC03IC04IC03Ii8+JiN4YTsgICAgICAgIDxwYXRoIGlkPSJwYXRoNzYiIHN0eWxlPSJmaWxsOm5vbmU7c3Ryb2tlOiMwMDAwMDA7c3Ryb2tlLXdpZHRoOjEyO3N0cm9rZS1saW5lY2FwOnJvdW5kO3N0cm9rZS1saW5lam9pbjpyb3VuZDtzdHJva2UtbWl0ZXJsaW1pdDoxMDtzdHJva2UtZGFzaGFycmF5Om5vbmU7c3Ryb2tlLW9wYWNpdHk6MSIgZD0ibSAyMDQ2LDExMzQxIHYgMiA1IDUgNSA0Ii8+JiN4YTsgICAgICAgIDxwYXRoIGlkPSJwYXRoNzgiIHN0eWxlPSJmaWxsOm5vbmU7c3Ryb2tlOiMwMDAwMDA7c3Ryb2tlLXdpZHRoOjEyO3N0cm9rZS1saW5lY2FwOnJvdW5kO3N0cm9rZS1saW5lam9pbjpyb3VuZDtzdHJva2UtbWl0ZXJsaW1pdDoxMDtzdHJva2UtZGFzaGFycmF5Om5vbmU7c3Ryb2tlLW9wYWNpdHk6MSIgZD0ibSAxOTcxLDExMzY2IHYgLTQgbCAtMSwtNSB2IC00IC01IC00IC01IC01IC00IGwgMSwtNSB2IC00IC01IC01IGwgMSwtNCB2IC01IGwgMSwtNCB2IC01IGwgMSwtNCB2IC01IGwgMSwtNCAxLC01IDEsLTUgdiAtNCBsIDEsLTUgMSwtNCAxLC01IDEsLTQgMSwtNCAxLC01IDEsLTQgMiwtNSAxLC00IDEsLTUgMiwtNCAxLC00IDEsLTUgMiwtNCAxLC00IDIsLTUgMiwtNCAxLC00IDIsLTQgMiwtNSAyLC00IDIsLTQgMiwtNCAyLC00IDIsLTQgMiwtNCAyLC01IDIsLTQgMywtNCAyLC00IDIsLTMgMywtNCAyLC00IDIsLTQgMywtNCAzLC00IDIsLTQgMywtMyAzLC00IDIsLTQgMywtMyAzLC00IDMsLTMgMywtNCAzLC0zIDMsLTQgMywtMyAzLC00IDMsLTMgMywtMyA0LC00IDMsLTMgMywtMyAzLC0zIDQsLTMgMywtMyA0LC0zIDMsLTMgNCwtMyAzLC0zIDQsLTMgMywtMyA0LC0zIDQsLTIgMywtMyA0LC0zIDQsLTIgNCwtMyA0LC0yIDQsLTMgMywtMiA0LC0yIDQsLTIgNCwtMyA0LC0yIDUsLTIgNCwtMiA0LC0yIDQsLTIgNCwtMiA0LC0yIDUsLTEgNCwtMiA0LC0yIDQsLTEgNSwtMiA0LC0xIDQsLTIgNSwtMSA0LC0xIDUsLTEgNCwtMiA1LC0xIDQsLTEgNCwtMSA1LC0xIDQsLTEgaCA1IGwgNSwtMSA0LC0xIGggNSBsIDQsLTEgaCA1IGwgNCwtMSBoIDUgbCA0LC0xIGggNSA1IDQgNSA0IDUgNSA0IDUgbCA0LDEgaCA1IDQgbCA1LDEgaCA1IGwgNCwxIGggNSBsIDQsMSA1LDEgNCwxIDUsMSBoIDQgbCA1LDEgNCwyIDUsMSA0LDEgNCwxIDUsMSA0LDIgNSwxIDQsMiA0LDEgNSwyIDQsMSA0LDIgNCwyIDUsMiA0LDIgNCwxIDQsMiA0LDIgNCwzIDQsMiA0LDIgNCwyIDQsMyA0LDIgNCwyIDQsMyA0LDIgMywzIDQsMyA0LDIgNCwzIDMsMyA0LDIgMywzIDQsMyAzLDMgNCwzIDMsMyA0LDMgMywzIDMsNCA0LDMgMywzIDMsMyAzLDQgMywzIDQsMyAzLDQgMywzIDMsNCAyLDMgMyw0IDMsNCAzLDMgMyw0IDIsNCAzLDMgMyw0IDIsNCAzLDQgMiw0IDMsNCAyLDMgMiw0IDMsNCAyLDQgMiw0IDIsNSAyLDQgMiw0IDIsNCAyLDQgMiw0IDIsNCAyLDUgMSw0IDIsNCAyLDQgMSw1IDIsNCAxLDQgMiw1IDEsNCAyLDUgMSw0IDEsNCAxLDUgMSw0IDEsNSAxLDQgMSw1IDEsNCAxLDUgMSw0IDEsNSAxLDQgdiA1IGwgMSw0IDEsNSB2IDQgbCAxLDUgdiA0IDUgbCAxLDUgdiA0IDUgbCAxLDQgdiA1IDUgNCA1IDQgNSA0IGwgLTEsNSB2IDUgNCBsIC0xLDUgdiA0IDUgbCAtMSw1IHYgNCBsIC0xLDUgLTEsNCB2IDUgbCAtMSw0IC0xLDUgLTEsNCAtMSw1IHYgNCBsIC0xLDUgLTEsNCAtMiw1IC0xLDQgLTEsNSAtMSw0IC0xLDQgLTIsNSAtMSw0IC0xLDUgLTIsNCAtMiw0IC0xLDUgLTIsNCAtMSw0IC0yLDQgLTIsNSAtMiw0IC0yLDQgLTEsNCAtMiw0IC0yLDQgLTIsNSAtMyw0IC0yLDQgLTIsNCAtMiw0IC0yLDQgLTMsNCAtMiw0IC0zLDQgLTIsMyAtMyw0IC0yLDQgLTMsNCAtMiw0IC0zLDMgLTMsNCAtMyw0IC0yLDMgLTMsNCAtMywzIC0zLDQgLTMsMyAtMyw0IC0zLDMgLTMsNCAtMywzIC00LDMgLTMsMyAtMyw0IC0zLDMgLTQsMyAtMywzIC0zLDMgLTQsMyAtMywzIC00LDMgLTQsMyAtMywzIC00LDIgLTQsMyAtMywzIC00LDIgLTQsMyAtNCwyIC00LDMgLTMsMiAtNCwzIC00LDIgLTQsMiAtNCwyIC00LDMgLTUsMiAtNCwyIC00LDIgLTQsMiAtNCwyIC00LDEgLTUsMiAtNCwyIC00LDEgLTQsMiAtNSwyIC00LDEgLTQsMiAtNSwxIC00LDEgLTUsMSAtNCwyIC01LDEgLTQsMSAtNCwxIC01LDEgLTQsMSAtNSwxIGggLTQgbCAtNSwxIC01LDEgaCAtNCBsIC01LDEgaCAtNCBsIC01LDEgaCAtNCAtNSBsIC01LDEgaCAtNCAtNSAtNCAtNSAtNCAtNSBsIC01LC0xIGggLTQgLTUgbCAtNCwtMSBoIC01IGwgLTQsLTEgaCAtNSBsIC01LC0xIC00LC0xIGggLTUgbCAtNCwtMSAtNSwtMSAtNCwtMSAtNSwtMSAtNCwtMSAtNCwtMSAtNSwtMiAtNCwtMSAtNSwtMSAtNCwtMiAtNCwtMSAtNSwtMiAtNCwtMSAtNCwtMiAtNSwtMSAtNCwtMiAtNCwtMiAtNCwtMiAtNCwtMiAtNSwtMiAtNCwtMiAtNCwtMiAtNCwtMiAtNCwtMiAtNCwtMiAtNCwtMyAtNCwtMiAtNCwtMiAtNCwtMyAtNCwtMiAtMywtMyAtNCwtMiAtNCwtMyAtNCwtMiAtMywtMyAtNCwtMyAtNCwtMyAtMywtMyAtNCwtMyAtMywtMyAtNCwtMyAtMywtMyAtNCwtMyAtMywtMyAtMywtMyAtNCwtMyAtMywtMyAtMywtNCAtMywtMyAtMywtMyAtMywtNCAtMywtMyAtMywtNCAtMywtMyAtMywtNCAtMywtNCAtMywtMyAtMiwtNCAtMywtNCAtMywtMyAtMiwtNCAtMywtNCAtMywtNCAtMiwtMyAtMywtNCAtMiwtNCAtMiwtNCAtMywtNCAtMiwtNCAtMiwtNCAtMiwtNCAtMiwtNCAtMiwtNCAtMywtNSAtMSwtNCAtMiwtNCAtMiwtNCAtMiwtNCAtMiwtNCAtMiwtNSAtMSwtNCAtMiwtNCAtMiwtNSAtMSwtNCAtMiwtNCAtMSwtNSAtMSwtNCAtMiwtNCAtMSwtNSAtMSwtNCAtMiwtNSAtMSwtNCAtMSwtNCAtMSwtNSAtMSwtNCAtMSwtNSAtMSwtNCAtMSwtNSB2IC00IGwgLTEsLTUgLTEsLTQgLTEsLTUgdiAtNSBsIC0xLC00IHYgLTUgbCAtMSwtNCB2IC01IGwgLTEsLTQgdiAtNSAtNSIvPiYjeGE7ICAgICAgICA8cGF0aCBpZD0icGF0aDgwIiBzdHlsZT0iZmlsbDpub25lO3N0cm9rZTojMDAwMDAwO3N0cm9rZS13aWR0aDoxMjtzdHJva2UtbGluZWNhcDpyb3VuZDtzdHJva2UtbGluZWpvaW46cm91bmQ7c3Ryb2tlLW1pdGVybGltaXQ6MTA7c3Ryb2tlLWRhc2hhcnJheTpub25lO3N0cm9rZS1vcGFjaXR5OjEiIGQ9Im0gMjA0NiwxMTM0MyB2IC01Ii8+JiN4YTsgICAgICAgIDxwYXRoIGlkPSJwYXRoODIiIHN0eWxlPSJmaWxsOm5vbmU7c3Ryb2tlOiMwMDAwMDA7c3Ryb2tlLXdpZHRoOjEyO3N0cm9rZS1saW5lY2FwOnJvdW5kO3N0cm9rZS1saW5lam9pbjpyb3VuZDtzdHJva2UtbWl0ZXJsaW1pdDoxMDtzdHJva2UtZGFzaGFycmF5Om5vbmU7c3Ryb2tlLW9wYWNpdHk6MSIgZD0ibSAyMTQ3LDEwMDI4IDIsMyAzLDIgMywzIDMsMiAzLDIgMywzIDMsMiAzLDMgMywyIDMsMiAzLDMgNCwyIDMsMiAzLDIgNCwzIDIsMSAxLDEgMiwxIDIsMSAyLDIgMywxIDIsMSAyLDEgMywyIDIsMSAzLDIgMiwxIDMsMSAzLDIgMywxIDMsMiAzLDEgMywxIDMsMiAzLDEgMywxIDQsMiAzLDEgNCwxIDMsMSA0LDIgaCAyIGwgMiwxIGggMiBsIDIsMSBoIDIgbCAyLDEgaCAyIGwgMiwxIGggMiBsIDMsMSBoIDIgbCAyLDEgaCAyIGwgMiwxIGggMyBsIDIsMSBoIDIgMyBsIDIsMSBoIDMgMiBsIDIsMSBoIDMgMiAzIDIgMyBsIDIsMSBoIDMgMyAyIDMgMiAzIDMgbCAyLC0xIGggMyAyIDMgMiAzIGwgMiwtMSBoIDMgMiBsIDIsLTEgaCAzIDIgbCAyLC0xIGggMyBsIDIsLTEgaCAyIDIgbCAzLC0xIGggMiBsIDIsLTEgaCAyIGwgMiwtMSAyLC0xIGggMiBsIDIsLTEgaCAyIGwgMiwtMSA0LC0xIDMsLTEgNCwtMSA0LC0yIDMsLTEgMywtMSA0LC0yIDMsLTEgMywtMSAzLC0yIDMsLTEgMywtMSAzLC0yIDMsLTEgMywtMiAzLC0xIDIsLTIgMywtMSAzLC0yIDMsLTEgMywtMiAyLC0yIDMsLTEgMywtMiAyLC0yIDMsLTIgMywtMSAyLC0yIDMsLTIgMiwtMiAzLC0xIDIsLTIgMywtMiAyLC0yIDMsLTIgMiwtMiAzLC0xIDIsLTIgMiwtMiAyLC0yIDMsLTIiLz4mI3hhOyAgICAgICAgPHBhdGggaWQ9InBhdGg4NCIgc3R5bGU9ImZpbGw6bm9uZTtzdHJva2U6IzAwMDAwMDtzdHJva2Utd2lkdGg6MTI7c3Ryb2tlLWxpbmVjYXA6cm91bmQ7c3Ryb2tlLWxpbmVqb2luOnJvdW5kO3N0cm9rZS1taXRlcmxpbWl0OjEwO3N0cm9rZS1kYXNoYXJyYXk6bm9uZTtzdHJva2Utb3BhY2l0eToxIiBkPSJtIDE5NzAsMTAwMzQgaCAxNyAxNiBsIDE0LC0xIGggMTIgOSA2IDIgdiAzIDQgMyA0IGwgMSwzIHYgNCAzIGwgMSwzIHYgNCAzIGwgMSw0IHYgMyBsIDEsNCAxLDMgdiAzIGwgMSw0IDEsMyB2IDMgbCAxLDQgMSwzIDEsMyAxLDQgMSwzIDEsMyAxLDQgMSwzIDEsMyAxLDQgMSwzIDIsMyAxLDMgMSwzIDEsNCAyLDMgMSwzIDIsMyAxLDMgMiwzIDEsMyAyLDMgMiwzIDEsMyAyLDMgMiwzIDEsMyAyLDMgMiwzIDIsMyAyLDMgMiwzIDIsMyAyLDIgMiwzIDIsMyAyLDMgMiwyIDMsMyAyLDMgMiwyIDIsMyAzLDIgMiwzIDIsMiAzLDMgMiwyIDMsMyAyLDIgMywzIDIsMiAzLDIgMiwyIDMsMyAzLDIgMiwyIDMsMiAzLDIgMywyIDMsMiAyLDIgMywyIDMsMiAzLDIgMywyIDMsMiAzLDEgMywyIDMsMiAzLDIgMywxIDMsMiAzLDEgMywyIDMsMSAzLDIgNCwxIDMsMiAzLDEgMywxIDMsMiA0LDEgMywxIDMsMSAzLDEgNCwxIDMsMSAzLDEgNCwxIDMsMSAzLDEgNCwxIDMsMSBoIDMgbCA0LDEgMywxIGggNCBsIDMsMSBoIDQgbCAzLDEgaCAzIGwgNCwxIGggMyA0IDMgbCA0LDEgaCAzIDQgMyAzIDQgMyA0IDMgNCBsIDMsLTEgaCA0IDMgbCA0LC0xIGggMyAzIGwgNCwtMSBoIDMgbCA0LC0xIDMsLTEgaCA0IGwgMywtMSAzLC0xIGggNCBsIDMsLTEgMywtMSA0LC0xIDMsLTEgMywtMSA0LC0xIDMsLTEgMywtMSA0LC0xIDMsLTEgMywtMSAzLC0yIDQsLTEgMywtMSAzLC0yIDMsLTEgMywtMSAzLC0yIDMsLTEgNCwtMiAzLC0yIDMsLTEgMywtMiAzLC0yIDMsLTEgMywtMiAzLC0yIDMsLTIgMiwtMiAzLC0yIDMsLTIgMywtMiAzLC0yIDIsLTIgMywtMiAzLC0yIDMsLTIgMiwtMiAzLC0yIDMsLTMgMiwtMiAzLC0yIDIsLTMgMywtMiAyLC0yIDMsLTMgMiwtMiAyLC0zIDMsLTIgMiwtMyAyLC0zIDMsLTIgMiwtMyAyLC0zIDIsLTIgMiwtMyAyLC0zIDIsLTIgMywtMyAyLC0zIDEsLTMgMiwtMyAyLC0zIDIsLTMgMiwtMiAyLC0zIDIsLTMgMSwtMyAyLC0zIDIsLTMgMSwtMyAyLC0zIDEsLTQgMiwtMyAxLC0zIDIsLTMgMSwtMyAyLC0zIDEsLTMgMSwtNCAxLC0zIDIsLTMgMSwtMyAxLC00IDEsLTMgMSwtMyAxLC0zIDEsLTQgMSwtMyAxLC0zIDEsLTQgdiAtMyBsIDEsLTMgMSwtNCAxLC0zIHYgLTQgbCAxLC0zIHYgLTMgbCAxLC00IHYgLTMgbCAxLC00IHYgLTMgbCAxLC00IHYgLTMgLTMgLTQgbCAxLC0zIHYgLTQgLTMiLz4mI3hhOyAgICAgICAgPHBhdGggaWQ9InBhdGg4NiIgc3R5bGU9ImZpbGw6bm9uZTtzdHJva2U6IzAwMDAwMDtzdHJva2Utd2lkdGg6MTI7c3Ryb2tlLWxpbmVjYXA6cm91bmQ7c3Ryb2tlLWxpbmVqb2luOnJvdW5kO3N0cm9rZS1taXRlcmxpbWl0OjEwO3N0cm9rZS1kYXNoYXJyYXk6bm9uZTtzdHJva2Utb3BhY2l0eToxIiBkPSJtIDIwNDYsMTAwMjAgdiA1IDQgNCIvPiYjeGE7ICAgICAgICA8cGF0aCBpZD0icGF0aDg4IiBzdHlsZT0iZmlsbDpub25lO3N0cm9rZTojMDAwMDAwO3N0cm9rZS13aWR0aDoxMjtzdHJva2UtbGluZWNhcDpyb3VuZDtzdHJva2UtbGluZWpvaW46cm91bmQ7c3Ryb2tlLW1pdGVybGltaXQ6MTA7c3Ryb2tlLWRhc2hhcnJheTpub25lO3N0cm9rZS1vcGFjaXR5OjEiIGQ9Im0gMTk3MCwxMDAzNCB2IC00IC01IC00IC01IGwgMSwtNCB2IC00IC01IGwgMSwtNCB2IC01IC00IGwgMSwtNCAxLC01IHYgLTQgbCAxLC00IDEsLTUgdiAtNCBsIDEsLTQgMSwtNSAxLC00IDEsLTQgMSwtNSAxLC00IDEsLTQgMiwtNCAxLC01IDEsLTQgMiwtNCAxLC00IDEsLTQgMiwtNSAyLC00IDEsLTQgMiwtNCAxLC00IDIsLTQgMiwtNCAyLC00IDIsLTQgMiwtNCAyLC00IDIsLTQgMiwtNCAyLC00IDIsLTQgMiwtMyAzLC00IDIsLTQgMiwtNCAzLC0zIDIsLTQgMywtNCAyLC0zIDMsLTQgMiwtMyAzLC00IDMsLTMgMiwtNCAzLC0zIDMsLTQgMywtMyAzLC0zIDMsLTQgMywtMyAzLC0zIDMsLTMgMywtMyAzLC00IDMsLTMgMywtMyA0LC0zIDMsLTMgMywtMiA0LC0zIDMsLTMgMywtMyA0LC0zIDMsLTIgNCwtMyA0LC0zIDMsLTIgNCwtMyA0LC0yIDMsLTIgNCwtMyA0LC0yIDQsLTIgMywtMiA0LC0zIDQsLTIgNCwtMiA0LC0yIDQsLTIgNCwtMiA0LC0yIDQsLTEgNCwtMiA0LC0yIDQsLTIgNCwtMSA0LC0yIDQsLTEgNSwtMiA0LC0xIDQsLTEgNCwtMiA0LC0xIDUsLTEgNCwtMSA0LC0yIDUsLTEgNCwtMSA0LC0xIGggNCBsIDUsLTEgNCwtMSA1LC0xIDQsLTEgaCA0IGwgNSwtMSBoIDQgbCA0LC0xIGggNSBsIDQsLTEgaCA1IDQgNCBsIDUsLTEgaCA0IDUgNCA0IDUgNCBsIDUsMSBoIDQgNSBsIDQsMSBoIDQgbCA1LDEgaCA0IGwgNCwxIGggNSBsIDQsMSA1LDEgNCwxIDQsMSBoIDUgbCA0LDEgNCwyIDQsMSA1LDEgNCwxIDQsMSA0LDIgNSwxIDQsMSA0LDIgNCwxIDQsMiA0LDIgNCwxIDQsMiA0LDIgNCwyIDQsMSA0LDIgNCwyIDQsMiA0LDIgNCwzIDQsMiA0LDIgNCwyIDMsMyA0LDIgNCwyIDMsMyA0LDIgNCwzIDMsMiA0LDMgMywzIDQsMiAzLDMgNCwzIDMsMyA0LDIgMywzIDMsMyAzLDMgNCwzIDMsMyAzLDMgMyw0IDMsMyAzLDMgMywzIDMsNCAzLDMgMywzIDMsNCAzLDMgMiwzIDMsNCAzLDMgMiw0IDMsNCAyLDMgMyw0IDIsMyAzLDQgMiw0IDIsNCAzLDMgMiw0IDIsNCAyLDQgMiw0IDIsNCAyLDQgMiw0IDIsNCAyLDQgMiw0IDEsNCAyLDQgMiw0IDEsNCAyLDQgMSw1IDEsNCAyLDQgMSw0IDEsNCAxLDUgMiw0IDEsNCAxLDUgMSw0IDEsNCAxLDUgdiA0IGwgMSw0IDEsNSAxLDQgdiA0IGwgMSw1IHYgNCBsIDEsNCB2IDUgbCAxLDQgdiA1IDQgNCA1IGwgMSw0IHYgNSA0IGwgLTEsNSB2IDQgNCA1IDQgbCAtMSw1IHYgNCA0IGwgLTEsNSB2IDQgbCAtMSw1IC0xLDQgdiA0IGwgLTEsNSAtMSw0IC0xLDQgLTEsNSAtMSw0IC0xLDQgLTEsNCAtMSw1IC0xLDQgLTEsNCAtMiw0IC0xLDUgLTEsNCAtMiw0IC0xLDQgLTIsNCAtMSw0IC0yLDUgLTIsNCAtMiw0IC0xLDQgLTIsNCAtMiw0IC0yLDQgLTIsNCAtMiwzIC0yLDQgLTIsNCAtMyw0IC0yLDQgLTIsNCAtMiwzIC0zLDQgLTIsNCAtMyw0IC0yLDMgLTMsNCAtMiwzIC0zLDQgLTMsMyAtMiw0IC0zLDMgLTMsNCAtMywzIC0zLDMgLTMsNCAtMywzIC0zLDMgLTMsNCAtMywzIC0zLDMgLTMsMyAtMywzIC0zLDMgLTQsMyAtMywzIC0zLDMgLTQsMyAtMywyIC0zLDMgLTQsMyAtMywzIC00LDIgLTQsMyAtMywyIC00LDMgLTMsMiAtNCwzIC00LDIgLTQsMiAtMywzIC00LDIgLTQsMiAtNCwyIC00LDIgLTQsMiAtNCwyIC00LDIgLTQsMiAtNCwyIC00LDIgLTQsMSAtNCwyIC00LDIgLTQsMSAtNCwyIC01LDEgLTQsMiAtNCwxIC00LDEgLTQsMiAtNSwxIC00LDEgLTQsMSAtNCwxIC01LDEgLTQsMSAtNCwxIC01LDEgLTQsMSAtNCwxIGggLTUgbCAtNCwxIGggLTUgbCAtNCwxIGggLTQgbCAtNSwxIGggLTQgbCAtNCwxIGggLTUgLTQgLTUgLTQgLTUgLTQgLTQgLTUgLTQgLTUgLTQgbCAtNCwtMSBoIC01IGwgLTQsLTEgaCAtNSBsIC00LC0xIGggLTQgbCAtNSwtMSAtNCwtMSBoIC00IGwgLTUsLTEgLTQsLTEgLTQsLTEgLTUsLTEgLTQsLTEgLTQsLTEgLTUsLTEgLTQsLTIgLTQsLTEgLTQsLTEgLTUsLTIgLTQsLTEgLTQsLTEgLTQsLTIgLTQsLTIgLTQsLTEgLTQsLTIgLTQsLTIgLTQsLTEgLTQsLTIgLTQsLTIgLTQsLTIgLTQsLTIgLTQsLTIgLTQsLTIgLTQsLTIgLTQsLTIgLTQsLTIgLTQsLTMgLTMsLTIgLTQsLTIgLTQsLTMgLTQsLTIgLTMsLTMgLTQsLTIgLTQsLTMgLTMsLTIgLTQsLTMgLTMsLTMgLTQsLTIgLTMsLTMgLTMsLTMgLTQsLTMgLTMsLTMgLTMsLTMgLTQsLTMgLTMsLTMgLTMsLTMgLTMsLTMgLTMsLTMgLTMsLTMgLTMsLTMgLTMsLTQgLTMsLTMgLTMsLTMgLTMsLTQgLTMsLTMgLTMsLTMgLTIsLTQgLTMsLTMgLTMsLTQgLTIsLTQgLTMsLTMgLTIsLTQgLTMsLTMgLTIsLTQgLTMsLTQgLTIsLTQgLTIsLTMgLTMsLTQgLTIsLTQgLTIsLTQgLTIsLTQgLTIsLTQgLTIsLTQgLTIsLTQgLTIsLTMgLTIsLTQgLTIsLTUgLTEsLTQgLTIsLTQgLTIsLTQgLTEsLTQgLTIsLTQgLTIsLTQgLTEsLTQgLTEsLTQgLTIsLTUgLTEsLTQgLTEsLTQgLTIsLTQgLTEsLTUgLTEsLTQgLTEsLTQgLTEsLTUgLTEsLTQgLTEsLTQgLTEsLTQgdiAtNSBsIC0xLC00IC0xLC01IHYgLTQgbCAtMSwtNCB2IC01IGwgLTEsLTQgdiAtNCBsIC0xLC01IHYgLTQgLTUgbCAtMSwtNCB2IC01IC00Ii8+JiN4YTsgICAgICAgIDxwYXRoIGlkPSJwYXRoOTAiIHN0eWxlPSJmaWxsOm5vbmU7c3Ryb2tlOiMwMDAwMDA7c3Ryb2tlLXdpZHRoOjEyO3N0cm9rZS1saW5lY2FwOnJvdW5kO3N0cm9rZS1saW5lam9pbjpyb3VuZDtzdHJva2UtbWl0ZXJsaW1pdDoxMDtzdHJva2UtZGFzaGFycmF5Om5vbmU7c3Ryb2tlLW9wYWNpdHk6MSIgZD0ibSAyMDQ2LDEwMDI5IHYgLTUgLTQgLTQgLTQiLz4mI3hhOyAgICAgICAgPGcgdHJhbnNmb3JtPSJyb3RhdGUoMTgwLDczMy43NSw1MjAwLjc1KSIgaWQ9Imc5MiI+JiN4YTsgICAgICAgICAgPHBhdGggaWQ9InBhdGg5NCIgc3R5bGU9ImZpbGw6bm9uZTtzdHJva2U6IzAwMDAwMDtzdHJva2Utd2lkdGg6MTI7c3Ryb2tlLWxpbmVjYXA6cm91bmQ7c3Ryb2tlLWxpbmVqb2luOnJvdW5kO3N0cm9rZS1taXRlcmxpbWl0OjEwO3N0cm9rZS1kYXNoYXJyYXk6bm9uZTtzdHJva2Utb3BhY2l0eToxIiBkPSJtIDAsLTM3LjUgYyAxOS4wNTM4MywwIDM0LjUsMTYuNzg5MzIgMzQuNSwzNy41Ii8+JiN4YTsgICAgICAgIDwvZz4mI3hhOyAgICAgICAgPHBhdGggaWQ9InBhdGg5NiIgc3R5bGU9ImZpbGw6bm9uZTtzdHJva2U6IzAwMDAwMDtzdHJva2Utd2lkdGg6MTI7c3Ryb2tlLWxpbmVjYXA6cm91bmQ7c3Ryb2tlLWxpbmVqb2luOnJvdW5kO3N0cm9rZS1taXRlcmxpbWl0OjEwO3N0cm9rZS1kYXNoYXJyYXk6bm9uZTtzdHJva2Utb3BhY2l0eToxIiBkPSJtIDE0MzMsMTA0MDEgaCAxNTYiLz4mI3hhOyAgICAgICAgPHBhdGggaWQ9InBhdGg5OCIgc3R5bGU9ImZpbGw6bm9uZTtzdHJva2U6IzAwMDAwMDtzdHJva2Utd2lkdGg6MTI7c3Ryb2tlLWxpbmVjYXA6cm91bmQ7c3Ryb2tlLWxpbmVqb2luOnJvdW5kO3N0cm9rZS1taXRlcmxpbWl0OjEwO3N0cm9rZS1kYXNoYXJyYXk6bm9uZTtzdHJva2Utb3BhY2l0eToxIiBkPSJtIDMxOTEuNSw5MzA2IGMgMTkuMDUzNywwIDM0LjUsMTYuNzg5MSAzNC41LDM3LjUiLz4mI3hhOyAgICAgICAgPHBhdGggaWQ9InBhdGgxMDAiIHN0eWxlPSJmaWxsOm5vbmU7c3Ryb2tlOiMwMDAwMDA7c3Ryb2tlLXdpZHRoOjEyO3N0cm9rZS1saW5lY2FwOnJvdW5kO3N0cm9rZS1saW5lam9pbjpyb3VuZDtzdHJva2UtbWl0ZXJsaW1pdDoxMDtzdHJva2UtZGFzaGFycmF5Om5vbmU7c3Ryb2tlLW9wYWNpdHk6MSIgZD0ibSAxNDMzLDkzNDMuNSBjIDAsLTIwLjcxMDkgMTUuNDQ2MiwtMzcuNSAzNC41LC0zNy41Ii8+JiN4YTsgICAgICAgIDxwYXRoIGlkPSJwYXRoMTAyIiBzdHlsZT0iZmlsbDpub25lO3N0cm9rZTojMDAwMDAwO3N0cm9rZS13aWR0aDoxMjtzdHJva2UtbGluZWNhcDpyb3VuZDtzdHJva2UtbGluZWpvaW46cm91bmQ7c3Ryb2tlLW1pdGVybGltaXQ6MTA7c3Ryb2tlLWRhc2hhcnJheTpub25lO3N0cm9rZS1vcGFjaXR5OjEiIGQ9Im0gMTQzMyw5MzQzIGggLTI1IC0yMiAtMTggLTE0IC0xMCAtNiAtMiIvPiYjeGE7ICAgICAgICA8cGF0aCBpZD0icGF0aDEwNCIgc3R5bGU9ImZpbGw6bm9uZTtzdHJva2U6IzAwMDAwMDtzdHJva2Utd2lkdGg6MTI7c3Ryb2tlLWxpbmVjYXA6cm91bmQ7c3Ryb2tlLWxpbmVqb2luOnJvdW5kO3N0cm9rZS1taXRlcmxpbWl0OjEwO3N0cm9rZS1kYXNoYXJyYXk6bm9uZTtzdHJva2Utb3BhY2l0eToxIiBkPSJtIDMzMjIsOTM0MyBoIC0yIC02IC0xMCAtMTQgLTE4IC0yMiAtMjUiLz4mI3hhOyAgICAgICAgPHBhdGggaWQ9InBhdGgxMDYiIHN0eWxlPSJmaWxsOm5vbmU7c3Ryb2tlOiMwMDAwMDA7c3Ryb2tlLXdpZHRoOjEyO3N0cm9rZS1saW5lY2FwOnJvdW5kO3N0cm9rZS1saW5lam9pbjpyb3VuZDtzdHJva2UtbWl0ZXJsaW1pdDoxMDtzdHJva2UtZGFzaGFycmF5Om5vbmU7c3Ryb2tlLW9wYWNpdHk6MSIgZD0iTSAxNTg5LDkzNDMgSCAxNDMzIi8+JiN4YTsgICAgICAgIDxwYXRoIGlkPSJwYXRoMTA4IiBzdHlsZT0iZmlsbDpub25lO3N0cm9rZTojMDAwMDAwO3N0cm9rZS13aWR0aDoxMjtzdHJva2UtbGluZWNhcDpyb3VuZDtzdHJva2UtbGluZWpvaW46cm91bmQ7c3Ryb2tlLW1pdGVybGltaXQ6MTA7c3Ryb2tlLWRhc2hhcnJheTpub25lO3N0cm9rZS1vcGFjaXR5OjEiIGQ9Ik0gMzIyNSw5MzQzIEggMzA2OSIvPiYjeGE7ICAgICAgICA8cGF0aCBpZD0icGF0aDExMCIgc3R5bGU9ImZpbGw6bm9uZTtzdHJva2U6IzAwMDAwMDtzdHJva2Utd2lkdGg6MTI7c3Ryb2tlLWxpbmVjYXA6cm91bmQ7c3Ryb2tlLWxpbmVqb2luOnJvdW5kO3N0cm9rZS1taXRlcmxpbWl0OjEwO3N0cm9rZS1kYXNoYXJyYXk6bm9uZTtzdHJva2Utb3BhY2l0eToxIiBkPSJtIDE0MzMsOTM0MyB2IDEwNTgiLz4mI3hhOyAgICAgICAgPGcgdHJhbnNmb3JtPSJyb3RhdGUoMTgwLDE1OTUuNzUsNTIwMC43NSkiIGlkPSJnMTEyIj4mI3hhOyAgICAgICAgICA8cGF0aCBpZD0icGF0aDExNCIgc3R5bGU9ImZpbGw6bm9uZTtzdHJva2U6IzAwMDAwMDtzdHJva2Utd2lkdGg6MTI7c3Ryb2tlLWxpbmVjYXA6cm91bmQ7c3Ryb2tlLWxpbmVqb2luOnJvdW5kO3N0cm9rZS1taXRlcmxpbWl0OjEwO3N0cm9rZS1kYXNoYXJyYXk6bm9uZTtzdHJva2Utb3BhY2l0eToxIiBkPSJtIC0zNC41LDAgYyAwLC0yMC43MTA2OCAxNS40NDYxNywtMzcuNSAzNC41LC0zNy41Ii8+JiN4YTsgICAgICAgIDwvZz4mI3hhOyAgICAgICAgPHBhdGggaWQ9InBhdGgxMTYiIHN0eWxlPSJmaWxsOm5vbmU7c3Ryb2tlOiMwMDAwMDA7c3Ryb2tlLXdpZHRoOjEyO3N0cm9rZS1saW5lY2FwOnJvdW5kO3N0cm9rZS1saW5lam9pbjpyb3VuZDtzdHJva2UtbWl0ZXJsaW1pdDoxMDtzdHJva2UtZGFzaGFycmF5Om5vbmU7c3Ryb2tlLW9wYWNpdHk6MSIgZD0ibSAzMjI1LDEwNDAxIGggMjUgMjIgMTggMTQgMTAgNiAyIi8+JiN4YTsgICAgICAgIDxwYXRoIGlkPSJwYXRoMTE4IiBzdHlsZT0iZmlsbDpub25lO3N0cm9rZTojMDAwMDAwO3N0cm9rZS13aWR0aDoxMjtzdHJva2UtbGluZWNhcDpyb3VuZDtzdHJva2UtbGluZWpvaW46cm91bmQ7c3Ryb2tlLW1pdGVybGltaXQ6MTA7c3Ryb2tlLWRhc2hhcnJheTpub25lO3N0cm9rZS1vcGFjaXR5OjEiIGQ9Im0gMTMzNiwxMDQwMSBoIDIgNiAxMCAxNCAxOCAyMiAyNSIvPiYjeGE7ICAgICAgICA8cGF0aCBpZD0icGF0aDEyMCIgc3R5bGU9ImZpbGw6bm9uZTtzdHJva2U6IzAwMDAwMDtzdHJva2Utd2lkdGg6MTI7c3Ryb2tlLWxpbmVjYXA6cm91bmQ7c3Ryb2tlLWxpbmVqb2luOnJvdW5kO3N0cm9rZS1taXRlcmxpbWl0OjEwO3N0cm9rZS1kYXNoYXJyYXk6bm9uZTtzdHJva2Utb3BhY2l0eToxIiBkPSJtIDMwNjksMTA0MDEgaCAxNTYgViA5MzQzIi8+JiN4YTsgICAgICAgIDxnIHRyYW5zZm9ybT0icm90YXRlKDE4MCwxNTE1Ljc1LDYwNDMuMjUpIiBpZD0iZzEyMiI+JiN4YTsgICAgICAgICAgPHBhdGggaWQ9InBhdGgxMjQiIHN0eWxlPSJmaWxsOm5vbmU7c3Ryb2tlOiMwMDAwMDA7c3Ryb2tlLXdpZHRoOjEyO3N0cm9rZS1saW5lY2FwOnJvdW5kO3N0cm9rZS1saW5lam9pbjpyb3VuZDtzdHJva2UtbWl0ZXJsaW1pdDoxMDtzdHJva2UtZGFzaGFycmF5Om5vbmU7c3Ryb2tlLW9wYWNpdHk6MSIgZD0ibSAtMzcuNSwwIGMgMCwtMjAuNzEwNjggMTYuNzg5MzIsLTM3LjUgMzcuNSwtMzcuNSIvPiYjeGE7ICAgICAgICA8L2c+JiN4YTsgICAgICAgIDxnIHRyYW5zZm9ybT0icm90YXRlKDE4MCw4MTMuNzUsNjA0My4yNSkiIGlkPSJnMTI2Ij4mI3hhOyAgICAgICAgICA8cGF0aCBpZD0icGF0aDEyOCIgc3R5bGU9ImZpbGw6bm9uZTtzdHJva2U6IzAwMDAwMDtzdHJva2Utd2lkdGg6MTI7c3Ryb2tlLWxpbmVjYXA6cm91bmQ7c3Ryb2tlLWxpbmVqb2luOnJvdW5kO3N0cm9rZS1taXRlcmxpbWl0OjEwO3N0cm9rZS1kYXNoYXJyYXk6bm9uZTtzdHJva2Utb3BhY2l0eToxIiBkPSJtIDAsLTM3LjUgYyAyMC43MTA2OCwwIDM3LjUsMTYuNzg5MzIgMzcuNSwzNy41Ii8+JiN4YTsgICAgICAgIDwvZz4mI3hhOyAgICAgICAgPHBhdGggaWQ9InBhdGgxMzAiIHN0eWxlPSJmaWxsOm5vbmU7c3Ryb2tlOiMwMDAwMDA7c3Ryb2tlLXdpZHRoOjEyO3N0cm9rZS1saW5lY2FwOnJvdW5kO3N0cm9rZS1saW5lam9pbjpyb3VuZDtzdHJva2UtbWl0ZXJsaW1pdDoxMDtzdHJva2UtZGFzaGFycmF5Om5vbmU7c3Ryb2tlLW9wYWNpdHk6MSIgZD0ibSAxNTg5LDkzNDMgdiAyNzQzIi8+JiN4YTsgICAgICAgIDxwYXRoIGlkPSJwYXRoMTMyIiBzdHlsZT0iZmlsbDpub25lO3N0cm9rZTojMDAwMDAwO3N0cm9rZS13aWR0aDoxMjtzdHJva2UtbGluZWNhcDpyb3VuZDtzdHJva2UtbGluZWpvaW46cm91bmQ7c3Ryb2tlLW1pdGVybGltaXQ6MTA7c3Ryb2tlLWRhc2hhcnJheTpub25lO3N0cm9rZS1vcGFjaXR5OjEiIGQ9Ik0gMTYyNywxMjEyNCBIIDMwMzEiLz4mI3hhOyAgICAgICAgPHBhdGggaWQ9InBhdGgxMzQiIHN0eWxlPSJmaWxsOm5vbmU7c3Ryb2tlOiMwMDAwMDA7c3Ryb2tlLXdpZHRoOjEyO3N0cm9rZS1saW5lY2FwOnJvdW5kO3N0cm9rZS1saW5lam9pbjpyb3VuZDtzdHJva2UtbWl0ZXJsaW1pdDoxMDtzdHJva2UtZGFzaGFycmF5Om5vbmU7c3Ryb2tlLW9wYWNpdHk6MSIgZD0ibSAzMDY5LDkzNDMgdiAyNzQzIi8+JiN4YTsgICAgICAgIDxwYXRoIGlkPSJwYXRoMTM2IiBzdHlsZT0iZmlsbDpub25lO3N0cm9rZTojMDAwMDAwO3N0cm9rZS13aWR0aDoxMjtzdHJva2UtbGluZWNhcDpyb3VuZDtzdHJva2UtbGluZWpvaW46cm91bmQ7c3Ryb2tlLW1pdGVybGltaXQ6MTA7c3Ryb2tlLWRhc2hhcnJheTpub25lO3N0cm9rZS1vcGFjaXR5OjEiIGQ9Im0gMjYxMywxMTM0NSB2IC00IC0zIC00IC00IC00IC0zIGwgLTEsLTQgdiAtNCAtNCBsIC0xLC0zIHYgLTQgLTQgbCAtMSwtNCB2IC0zIGwgLTEsLTQgdiAtNCBsIC0xLC00IC0xLC0zIC0xLC00IHYgLTQgbCAtMSwtMyAtMSwtNCAtMSwtNCAtMSwtMyAtMSwtNCAtMSwtMyAtMSwtNCAtMSwtMyAtMSwtNCAtMSwtNCAtMSwtMyAtMSwtNCAtMiwtMyAtMSwtNCAtMSwtMyAtMiwtMyAtMSwtNCAtMiwtMyAtMSwtNCAtMiwtMyAtMSwtMyAtMiwtNCAtMiwtMyAtMSwtMyAtMiwtNCAtMiwtMyAtMiwtMyAtMSwtMyAtMiwtMyAtMiwtMyAtMiwtNCAtMiwtMyAtMiwtMyAtMiwtMyAtMiwtMyAtMiwtMyAtMywtMyAtMiwtMyAtMiwtMyAtMiwtMiAtMywtMyAtMiwtMyAtMiwtMyAtMywtMiAtMiwtMyAtMywtMyAtMiwtMyAtMywtMiAtMiwtMyAtMywtMiAtMiwtMyAtMywtMiAtMywtMyAtMiwtMiAtMywtMiAtMywtMyAtMywtMiAtMiwtMiAtMywtMyAtMywtMiAtMywtMiAtMywtMiAtMywtMiAtMywtMiAtMywtMiAtMywtMiAtMywtMiAtMywtMiAtMywtMiAtMywtMSAtMywtMiAtNCwtMiAtMywtMSAtMywtMiAtMywtMiAtMywtMSAtNCwtMiAtMywtMSAtMywtMSAtNCwtMiAtMywtMSAtMywtMSAtNCwtMiAtMywtMSAtMywtMSAtNCwtMSAtMywtMSAtNCwtMSAtMywtMSAtMywtMSAtNCwtMSAtMywtMSBoIC00IGwgLTMsLTEgLTQsLTEgaCAtMyBsIC00LC0xIGggLTMgbCAtNCwtMSBoIC00IGwgLTMsLTEgaCAtNCAtMyBsIC00LC0xIGggLTMgLTQgLTMgLTQgLTQgLTMgLTQgLTMgLTQgbCAtMywxIGggLTQgLTQgbCAtMywxIGggLTQgbCAtMywxIGggLTQgbCAtMywxIGggLTQgbCAtMywxIC00LDEgaCAtMyBsIC00LDEgLTMsMSAtNCwxIC0zLDEgLTQsMSAtMywxIC0zLDEgLTQsMSAtMywxIC00LDEgLTMsMiAtMywxIC00LDEgLTMsMiAtMywxIC0zLDIgLTQsMSAtMywyIC0zLDEgLTMsMiAtMywyIC00LDEgLTMsMiAtMywyIC0zLDIgLTMsMiAtMywyIC0zLDIgLTMsMiAtMywyIC0zLDIgLTMsMiAtMywyIC0yLDIgLTMsMyAtMywyIC0zLDIgLTMsMyAtMiwyIC0zLDIgLTMsMyAtMiwyIC0zLDMgLTIsMiAtMywzIC0yLDMgLTMsMiAtMiwzIC0zLDMgLTIsMyAtMiwyIC0zLDMgLTIsMyAtMiwzIC0yLDMgLTMsMyAtMiwzIC0yLDMgLTIsMyAtMiwzIC0yLDMgLTIsMyAtMiwzIC0yLDMgLTIsMyAtMSw0IC0yLDMgLTIsMyAtMiwzIC0xLDQgLTIsMyAtMiwzIC0xLDQgLTIsMyAtMSw0IC0yLDMgLTEsMyAtMSw0IC0yLDMgLTEsNCAtMSwzIC0xLDQgLTIsMyAtMSw0IC0xLDQgLTEsMyAtMSw0IC0xLDMgLTEsNCAtMSw0IHYgMyBsIC0xLDQgLTEsNCAtMSwzIHYgNCBsIC0xLDQgLTEsMyB2IDQgbCAtMSw0IHYgMyBsIC0xLDQgdiA0IGwgLTEsNCB2IDMgNCA0IGwgLTEsNCB2IDMgNCA0IDQiLz4mI3hhOyAgICAgICAgPHBhdGggaWQ9InBhdGgxMzgiIHN0eWxlPSJmaWxsOm5vbmU7c3Ryb2tlOiMwMDAwMDA7c3Ryb2tlLXdpZHRoOjEyO3N0cm9rZS1saW5lY2FwOnJvdW5kO3N0cm9rZS1saW5lam9pbjpyb3VuZDtzdHJva2UtbWl0ZXJsaW1pdDoxMDtzdHJva2UtZGFzaGFycmF5Om5vbmU7c3Ryb2tlLW9wYWNpdHk6MSIgZD0ibSAyNjEzLDEwMDM3IHYgLTQgLTMgLTQgLTMgLTQgLTMgLTQgLTMgbCAtMSwtNCB2IC0zIC00IGwgLTEsLTMgdiAtMyBsIC0xLC00IHYgLTMgbCAtMSwtNCB2IC0zIGwgLTEsLTQgLTEsLTMgdiAtNCBsIC0xLC0zIC0xLC0zIC0xLC00IC0xLC0zIC0xLC00IC0xLC0zIC0xLC0zIC0xLC00IC0xLC0zIC0xLC0zIC0xLC0zIC0xLC00IC0yLC0zIC0xLC0zIC0xLC0zIC0yLC00IC0xLC0zIC0xLC0zIC0yLC0zIC0xLC0zIC0yLC0zIC0yLC00IC0xLC0zIC0yLC0zIC0yLC0zIC0xLC0zIC0yLC0zIC0yLC0zIC0yLC0zIC0yLC0zIC0yLC0zIC0yLC0yIC0yLC0zIC0yLC0zIC0yLC0zIC0yLC0zIC0yLC0yIC0yLC0zIC0yLC0zIC0zLC0zIC0yLC0yIC0yLC0zIC0zLC0yIC0yLC0zIC0yLC0yIC0zLC0zIC0yLC0yIC0zLC0zIC0yLC0yIC0zLC0zIC0yLC0yIC0zLC0yIC0zLC0zIC0yLC0yIC0zLC0yIC0zLC0yIC0yLC0yIC0zLC0zIC0zLC0yIC0zLC0yIC0zLC0yIC0zLC0yIC0zLC0yIC0yLC0yIC0zLC0xIC0zLC0yIC0zLC0yIC0zLC0yIC0zLC0xIC0zLC0yIC00LC0yIC0zLC0xIC0zLC0yIC0zLC0yIC0zLC0xIC0zLC0xIC0zLC0yIC00LC0xIC0zLC0yIC0zLC0xIC0zLC0xIC00LC0xIC0zLC0yIC0zLC0xIC0zLC0xIC00LC0xIC0zLC0xIC0zLC0xIC00LC0xIC0zLC0xIGggLTQgbCAtMywtMSAtMywtMSAtNCwtMSBoIC0zIGwgLTQsLTEgLTMsLTEgaCAtMyBsIC00LC0xIGggLTMgbCAtNCwtMSBoIC0zIC00IGwgLTMsLTEgaCAtNCAtMyAtNCAtMyAtNCAtMyAtNCAtMyAtNCAtMyAtNCAtMyAtMyBsIC00LDEgaCAtMyBsIC00LDEgaCAtMyAtNCBsIC0zLDEgLTQsMSBoIC0zIGwgLTQsMSBoIC0zIGwgLTMsMSAtNCwxIC0zLDEgLTQsMSAtMywxIGggLTMgbCAtNCwxIC0zLDEgLTMsMiAtNCwxIC0zLDEgLTMsMSAtMywxIC00LDEgLTMsMiAtMywxIC0zLDEgLTMsMiAtNCwxIC0zLDIgLTMsMSAtMywyIC0zLDIgLTMsMSAtMywyIC0zLDIgLTMsMSAtMywyIC0zLDIgLTMsMiAtMywyIC0zLDIgLTMsMiAtMywyIC0yLDIgLTMsMiAtMywyIC0zLDIgLTIsMiAtMywzIC0zLDIgLTIsMiAtMywzIC0zLDIgLTIsMiAtMywzIC0yLDIgLTMsMyAtMiwyIC0yLDMgLTMsMiAtMiwzIC0yLDMgLTMsMiAtMiwzIC0yLDMgLTIsMiAtMiwzIC0zLDMgLTIsMyAtMiwyIC0yLDMgLTIsMyAtMiwzIC0xLDMgLTIsMyAtMiwzIC0yLDMgLTIsMyAtMSwzIC0yLDMgLTIsMyAtMSwzIC0yLDMgLTEsNCAtMiwzIC0xLDMgLTIsMyAtMSwzIC0xLDQgLTIsMyAtMSwzIC0xLDMgLTEsNCAtMSwzIC0yLDMgLTEsNCAtMSwzIC0xLDMgdiA0IGwgLTEsMyAtMSw0IC0xLDMgLTEsMyB2IDQgbCAtMSwzIC0xLDQgdiAzIGwgLTEsNCB2IDMgbCAtMSwzIHYgNCBsIC0xLDMgdiA0IDMgbCAtMSw0IHYgMyA0IDMiLz4mI3hhOyAgICAgICAgPHBhdGggaWQ9InBhdGgxNDAiIHN0eWxlPSJmaWxsOm5vbmU7c3Ryb2tlOiMwMDAwMDA7c3Ryb2tlLXdpZHRoOjEyO3N0cm9rZS1saW5lY2FwOnJvdW5kO3N0cm9rZS1saW5lam9pbjpyb3VuZDtzdHJva2UtbWl0ZXJsaW1pdDoxMDtzdHJva2UtZGFzaGFycmF5Om5vbmU7c3Ryb2tlLW9wYWNpdHk6MSIgZD0ibSAyNTk3LDk5MzUgLTEsMyAtMiw0IC0yLDMgLTEsMyAtMiw0IC0yLDMgLTIsNCAtMiwzIC0yLDMgLTIsNCAtMiwzIC0yLDMgLTIsMyAtMyw0IC0yLDMgLTIsMyAtMywzIC0yLDMgLTIsMyAtMywzIC0zLDMgLTIsMyAtMywzIC0yLDMgLTMsMyAtMywyIC0zLDMgLTMsMyAtMiwyIC0zLDMgLTMsMyAtMywyIi8+JiN4YTsgICAgICAgIDxwYXRoIGlkPSJwYXRoMTQyIiBzdHlsZT0iZmlsbDpub25lO3N0cm9rZTojMDAwMDAwO3N0cm9rZS13aWR0aDoxMjtzdHJva2UtbGluZWNhcDpyb3VuZDtzdHJva2UtbGluZWpvaW46cm91bmQ7c3Ryb2tlLW1pdGVybGltaXQ6MTA7c3Ryb2tlLWRhc2hhcnJheTpub25lO3N0cm9rZS1vcGFjaXR5OjEiIGQ9Im0gMjE0NywxMDAyOCAtNCwtMiAtMywtMyAtMywtMyAtMywtMyAtMywtMyAtMywtNCAtMywtMyAtMywtMyAtMywtMyAtMywtNCAtMiwtMyAtMywtMyAtMywtNCAtMiwtMyAtMywtNCAtMywtMyAtMiwtNCAtMiwtNCAtMywtMyAtMiwtNCAtMiwtNCAtMiwtNCAtMiwtMyAtMiwtNCAtMiwtNCAtMiwtNCAtMiwtNCAtMiwtNCAtMSwtNCAtMiwtNCAtMSwtNCAtMiwtNCIvPiYjeGE7ICAgICAgICA8cGF0aCBpZD0icGF0aDE0NCIgc3R5bGU9ImZpbGw6bm9uZTtzdHJva2U6IzAwMDAwMDtzdHJva2Utd2lkdGg6MTI7c3Ryb2tlLWxpbmVjYXA6cm91bmQ7c3Ryb2tlLWxpbmVqb2luOnJvdW5kO3N0cm9rZS1taXRlcmxpbWl0OjEwO3N0cm9rZS1kYXNoYXJyYXk6bm9uZTtzdHJva2Utb3BhY2l0eToxIiBkPSJtIDMyODQuNSw5MzA2IGMgMjAuNzEwNywwIDM3LjUsMTYuNzg5MSAzNy41LDM3LjUiLz4mI3hhOyAgICAgICAgPHBhdGggaWQ9InBhdGgxNDYiIHN0eWxlPSJmaWxsOm5vbmU7c3Ryb2tlOiMwMDAwMDA7c3Ryb2tlLXdpZHRoOjEyO3N0cm9rZS1saW5lY2FwOnJvdW5kO3N0cm9rZS1saW5lam9pbjpyb3VuZDtzdHJva2UtbWl0ZXJsaW1pdDoxMDtzdHJva2UtZGFzaGFycmF5Om5vbmU7c3Ryb2tlLW9wYWNpdHk6MSIgZD0ibSAxMzM3LDkzNDMuNSBjIDAsLTIwLjcxMDkgMTYuNzg5MywtMzcuNSAzNy41LC0zNy41Ii8+JiN4YTsgICAgICAgIDxnIHRyYW5zZm9ybT0icm90YXRlKDE4MCwxNjQyLjI1LDUyMDAuNzUpIiBpZD0iZzE0OCI+JiN4YTsgICAgICAgICAgPHBhdGggaWQ9InBhdGgxNTAiIHN0eWxlPSJmaWxsOm5vbmU7c3Ryb2tlOiMwMDAwMDA7c3Ryb2tlLXdpZHRoOjEyO3N0cm9rZS1saW5lY2FwOnJvdW5kO3N0cm9rZS1saW5lam9pbjpyb3VuZDtzdHJva2UtbWl0ZXJsaW1pdDoxMDtzdHJva2UtZGFzaGFycmF5Om5vbmU7c3Ryb2tlLW9wYWNpdHk6MSIgZD0ibSAtMzcuNSwwIGMgMCwtMjAuNzEwNjggMTYuNzg5MzIsLTM3LjUgMzcuNSwtMzcuNSIvPiYjeGE7ICAgICAgICA8L2c+JiN4YTsgICAgICAgIDxnIHRyYW5zZm9ybT0icm90YXRlKDE4MCw2ODcuMjUsNTIwMC43NSkiIGlkPSJnMTUyIj4mI3hhOyAgICAgICAgICA8cGF0aCBpZD0icGF0aDE1NCIgc3R5bGU9ImZpbGw6bm9uZTtzdHJva2U6IzAwMDAwMDtzdHJva2Utd2lkdGg6MTI7c3Ryb2tlLWxpbmVjYXA6cm91bmQ7c3Ryb2tlLWxpbmVqb2luOnJvdW5kO3N0cm9rZS1taXRlcmxpbWl0OjEwO3N0cm9rZS1kYXNoYXJyYXk6bm9uZTtzdHJva2Utb3BhY2l0eToxIiBkPSJtIDAsLTM3LjUgYyAyMC43MTA2OCwwIDM3LjUsMTYuNzg5MzIgMzcuNSwzNy41Ii8+JiN4YTsgICAgICAgIDwvZz4mI3hhOyAgICAgICAgPHBhdGggaWQ9InBhdGgxNTYiIHN0eWxlPSJmaWxsOm5vbmU7c3Ryb2tlOiMwMDAwMDA7c3Ryb2tlLXdpZHRoOjEyO3N0cm9rZS1saW5lY2FwOnJvdW5kO3N0cm9rZS1saW5lam9pbjpyb3VuZDtzdHJva2UtbWl0ZXJsaW1pdDoxMDtzdHJva2UtZGFzaGFycmF5Om5vbmU7c3Ryb2tlLW9wYWNpdHk6MSIgZD0ibSAxMzM2LDkzNDMgdiAxMDU4Ii8+JiN4YTsgICAgICAgIDxwYXRoIGlkPSJwYXRoMTU4IiBzdHlsZT0iZmlsbDpub25lO3N0cm9rZTojMDAwMDAwO3N0cm9rZS13aWR0aDoxMjtzdHJva2UtbGluZWNhcDpyb3VuZDtzdHJva2UtbGluZWpvaW46cm91bmQ7c3Ryb2tlLW1pdGVybGltaXQ6MTA7c3Ryb2tlLWRhc2hhcnJheTpub25lO3N0cm9rZS1vcGFjaXR5OjEiIGQ9Im0gMzMyMiw5MzQzIHYgMTA1OCIvPiYjeGE7ICAgICAgPC9nPiYjeGE7ICAgIDwvZz4mI3hhOyAgICA8ZyBpZD0iZzE2MCI+JiN4YTsgICAgICA8ZyBjbGlwLXBhdGg9InVybCgjY2xpcFBhdGgxNjYpIiBpZD0iZzE2MiI+JiN4YTsgICAgICAgIDxnIHRyYW5zZm9ybT0icm90YXRlKDExLjMxMDE1NywtNTY2NDYuNDAxLDUwMjU3Ljg2OCkiIGlkPSJnMTY4Ij4mI3hhOyAgICAgICAgICA8cGF0aCBpZD0icGF0aDE3MCIgc3R5bGU9ImZpbGw6bm9uZTtzdHJva2U6IzAwMDAwMDtzdHJva2Utd2lkdGg6MTI7c3Ryb2tlLWxpbmVjYXA6cm91bmQ7c3Ryb2tlLWxpbmVqb2luOnJvdW5kO3N0cm9rZS1taXRlcmxpbWl0OjEwO3N0cm9rZS1kYXNoYXJyYXk6bm9uZTtzdHJva2Utb3BhY2l0eToxIiBkPSJNIDAsMzcuNSBDIC00LjAyOTk3LDM3LjUgLTcuMzM5NTYsMjEuNTc2MzMgLTcuNDk0NDYsMS40NDEzNSIvPiYjeGE7ICAgICAgICA8L2c+JiN4YTsgICAgICAgIDxnIHRyYW5zZm9ybT0icm90YXRlKDE4MCw0MzgxLjc1LDYwMjQuMjUpIiBpZD0iZzE3MiI+JiN4YTsgICAgICAgICAgPHBhdGggaWQ9InBhdGgxNzQiIHN0eWxlPSJmaWxsOm5vbmU7c3Ryb2tlOiMwMDAwMDA7c3Ryb2tlLXdpZHRoOjEyO3N0cm9rZS1saW5lY2FwOnJvdW5kO3N0cm9rZS1saW5lam9pbjpyb3VuZDtzdHJva2UtbWl0ZXJsaW1pdDoxMDtzdHJva2UtZGFzaGFycmF5Om5vbmU7c3Ryb2tlLW9wYWNpdHk6MSIgZD0ibSAtNzUuNSwwIGMgMCwtMTEuMjM0OCAxMC4xNDE0OSwtMjEuODc3NzMgMjcuNjM0MDksLTI5LjAwMDQzIDE3LjQ5MjU5LC03LjEyMjcgNDAuNDkzMjEsLTkuOTc0NyA2Mi42NzMzMSwtNy43NzEyOCIvPiYjeGE7ICAgICAgICA8L2c+JiN4YTsgICAgICAgIDxnIHRyYW5zZm9ybT0icm90YXRlKDE4MCw0MzgxLjc1LDYwMjQuMjUpIiBpZD0iZzE3NiI+JiN4YTsgICAgICAgICAgPHBhdGggaWQ9InBhdGgxNzgiIHN0eWxlPSJmaWxsOm5vbmU7c3Ryb2tlOiMwMDAwMDA7c3Ryb2tlLXdpZHRoOjEyO3N0cm9rZS1saW5lY2FwOnJvdW5kO3N0cm9rZS1saW5lam9pbjpyb3VuZDtzdHJva2UtbWl0ZXJsaW1pdDoxMDtzdHJva2UtZGFzaGFycmF5Om5vbmU7c3Ryb2tlLW9wYWNpdHk6MSIgZD0ibSAtNzUuNSwwIGMgMCwtMjIuNjE5NCAxMC4xNDE0OSwtNDQuMDQ3MTYgMjcuNjM0MDksLTU4LjM4NzU0IDE3LjQ5MjU5LC0xNC4zNDAzNyA0MC40OTMyMSwtMjAuMDgyMzkgNjIuNjczMzEsLTE1LjY0NjE3Ii8+JiN4YTsgICAgICAgIDwvZz4mI3hhOyAgICAgICAgPGcgdHJhbnNmb3JtPSJyb3RhdGUoMTgwLDQzNzguMjUsNDY3MS43NSkiIGlkPSJnMTgwIj4mI3hhOyAgICAgICAgICA8cGF0aCBpZD0icGF0aDE4MiIgc3R5bGU9ImZpbGw6bm9uZTtzdHJva2U6IzAwMDAwMDtzdHJva2Utd2lkdGg6MTI7c3Ryb2tlLWxpbmVjYXA6cm91bmQ7c3Ryb2tlLWxpbmVqb2luOnJvdW5kO3N0cm9rZS1taXRlcmxpbWl0OjEwO3N0cm9rZS1kYXNoYXJyYXk6bm9uZTtzdHJva2Utb3BhY2l0eToxIiBkPSJNIDcuNSwwIEMgNy41LDIwLjcxMDY4IDQuMTQyMTQsMzcuNSAwLDM3LjUiLz4mI3hhOyAgICAgICAgPC9nPiYjeGE7ICAgICAgICA8cGF0aCBpZD0icGF0aDE4NCIgc3R5bGU9ImZpbGw6bm9uZTtzdHJva2U6IzAwMDAwMDtzdHJva2Utd2lkdGg6MTI7c3Ryb2tlLWxpbmVjYXA6cm91bmQ7c3Ryb2tlLWxpbmVqb2luOnJvdW5kO3N0cm9rZS1taXRlcmxpbWl0OjEwO3N0cm9rZS1kYXNoYXJyYXk6bm9uZTtzdHJva2Utb3BhY2l0eToxIiBkPSJtIDg3NTYsOTMwNSBoIDciLz4mI3hhOyAgICAgICAgPHBhdGggaWQ9InBhdGgxODYiIHN0eWxlPSJmaWxsOm5vbmU7c3Ryb2tlOiMwMDAwMDA7c3Ryb2tlLXdpZHRoOjEyO3N0cm9rZS1saW5lY2FwOnJvdW5kO3N0cm9rZS1saW5lam9pbjpyb3VuZDtzdHJva2UtbWl0ZXJsaW1pdDoxMDtzdHJva2UtZGFzaGFycmF5Om5vbmU7c3Ryb2tlLW9wYWNpdHk6MSIgZD0ibSA4NzQ4LDkzNDMgaCAxNSB2IC0xMiAtMTAgLTkgLTUgLTIiLz4mI3hhOyAgICAgICAgPHBhdGggaWQ9InBhdGgxODgiIHN0eWxlPSJmaWxsOm5vbmU7c3Ryb2tlOiMwMDAwMDA7c3Ryb2tlLXdpZHRoOjEyO3N0cm9rZS1saW5lY2FwOnJvdW5kO3N0cm9rZS1saW5lam9pbjpyb3VuZDtzdHJva2UtbWl0ZXJsaW1pdDoxMDtzdHJva2UtZGFzaGFycmF5Om5vbmU7c3Ryb2tlLW9wYWNpdHk6MSIgZD0ibSA4NzYzLjUsOTMwNiBjIDQxLjY5NzMsMCA3NS41LDMzLjgwMjcgNzUuNSw3NS41Ii8+JiN4YTsgICAgICAgIDxwYXRoIGlkPSJwYXRoMTkwIiBzdHlsZT0iZmlsbDpub25lO3N0cm9rZTojMDAwMDAwO3N0cm9rZS13aWR0aDoxMjtzdHJva2UtbGluZWNhcDpyb3VuZDtzdHJva2UtbGluZWpvaW46cm91bmQ7c3Ryb2tlLW1pdGVybGltaXQ6MTA7c3Ryb2tlLWRhc2hhcnJheTpub25lO3N0cm9rZS1vcGFjaXR5OjEiIGQ9Im0gODc2My41LDkzNDQgYyA0MS42OTczLDAgNzUuNSwxNi43ODkxIDc1LjUsMzcuNSIvPiYjeGE7ICAgICAgICA8cGF0aCBpZD0icGF0aDE5MiIgc3R5bGU9ImZpbGw6bm9uZTtzdHJva2U6IzAwMDAwMDtzdHJva2Utd2lkdGg6MTI7c3Ryb2tlLWxpbmVjYXA6cm91bmQ7c3Ryb2tlLWxpbmVqb2luOnJvdW5kO3N0cm9rZS1taXRlcmxpbWl0OjEwO3N0cm9rZS1kYXNoYXJyYXk6bm9uZTtzdHJva2Utb3BhY2l0eToxIiBkPSJNIDg3NDgsMTIwODUgViA5MzQzIi8+JiN4YTsgICAgICAgIDxwYXRoIGlkPSJwYXRoMTk0IiBzdHlsZT0iZmlsbDpub25lO3N0cm9rZTojMDAwMDAwO3N0cm9rZS13aWR0aDoxMjtzdHJva2UtbGluZWNhcDpyb3VuZDtzdHJva2UtbGluZWpvaW46cm91bmQ7c3Ryb2tlLW1pdGVybGltaXQ6MTA7c3Ryb2tlLWRhc2hhcnJheTpub25lO3N0cm9rZS1vcGFjaXR5OjEiIGQ9Im0gODgzOSw5MzgxIHYgMjY2NyIvPiYjeGE7ICAgICAgICA8cGF0aCBpZD0icGF0aDE5NiIgc3R5bGU9ImZpbGw6bm9uZTtzdHJva2U6IzAwMDAwMDtzdHJva2Utd2lkdGg6MTI7c3Ryb2tlLWxpbmVjYXA6cm91bmQ7c3Ryb2tlLWxpbmVqb2luOnJvdW5kO3N0cm9rZS1taXRlcmxpbWl0OjEwO3N0cm9rZS1kYXNoYXJyYXk6bm9uZTtzdHJva2Utb3BhY2l0eToxIiBkPSJtIDQ0ODIsOTMwNSBoIDIgNSAxMCAxMyAxNyAyMCAyNCAyOCAzMCAzNCAzNyA0MCA0MyA0NSA0NyA1MCA1MiA1NCA1NSA1NyA1NyA1OSA1OSA2MCA2MCA2MSA1OSA2MCA1OCA1OCA1NiA1NiAxMDk2IDE4MTIiLz4mI3hhOyAgICAgICAgPHBhdGggaWQ9InBhdGgxOTgiIHN0eWxlPSJmaWxsOm5vbmU7c3Ryb2tlOiMwMDAwMDA7c3Ryb2tlLXdpZHRoOjEyO3N0cm9rZS1saW5lY2FwOnJvdW5kO3N0cm9rZS1saW5lam9pbjpyb3VuZDtzdHJva2UtbWl0ZXJsaW1pdDoxMDtzdHJva2UtZGFzaGFycmF5Om5vbmU7c3Ryb2tlLW9wYWNpdHk6MSIgZD0ibSA2NDMyLDEwNDM5IGggLTU4NCAtNTYgLTU2IC01OCAtNTggLTYwIC01OSAtNjEgLTYwIC02MCAtNTkgLTU5IC01NyAtNTcgLTU1IC01NCAtNTIgLTUwIC00NyAtNDUgLTQzIC00MCAtMzcgLTM0IC0zMCAtMjggLTI0IC0yMCAtMTcgLTEzIC0xMCAtNSAtMiIvPiYjeGE7ICAgICAgICA8cGF0aCBpZD0icGF0aDIwMCIgc3R5bGU9ImZpbGw6bm9uZTtzdHJva2U6IzAwMDAwMDtzdHJva2Utd2lkdGg6MTI7c3Ryb2tlLWxpbmVjYXA6cm91bmQ7c3Ryb2tlLWxpbmVqb2luOnJvdW5kO3N0cm9rZS1taXRlcmxpbWl0OjEwO3N0cm9rZS1kYXNoYXJyYXk6bm9uZTtzdHJva2Utb3BhY2l0eToxIiBkPSJtIDY1MjAuNDE0NSwxMDQ0OS4zNTIgYyAxNTEuMTAxNiwzNi4wODMgMjY0LjgxMjEsMTYwLjgzMyAyODYuNzgxOCwzMTQuNjIyIi8+JiN4YTsgICAgICAgIDxwYXRoIGlkPSJwYXRoMjAyIiBzdHlsZT0iZmlsbDpub25lO3N0cm9rZTojMDAwMDAwO3N0cm9rZS13aWR0aDoxMjtzdHJva2UtbGluZWNhcDpyb3VuZDtzdHJva2UtbGluZWpvaW46cm91bmQ7c3Ryb2tlLW1pdGVybGltaXQ6MTA7c3Ryb2tlLWRhc2hhcnJheTpub25lO3N0cm9rZS1vcGFjaXR5OjEiIGQ9Im0gNjQzMi41LDEwNDM5IGMgMjkuNjA4OSwwIDU5LjExNTIsMy40NzUgODcuOTE0NSwxMC4zNTIiLz4mI3hhOyAgICAgICAgPHBhdGggaWQ9InBhdGgyMDQiIHN0eWxlPSJmaWxsOm5vbmU7c3Ryb2tlOiMwMDAwMDA7c3Ryb2tlLXdpZHRoOjEyO3N0cm9rZS1saW5lY2FwOnJvdW5kO3N0cm9rZS1saW5lam9pbjpyb3VuZDtzdHJva2UtbWl0ZXJsaW1pdDoxMDtzdHJva2UtZGFzaGFycmF5Om5vbmU7c3Ryb2tlLW9wYWNpdHk6MSIgZD0ibSA2MjEwLDEwNDAxIDMsMSA0LDEgMywxIGggNCBsIDMsMSA0LDEgaCA0IGwgNCwxIGggNCBsIDQsMSA0LDEgaCA0IGwgNSwxIDQsMSBoIDQgbCA1LDEgaCA0IGwgNSwxIDUsMSBoIDQgbCA1LDEgaCA1IGwgNSwxIDUsMSBoIDUgbCA1LDEgNSwxIGggNSBsIDUsMSA2LDEgaCA1IGwgNSwxIDYsMSBoIDUgbCAxMSwyIDExLDEgMTEsMiAxMSwxIDExLDIgMTAsMSAxMSwyIDEwLDIgMTEsMSAxMCwyIDUsMSA1LDEgNSwxIDUsMSA1LDEgNSwxIDUsMSA1LDEgNSwxIDUsMiIvPiYjeGE7ICAgICAgICA8ZyB0cmFuc2Zvcm09Im1hdHJpeCgwLjk5Njk3LDAuMDc3NzcsLTAuMDc3NzcsMC45OTY5Nyw2MzcyLjUsMTA0MDEuNSkiIGlkPSJnMjA2Ij4mI3hhOyAgICAgICAgICA8cGF0aCBpZD0icGF0aDIwOCIgc3R5bGU9ImZpbGw6bm9uZTtzdHJva2U6IzAwMDAwMDtzdHJva2Utd2lkdGg6MTI7c3Ryb2tlLWxpbmVjYXA6cm91bmQ7c3Ryb2tlLWxpbmVqb2luOnJvdW5kO3N0cm9rZS1taXRlcmxpbWl0OjEwO3N0cm9rZS1kYXNoYXJyYXk6bm9uZTtzdHJva2Utb3BhY2l0eToxIiBkPSJNIDYyLjA2OTE2LDMzLjE1MDU1IEMgLTI3LjQxMDY0LDQwLjE2NDU5IC0xMjcuNzM3NjUsMzEuMDA4NTggLTE2Mi4wMTc1LDEyLjcwMDAzIi8+JiN4YTsgICAgICAgIDwvZz4mI3hhOyAgICAgICAgPHBhdGggaWQ9InBhdGgyMTAiIHN0eWxlPSJmaWxsOm5vbmU7c3Ryb2tlOiMwMDAwMDA7c3Ryb2tlLXdpZHRoOjEyO3N0cm9rZS1saW5lY2FwOnJvdW5kO3N0cm9rZS1saW5lam9pbjpyb3VuZDtzdHJva2UtbWl0ZXJsaW1pdDoxMDtzdHJva2UtZGFzaGFycmF5Om5vbmU7c3Ryb2tlLW9wYWNpdHk6MSIgZD0ibSA1ODY1LDEwNDAxLjUgYyAwLDIwLjcxMSAtNy4zODcyLDM3LjUgLTE2LjUsMzcuNSIvPiYjeGE7ICAgICAgICA8cGF0aCBpZD0icGF0aDIxMiIgc3R5bGU9ImZpbGw6bm9uZTtzdHJva2U6IzAwMDAwMDtzdHJva2Utd2lkdGg6MTI7c3Ryb2tlLWxpbmVjYXA6cm91bmQ7c3Ryb2tlLWxpbmVqb2luOnJvdW5kO3N0cm9rZS1taXRlcmxpbWl0OjEwO3N0cm9rZS1kYXNoYXJyYXk6bm9uZTtzdHJva2Utb3BhY2l0eToxIiBkPSJtIDU4NjQsMTA0MDEgaCAzNDYiLz4mI3hhOyAgICAgICAgPGcgdHJhbnNmb3JtPSJyb3RhdGUoMTgwLDI5MjQuMjUsNDY3MS43NSkiIGlkPSJnMjE0Ij4mI3hhOyAgICAgICAgICA8cGF0aCBpZD0icGF0aDIxNiIgc3R5bGU9ImZpbGw6bm9uZTtzdHJva2U6IzAwMDAwMDtzdHJva2Utd2lkdGg6MTI7c3Ryb2tlLWxpbmVjYXA6cm91bmQ7c3Ryb2tlLWxpbmVqb2luOnJvdW5kO3N0cm9rZS1taXRlcmxpbWl0OjEwO3N0cm9rZS1kYXNoYXJyYXk6bm9uZTtzdHJva2Utb3BhY2l0eToxIiBkPSJNIDAsMzcuNSBDIC05LjExMjcsMzcuNSAtMTYuNSwyMC43MTA2OCAtMTYuNSwwIi8+JiN4YTsgICAgICAgIDwvZz4mI3hhOyAgICAgICAgPHBhdGggaWQ9InBhdGgyMTgiIHN0eWxlPSJmaWxsOm5vbmU7c3Ryb2tlOiMwMDAwMDA7c3Ryb2tlLXdpZHRoOjEyO3N0cm9rZS1saW5lY2FwOnJvdW5kO3N0cm9rZS1saW5lam9pbjpyb3VuZDtzdHJva2UtbWl0ZXJsaW1pdDoxMDtzdHJva2UtZGFzaGFycmF5Om5vbmU7c3Ryb2tlLW9wYWNpdHk6MSIgZD0ibSA2OTQ5LDkzNDMgaCAtMTA4NSAtNTcgLTU5IC02MCAtNjEgLTYyIC02MiAtNjIgLTYzIC02MiAtNjIgLTYxIC02MCAtNTkgLTU3IC01NiAtNTQgLTUyIC00OSAtNDcgLTQ1IC00MSAtMzggLTM2IC0zMiAtMjggLTI1IC0yMSAtMTggLTEzIC0xMCAtNiAtMiIvPiYjeGE7ICAgICAgICA8ZyB0cmFuc2Zvcm09InJvdGF0ZSgtOTAsODE0NCwxMTk5LjUpIiBpZD0iZzIyMCI+JiN4YTsgICAgICAgICAgPHBhdGggaWQ9InBhdGgyMjIiIHN0eWxlPSJmaWxsOm5vbmU7c3Ryb2tlOiMwMDAwMDA7c3Ryb2tlLXdpZHRoOjEyO3N0cm9rZS1saW5lY2FwOnJvdW5kO3N0cm9rZS1saW5lam9pbjpyb3VuZDtzdHJva2UtbWl0ZXJsaW1pdDoxMDtzdHJva2UtZGFzaGFycmF5Om5vbmU7c3Ryb2tlLW9wYWNpdHk6MSIgZD0iTSAzNy41LDAgQyAzNy41LDIuNDg1MjggMjAuNzEwNjgsNC41IDAsNC41Ii8+JiN4YTsgICAgICAgIDwvZz4mI3hhOyAgICAgICAgPHBhdGggaWQ9InBhdGgyMjQiIHN0eWxlPSJmaWxsOm5vbmU7c3Ryb2tlOiMwMDAwMDA7c3Ryb2tlLXdpZHRoOjEyO3N0cm9rZS1saW5lY2FwOnJvdW5kO3N0cm9rZS1saW5lam9pbjpyb3VuZDtzdHJva2UtbWl0ZXJsaW1pdDoxMDtzdHJva2UtZGFzaGFycmF5Om5vbmU7c3Ryb2tlLW9wYWNpdHk6MSIgZD0iTSA4NzQ4LDkzNDMgSCA2OTQ5Ii8+JiN4YTsgICAgICAgIDxwYXRoIGlkPSJwYXRoMjI2IiBzdHlsZT0iZmlsbDpub25lO3N0cm9rZTojMDAwMDAwO3N0cm9rZS13aWR0aDoxMjtzdHJva2UtbGluZWNhcDpyb3VuZDtzdHJva2UtbGluZWpvaW46cm91bmQ7c3Ryb2tlLW1pdGVybGltaXQ6MTA7c3Ryb2tlLWRhc2hhcnJheTpub25lO3N0cm9rZS1vcGFjaXR5OjEiIGQ9Ik0gNjk0OSwxMTYxNyBWIDkzNDMiLz4mI3hhOyAgICAgICAgPHBhdGggaWQ9InBhdGgyMjgiIHN0eWxlPSJmaWxsOm5vbmU7c3Ryb2tlOiMwMDAwMDA7c3Ryb2tlLXdpZHRoOjEyO3N0cm9rZS1saW5lY2FwOnJvdW5kO3N0cm9rZS1saW5lam9pbjpyb3VuZDtzdHJva2UtbWl0ZXJsaW1pdDoxMDtzdHJva2UtZGFzaGFycmF5Om5vbmU7c3Ryb2tlLW9wYWNpdHk6MSIgZD0ibSA2OTQ4LjY4MDIsMTE2MTcuMTY5IGMgLTE5LjE0MjEsLTM3LjM0IC0zMS45NDI0LC03Ny42MDQgLTM3Ljg3NjUsLTExOS4xNDMiLz4mI3hhOyAgICAgICAgPHBhdGggaWQ9InBhdGgyMzAiIHN0eWxlPSJmaWxsOm5vbmU7c3Ryb2tlOiMwMDAwMDA7c3Ryb2tlLXdpZHRoOjEyO3N0cm9rZS1saW5lY2FwOnJvdW5kO3N0cm9rZS1saW5lam9pbjpyb3VuZDtzdHJva2UtbWl0ZXJsaW1pdDoxMDtzdHJva2UtZGFzaGFycmF5Om5vbmU7c3Ryb2tlLW9wYWNpdHk6MSIgZD0ibSA2ODA2LDEwNzY0IDEwNSw3MzQiLz4mI3hhOyAgICAgICAgPHBhdGggaWQ9InBhdGgyMzIiIHN0eWxlPSJmaWxsOm5vbmU7c3Ryb2tlOiMwMDAwMDA7c3Ryb2tlLXdpZHRoOjEyO3N0cm9rZS1saW5lY2FwOnJvdW5kO3N0cm9rZS1saW5lam9pbjpyb3VuZDtzdHJva2UtbWl0ZXJsaW1pdDoxMDtzdHJva2UtZGFzaGFycmF5Om5vbmU7c3Ryb2tlLW9wYWNpdHk6MSIgZD0ibSA1ODY0LDkzNDMgdiAxMDU4Ii8+JiN4YTsgICAgICAgIDxwYXRoIGlkPSJwYXRoMjM0IiBzdHlsZT0iZmlsbDpub25lO3N0cm9rZTojMDAwMDAwO3N0cm9rZS13aWR0aDoxMjtzdHJva2UtbGluZWNhcDpyb3VuZDtzdHJva2UtbGluZWpvaW46cm91bmQ7c3Ryb2tlLW1pdGVybGltaXQ6MTA7c3Ryb2tlLWRhc2hhcnJheTpub25lO3N0cm9rZS1vcGFjaXR5OjEiIGQ9Im0gNzA1OSwxMTc0OCAxNjg5LDMzNyIvPiYjeGE7ICAgICAgICA8ZyB0cmFuc2Zvcm09InJvdGF0ZSgtOTAsOTM2NSwyMDc5LjUpIiBpZD0iZzIzNiI+JiN4YTsgICAgICAgICAgPHBhdGggaWQ9InBhdGgyMzgiIHN0eWxlPSJmaWxsOm5vbmU7c3Ryb2tlOiMwMDAwMDA7c3Ryb2tlLXdpZHRoOjEyO3N0cm9rZS1saW5lY2FwOnJvdW5kO3N0cm9rZS1saW5lam9pbjpyb3VuZDtzdHJva2UtbWl0ZXJsaW1pdDoxMDtzdHJva2UtZGFzaGFycmF5Om5vbmU7c3Ryb2tlLW9wYWNpdHk6MSIgZD0ibSAtMzAzLjcxMTE1LC0yMjUuODgwMDQgYyAzNC42MDU3NywtNDYuNTI5ODEgNzkuNDM5ODYsLTg0LjQ4NjIzIDEzMS4wNDIwOCwtMTEwLjkzOTg1Ii8+JiN4YTsgICAgICAgIDwvZz4mI3hhOyAgICAgICAgPHBhdGggaWQ9InBhdGgyNDAiIHN0eWxlPSJmaWxsOm5vbmU7c3Ryb2tlOiMwMDAwMDA7c3Ryb2tlLXdpZHRoOjEyO3N0cm9rZS1saW5lY2FwOnJvdW5kO3N0cm9rZS1saW5lam9pbjpyb3VuZDtzdHJva2UtbWl0ZXJsaW1pdDoxMDtzdHJva2UtZGFzaGFycmF5Om5vbmU7c3Ryb2tlLW9wYWNpdHk6MSIgZD0ibSA0NDQ0LDEwNDAxIGggMiA2IDEwIDEzIDE4IDIxIDI1IDI4IDMyIDM2IDM4IDQxIDQ1IDQ3IDQ5IDUyIDU0IDU2IDU3IDU5IDYwIDYxIDYyIDYyIDYzIDYyIDYyIDYyIDYxIDYwIDU5IDU3Ii8+JiN4YTsgICAgICAgIDxwYXRoIGlkPSJwYXRoMjQyIiBzdHlsZT0iZmlsbDpub25lO3N0cm9rZTojMDAwMDAwO3N0cm9rZS13aWR0aDoxMjtzdHJva2UtbGluZWNhcDpyb3VuZDtzdHJva2UtbGluZWpvaW46cm91bmQ7c3Ryb2tlLW1pdGVybGltaXQ6MTA7c3Ryb2tlLWRhc2hhcnJheTpub25lO3N0cm9rZS1vcGFjaXR5OjEiIGQ9Im0gNzA1OSwxMTc0OCAyLDEgMywyIDIsMSAyLDEgNCwzIDQsMyA1LDMgNCwzIDUsMyA1LDMgNCwyIDUsMyA1LDIgNCwzIDUsMiA0LDIgNSwyIDQsMyA1LDIgNSwyIDUsMiA1LDEgNSwyIDUsMiA1LDIgNSwxIDUsMiA1LDIgNSwxIDUsMSA1LDIgNSwxIDUsMSA1LDEgMTUzNywzMDciLz4mI3hhOyAgICAgICAgPHBhdGggaWQ9InBhdGgyNDQiIHN0eWxlPSJmaWxsOm5vbmU7c3Ryb2tlOiMwMDAwMDA7c3Ryb2tlLXdpZHRoOjEyO3N0cm9rZS1saW5lY2FwOnJvdW5kO3N0cm9rZS1saW5lam9pbjpyb3VuZDtzdHJva2UtbWl0ZXJsaW1pdDoxMDtzdHJva2UtZGFzaGFycmF5Om5vbmU7c3Ryb2tlLW9wYWNpdHk6MSIgZD0ibSA0NDQ1LDkzNDMuNSBjIDAsLTIwLjcxMDkgMTYuNzg5NSwtMzcuNSAzNy41LC0zNy41Ii8+JiN4YTsgICAgICAgIDxnIHRyYW5zZm9ybT0icm90YXRlKDE4MCwyMjQxLjI1LDUyMDAuNzUpIiBpZD0iZzI0NiI+JiN4YTsgICAgICAgICAgPHBhdGggaWQ9InBhdGgyNDgiIHN0eWxlPSJmaWxsOm5vbmU7c3Ryb2tlOiMwMDAwMDA7c3Ryb2tlLXdpZHRoOjEyO3N0cm9rZS1saW5lY2FwOnJvdW5kO3N0cm9rZS1saW5lam9pbjpyb3VuZDtzdHJva2UtbWl0ZXJsaW1pdDoxMDtzdHJva2UtZGFzaGFycmF5Om5vbmU7c3Ryb2tlLW9wYWNpdHk6MSIgZD0ibSAwLC0zNy41IGMgMjAuNzEwNjgsMCAzNy41LDE2Ljc4OTMyIDM3LjUsMzcuNSIvPiYjeGE7ICAgICAgICA8L2c+JiN4YTsgICAgICAgIDxwYXRoIGlkPSJwYXRoMjUwIiBzdHlsZT0iZmlsbDpub25lO3N0cm9rZTojMDAwMDAwO3N0cm9rZS13aWR0aDoxMjtzdHJva2UtbGluZWNhcDpyb3VuZDtzdHJva2UtbGluZWpvaW46cm91bmQ7c3Ryb2tlLW1pdGVybGltaXQ6MTA7c3Ryb2tlLWRhc2hhcnJheTpub25lO3N0cm9rZS1vcGFjaXR5OjEiIGQ9Im0gNDQ0NCw5MzQzIHYgMTA1OCIvPiYjeGE7ICAgICAgPC9nPiYjeGE7ICAgIDwvZz4mI3hhOyAgICA8ZyBpZD0iZzI1MiI+JiN4YTsgICAgICA8ZyBjbGlwLXBhdGg9InVybCgjY2xpcFBhdGgyNTgpIiBpZD0iZzI1NCI+JiN4YTsgICAgICAgIDxwYXRoIGlkPSJwYXRoMjYwIiBzdHlsZT0iZmlsbDpub25lO3N0cm9rZTojMDAwMDAwO3N0cm9rZS13aWR0aDoxMjtzdHJva2UtbGluZWNhcDpyb3VuZDtzdHJva2UtbGluZWpvaW46cm91bmQ7c3Ryb2tlLW1pdGVybGltaXQ6MTA7c3Ryb2tlLWRhc2hhcnJheTpub25lO3N0cm9rZS1vcGFjaXR5OjEiIGQ9Im0gMzAzMCw4MDgwIDEyLC0yIDEwLC0yIDgsLTIgNiwtMSAxLC0xIi8+JiN4YTsgICAgICAgIDxnIHRyYW5zZm9ybT0icm90YXRlKC0xMS4zMTAxNTcsNDIzMzMuODM2LC0xMTA3MS42NzUpIiBpZD0iZzI2MiI+JiN4YTsgICAgICAgICAgPHBhdGggaWQ9InBhdGgyNjQiIHN0eWxlPSJmaWxsOm5vbmU7c3Ryb2tlOiMwMDAwMDA7c3Ryb2tlLXdpZHRoOjEyO3N0cm9rZS1saW5lY2FwOnJvdW5kO3N0cm9rZS1saW5lam9pbjpyb3VuZDtzdHJva2UtbWl0ZXJsaW1pdDoxMDtzdHJva2UtZGFzaGFycmF5Om5vbmU7c3Ryb2tlLW9wYWNpdHk6MSIgZD0ibSA3NS41LDAgYyAwLDQuOTcyMDQgLTAuNDkxMTUsOS45MzE5MiAtMS40NjYyOSwxNC44MDc0Ii8+JiN4YTsgICAgICAgIDwvZz4mI3hhOyAgICAgICAgPHBhdGggaWQ9InBhdGgyNjYiIHN0eWxlPSJmaWxsOm5vbmU7c3Ryb2tlOiMwMDAwMDA7c3Ryb2tlLXdpZHRoOjEyO3N0cm9rZS1saW5lY2FwOnJvdW5kO3N0cm9rZS1saW5lam9pbjpyb3VuZDtzdHJva2UtbWl0ZXJsaW1pdDoxMDtzdHJva2UtZGFzaGFycmF5Om5vbmU7c3Ryb2tlLW9wYWNpdHk6MSIgZD0ibSAzMDMxLDgwODcgaCAxMiAxMCA5IDUgMiIvPiYjeGE7ICAgICAgICA8ZyB0cmFuc2Zvcm09InJvdGF0ZSgtOTAsNTU0MC41LDI1NDcpIiBpZD0iZzI2OCI+JiN4YTsgICAgICAgICAgPHBhdGggaWQ9InBhdGgyNzAiIHN0eWxlPSJmaWxsOm5vbmU7c3Ryb2tlOiMwMDAwMDA7c3Ryb2tlLXdpZHRoOjEyO3N0cm9rZS1saW5lY2FwOnJvdW5kO3N0cm9rZS1saW5lam9pbjpyb3VuZDtzdHJva2UtbWl0ZXJsaW1pdDoxMDtzdHJva2UtZGFzaGFycmF5Om5vbmU7c3Ryb2tlLW9wYWNpdHk6MSIgZD0iTSA3LjM1NDY3LDM2Ljc3MTcxIEMgNC45MzMwOCwzNy4yNTYwNSAyLjQ2OTU2LDM3LjUgMCwzNy41Ii8+JiN4YTsgICAgICAgIDwvZz4mI3hhOyAgICAgICAgPGcgdHJhbnNmb3JtPSJyb3RhdGUoOTAsLTI1NDcsNTU0MC41KSIgaWQ9ImcyNzIiPiYjeGE7ICAgICAgICAgIDxwYXRoIGlkPSJwYXRoMjc0IiBzdHlsZT0iZmlsbDpub25lO3N0cm9rZTojMDAwMDAwO3N0cm9rZS13aWR0aDoxMjtzdHJva2UtbGluZWNhcDpyb3VuZDtzdHJva2UtbGluZWpvaW46cm91bmQ7c3Ryb2tlLW1pdGVybGltaXQ6MTA7c3Ryb2tlLWRhc2hhcnJheTpub25lO3N0cm9rZS1vcGFjaXR5OjEiIGQ9Im0gMCwtNzUuNSBjIDQxLjY5NzUsMCA3NS41LDMzLjgwMjUgNzUuNSw3NS41Ii8+JiN4YTsgICAgICAgIDwvZz4mI3hhOyAgICAgICAgPGcgdHJhbnNmb3JtPSJyb3RhdGUoOTAsLTI1NDcsNTU0MC41KSIgaWQ9ImcyNzYiPiYjeGE7ICAgICAgICAgIDxwYXRoIGlkPSJwYXRoMjc4IiBzdHlsZT0iZmlsbDpub25lO3N0cm9rZTojMDAwMDAwO3N0cm9rZS13aWR0aDoxMjtzdHJva2UtbGluZWNhcDpyb3VuZDtzdHJva2UtbGluZWpvaW46cm91bmQ7c3Ryb2tlLW1pdGVybGltaXQ6MTA7c3Ryb2tlLWRhc2hhcnJheTpub25lO3N0cm9rZS1vcGFjaXR5OjEiIGQ9Im0gMCwtMzcuNSBjIDQxLjY5NzUsMCA3NS41LDE2Ljc4OTMyIDc1LjUsMzcuNSIvPiYjeGE7ICAgICAgICA8L2c+JiN4YTsgICAgICAgIDxwYXRoIGlkPSJwYXRoMjgwIiBzdHlsZT0iZmlsbDpub25lO3N0cm9rZTojMDAwMDAwO3N0cm9rZS13aWR0aDoxMjtzdHJva2UtbGluZWNhcDpyb3VuZDtzdHJva2UtbGluZWpvaW46cm91bmQ7c3Ryb2tlLW1pdGVybGltaXQ6MTA7c3Ryb2tlLWRhc2hhcnJheTpub25lO3N0cm9rZS1vcGFjaXR5OjEiIGQ9Im0gMTU5MSw4MDcyIDEsMSA2LDEgOCwyIDEwLDIgMTIsMiIvPiYjeGE7ICAgICAgICA8ZyB0cmFuc2Zvcm09InJvdGF0ZSgtOTAsNDg3Ni41LDMyMTEpIiBpZD0iZzI4MiI+JiN4YTsgICAgICAgICAgPHBhdGggaWQ9InBhdGgyODQiIHN0eWxlPSJmaWxsOm5vbmU7c3Ryb2tlOiMwMDAwMDA7c3Ryb2tlLXdpZHRoOjEyO3N0cm9rZS1saW5lY2FwOnJvdW5kO3N0cm9rZS1saW5lam9pbjpyb3VuZDtzdHJva2UtbWl0ZXJsaW1pdDoxMDtzdHJva2UtZGFzaGFycmF5Om5vbmU7c3Ryb2tlLW9wYWNpdHk6MSIgZD0ibSAwLC0zNy41IGMgMi40Njk1NiwwIDQuOTMzMDgsMC4yNDM5NSA3LjM1NDY3LDAuNzI4MjkiLz4mI3hhOyAgICAgICAgPC9nPiYjeGE7ICAgICAgICA8cGF0aCBpZD0icGF0aDI4NiIgc3R5bGU9ImZpbGw6bm9uZTtzdHJva2U6IzAwMDAwMDtzdHJva2Utd2lkdGg6MTI7c3Ryb2tlLWxpbmVjYXA6cm91bmQ7c3Ryb2tlLWxpbmVqb2luOnJvdW5kO3N0cm9rZS1taXRlcmxpbWl0OjEwO3N0cm9rZS1kYXNoYXJyYXk6bm9uZTtzdHJva2Utb3BhY2l0eToxIiBkPSJtIDE1ODksODA4NyBoIDIgNSA5IDEwIDEyIi8+JiN4YTsgICAgICAgIDxnIHRyYW5zZm9ybT0icm90YXRlKDE4MCw4MzIuNzUsNDA0My43NSkiIGlkPSJnMjg4Ij4mI3hhOyAgICAgICAgICA8cGF0aCBpZD0icGF0aDI5MCIgc3R5bGU9ImZpbGw6bm9uZTtzdHJva2U6IzAwMDAwMDtzdHJva2Utd2lkdGg6MTI7c3Ryb2tlLWxpbmVjYXA6cm91bmQ7c3Ryb2tlLWxpbmVqb2luOnJvdW5kO3N0cm9rZS1taXRlcmxpbWl0OjEwO3N0cm9rZS1kYXNoYXJyYXk6bm9uZTtzdHJva2Utb3BhY2l0eToxIiBkPSJtIDc1LjUsMCBjIDAsNC45NzIwNCAtMC40OTExNSw5LjkzMTkyIC0xLjQ2NjI5LDE0LjgwNzQiLz4mI3hhOyAgICAgICAgPC9nPiYjeGE7ICAgICAgICA8ZyB0cmFuc2Zvcm09InJvdGF0ZSgtOTAsNDg3Ni41LDMyMTEpIiBpZD0iZzI5MiI+JiN4YTsgICAgICAgICAgPHBhdGggaWQ9InBhdGgyOTQiIHN0eWxlPSJmaWxsOm5vbmU7c3Ryb2tlOiMwMDAwMDA7c3Ryb2tlLXdpZHRoOjEyO3N0cm9rZS1saW5lY2FwOnJvdW5kO3N0cm9rZS1saW5lam9pbjpyb3VuZDtzdHJva2UtbWl0ZXJsaW1pdDoxMDtzdHJva2UtZGFzaGFycmF5Om5vbmU7c3Ryb2tlLW9wYWNpdHk6MSIgZD0ibSAtNzUuNSwwIGMgMCwtMjAuNzEwNjggMzMuODAyNSwtMzcuNSA3NS41LC0zNy41Ii8+JiN4YTsgICAgICAgIDwvZz4mI3hhOyAgICAgICAgPGcgdHJhbnNmb3JtPSJyb3RhdGUoLTkwLDQ4NzYuNSwzMjExKSIgaWQ9ImcyOTYiPiYjeGE7ICAgICAgICAgIDxwYXRoIGlkPSJwYXRoMjk4IiBzdHlsZT0iZmlsbDpub25lO3N0cm9rZTojMDAwMDAwO3N0cm9rZS13aWR0aDoxMjtzdHJva2UtbGluZWNhcDpyb3VuZDtzdHJva2UtbGluZWpvaW46cm91bmQ7c3Ryb2tlLW1pdGVybGltaXQ6MTA7c3Ryb2tlLWRhc2hhcnJheTpub25lO3N0cm9rZS1vcGFjaXR5OjEiIGQ9Im0gLTc1LjUsMCBjIDAsLTQxLjY5NzUgMzMuODAyNSwtNzUuNSA3NS41LC03NS41Ii8+JiN4YTsgICAgICAgIDwvZz4mI3hhOyAgICAgICAgPHBhdGggaWQ9InBhdGgzMDAiIHN0eWxlPSJmaWxsOm5vbmU7c3Ryb2tlOiMwMDAwMDA7c3Ryb2tlLXdpZHRoOjEyO3N0cm9rZS1saW5lY2FwOnJvdW5kO3N0cm9rZS1saW5lam9pbjpyb3VuZDtzdHJva2UtbWl0ZXJsaW1pdDoxMDtzdHJva2UtZGFzaGFycmF5Om5vbmU7c3Ryb2tlLW9wYWNpdHk6MSIgZD0iTSAyOTkzLDgxNjMgSCAxNjY1Ii8+JiN4YTsgICAgICAgIDxwYXRoIGlkPSJwYXRoMzAyIiBzdHlsZT0iZmlsbDpub25lO3N0cm9rZTojMDAwMDAwO3N0cm9rZS13aWR0aDoxMjtzdHJva2UtbGluZWNhcDpyb3VuZDtzdHJva2UtbGluZWpvaW46cm91bmQ7c3Ryb2tlLW1pdGVybGltaXQ6MTA7c3Ryb2tlLWRhc2hhcnJheTpub25lO3N0cm9rZS1vcGFjaXR5OjEiIGQ9Ik0gMTYyNyw4MDg3IEggMzAzMSIvPiYjeGE7ICAgICAgICA8cGF0aCBpZD0icGF0aDMwNCIgc3R5bGU9ImZpbGw6bm9uZTtzdHJva2U6IzAwMDAwMDtzdHJva2Utd2lkdGg6MTI7c3Ryb2tlLWxpbmVjYXA6cm91bmQ7c3Ryb2tlLWxpbmVqb2luOnJvdW5kO3N0cm9rZS1taXRlcmxpbWl0OjEwO3N0cm9rZS1kYXNoYXJyYXk6bm9uZTtzdHJva2Utb3BhY2l0eToxIiBkPSJtIDI3MDcsNjI3MyAzNjAsMTc5OSIvPiYjeGE7ICAgICAgICA8cGF0aCBpZD0icGF0aDMwNiIgc3R5bGU9ImZpbGw6bm9uZTtzdHJva2U6IzAwMDAwMDtzdHJva2Utd2lkdGg6MTI7c3Ryb2tlLWxpbmVjYXA6cm91bmQ7c3Ryb2tlLWxpbmVqb2luOnJvdW5kO3N0cm9rZS1taXRlcmxpbWl0OjEwO3N0cm9rZS1kYXNoYXJyYXk6bm9uZTtzdHJva2Utb3BhY2l0eToxIiBkPSJNIDMwMzAsODA4MCAyNjY4LDYyNjgiLz4mI3hhOyAgICAgICAgPHBhdGggaWQ9InBhdGgzMDgiIHN0eWxlPSJmaWxsOm5vbmU7c3Ryb2tlOiMwMDAwMDA7c3Ryb2tlLXdpZHRoOjEyO3N0cm9rZS1saW5lY2FwOnJvdW5kO3N0cm9rZS1saW5lam9pbjpyb3VuZDtzdHJva2UtbWl0ZXJsaW1pdDoxMDtzdHJva2UtZGFzaGFycmF5Om5vbmU7c3Ryb2tlLW9wYWNpdHk6MSIgZD0ibSAyNjY4LDYyNjggNywxIGggNiBsIDYsMSA2LDEgNSwxIGggNCAzIGwgMiwxIi8+JiN4YTsgICAgICAgIDxnIHRyYW5zZm9ybT0icm90YXRlKC05MCwzNTQ1LDEyMTUuNSkiIGlkPSJnMzEwIj4mI3hhOyAgICAgICAgICA8cGF0aCBpZD0icGF0aDMxMiIgc3R5bGU9ImZpbGw6bm9uZTtzdHJva2U6IzAwMDAwMDtzdHJva2Utd2lkdGg6MTI7c3Ryb2tlLWxpbmVjYXA6cm91bmQ7c3Ryb2tlLWxpbmVqb2luOnJvdW5kO3N0cm9rZS1taXRlcmxpbWl0OjEwO3N0cm9rZS1kYXNoYXJyYXk6bm9uZTtzdHJva2Utb3BhY2l0eToxIiBkPSJNIDcyOC41LDAgQyA3MjguNSw0MDEuNzg3MTcgNDAyLjMzOTQ1LDcyNy41IDAsNzI3LjUgLTQwMi4zMzk0NSw3MjcuNSAtNzI4LjUsNDAxLjc4NzE3IC03MjguNSwwIGMgMCwtNDAxLjc4NzE3IDMyNi4xNjA1NSwtNzI3LjUgNzI4LjUsLTcyNy41IDQwMi4zMzk0NSwwIDcyOC41LDMyNS43MTI4MyA3MjguNSw3MjcuNSIvPiYjeGE7ICAgICAgICA8L2c+JiN4YTsgICAgICAgIDxwYXRoIGlkPSJwYXRoMzE0IiBzdHlsZT0iZmlsbDpub25lO3N0cm9rZTojMDAwMDAwO3N0cm9rZS13aWR0aDoxMjtzdHJva2UtbGluZWNhcDpyb3VuZDtzdHJva2UtbGluZWpvaW46cm91bmQ7c3Ryb2tlLW1pdGVybGltaXQ6MTA7c3Ryb2tlLWRhc2hhcnJheTpub25lO3N0cm9rZS1vcGFjaXR5OjEiIGQ9Im0gMTQ2Nyw1MTcyIDUyMywxMDk2IC0zNjIsMTgxMiIvPiYjeGE7ICAgICAgICA8ZyB0cmFuc2Zvcm09InJvdGF0ZSgtOTAsMzU0NSwxMjE1LjUpIiBpZD0iZzMxNiI+JiN4YTsgICAgICAgICAgPHBhdGggaWQ9InBhdGgzMTgiIHN0eWxlPSJmaWxsOm5vbmU7c3Ryb2tlOiMwMDAwMDA7c3Ryb2tlLXdpZHRoOjEyO3N0cm9rZS1saW5lY2FwOnJvdW5kO3N0cm9rZS1saW5lam9pbjpyb3VuZDtzdHJva2UtbWl0ZXJsaW1pdDoxMDtzdHJva2UtZGFzaGFycmF5Om5vbmU7c3Ryb2tlLW9wYWNpdHk6MSIgZD0ibSAtNDExLjQyNTAyLC04NjEuNDgzNTIgYyA0MDEuNTYyODIsLTE5MS4zNzYwOCA4ODIuMjExNDYsLTgwLjU1Mzc3IDExNTkuMTkwNjUsMjY3LjI3MjU4IDI3Ni45NzkxNywzNDcuODI2MzkgMjc2Ljk3OTE3LDg0MC41OTU0OSAwLDExODguNDIxODggQyA0NzAuNzg2NDQsOTQyLjAzNzI5IC05Ljg2MjIsMTA1Mi44NTk2IC00MTEuNDI1MDIsODYxLjQ4MzUyIi8+JiN4YTsgICAgICAgIDwvZz4mI3hhOyAgICAgICAgPHBhdGggaWQ9InBhdGgzMjAiIHN0eWxlPSJmaWxsOm5vbmU7c3Ryb2tlOiMwMDAwMDA7c3Ryb2tlLXdpZHRoOjEyO3N0cm9rZS1saW5lY2FwOnJvdW5kO3N0cm9rZS1saW5lam9pbjpyb3VuZDtzdHJva2UtbWl0ZXJsaW1pdDoxMDtzdHJva2UtZGFzaGFycmF5Om5vbmU7c3Ryb2tlLW9wYWNpdHk6MSIgZD0iTSAyNjY4LDYyNjggMzE5MSw1MTcyIi8+JiN4YTsgICAgICAgIDxnIHRyYW5zZm9ybT0icm90YXRlKC05MCwzNTQ1LDEyMTUuNSkiIGlkPSJnMzIyIj4mI3hhOyAgICAgICAgICA8cGF0aCBpZD0icGF0aDMyNCIgc3R5bGU9ImZpbGw6bm9uZTtzdHJva2U6IzAwMDAwMDtzdHJva2Utd2lkdGg6MTI7c3Ryb2tlLWxpbmVjYXA6cm91bmQ7c3Ryb2tlLWxpbmVqb2luOnJvdW5kO3N0cm9rZS1taXRlcmxpbWl0OjEwO3N0cm9rZS1kYXNoYXJyYXk6bm9uZTtzdHJva2Utb3BhY2l0eToxIiBkPSJtIC02NTIuNSwwIGMgMCwtMzYwLjM2NTgxIDI5Mi4xMzQxOSwtNjUyLjUgNjUyLjUsLTY1Mi41IDM2MC4zNjU4MSwwIDY1Mi41LDI5Mi4xMzQxOSA2NTIuNSw2NTIuNSBDIDY1Mi41LDM2MC4zNjU4MSAzNjAuMzY1ODEsNjUyLjUgMCw2NTIuNSAtMzYwLjM2NTgxLDY1Mi41IC02NTIuNSwzNjAuMzY1ODEgLTY1Mi41LDAiLz4mI3hhOyAgICAgICAgPC9nPiYjeGE7ICAgICAgICA8cGF0aCBpZD0icGF0aDMyNiIgc3R5bGU9ImZpbGw6bm9uZTtzdHJva2U6IzAwMDAwMDtzdHJva2Utd2lkdGg6MTI7c3Ryb2tlLWxpbmVjYXA6cm91bmQ7c3Ryb2tlLWxpbmVqb2luOnJvdW5kO3N0cm9rZS1taXRlcmxpbWl0OjEwO3N0cm9rZS1kYXNoYXJyYXk6bm9uZTtzdHJva2Utb3BhY2l0eToxIiBkPSJtIDMyMjUsNTE4OCAtMiwtMSAtNCwtMiAtOCwtNCAtMTAsLTQgLTEwLC01Ii8+JiN4YTsgICAgICAgIDxwYXRoIGlkPSJwYXRoMzI4IiBzdHlsZT0iZmlsbDpub25lO3N0cm9rZTojMDAwMDAwO3N0cm9rZS13aWR0aDoxMjtzdHJva2UtbGluZWNhcDpyb3VuZDtzdHJva2UtbGluZWpvaW46cm91bmQ7c3Ryb2tlLW1pdGVybGltaXQ6MTA7c3Ryb2tlLWRhc2hhcnJheTpub25lO3N0cm9rZS1vcGFjaXR5OjEiIGQ9Im0gMTQ2Nyw1MTcyIC0xMCw1IC0xMCw0IC04LDQgLTQsMiAtMiwxIi8+JiN4YTsgICAgICAgIDxnIHRyYW5zZm9ybT0ibWF0cml4KC0wLjkwMjU1LDAuNDMwNTksLTAuNDMwNTksLTAuOTAyNTUsMjMyOS41LDQ3NjAuNSkiIGlkPSJnMzMwIj4mI3hhOyAgICAgICAgICA8cGF0aCBpZD0icGF0aDMzMiIgc3R5bGU9ImZpbGw6bm9uZTtzdHJva2U6IzAwMDAwMDtzdHJva2Utd2lkdGg6MTI7c3Ryb2tlLWxpbmVjYXA6cm91bmQ7c3Ryb2tlLWxpbmVqb2luOnJvdW5kO3N0cm9rZS1taXRlcmxpbWl0OjEwO3N0cm9rZS1kYXNoYXJyYXk6bm9uZTtzdHJva2Utb3BhY2l0eToxIiBkPSJNIDk5Mi41LDAgQyA5OTIuNSw0NjIuMTYxMTMgNjczLjUwNDUyLDg2My4xNTc0NyAyMjMuMTc5NDQsOTY3LjA4MTc5IC0yMjcuMTQ1NjEsMTA3MS4wMDYxIC02ODkuNjAzNTgsODUwLjM1MDU5IC04OTIuMTI5MDksNDM0LjkyNzUyIC0xMDk0LjY1NDcsMTkuNTA0NDUgLTk4My42NDEyNCwtNDgwLjcyNzcyIC02MjQuMzk4MzIsLTc3MS40ODEwMiIvPiYjeGE7ICAgICAgICA8L2c+JiN4YTsgICAgICAgIDxwYXRoIGlkPSJwYXRoMzM0IiBzdHlsZT0iZmlsbDpub25lO3N0cm9rZTojMDAwMDAwO3N0cm9rZS13aWR0aDoxMjtzdHJva2UtbGluZWNhcDpyb3VuZDtzdHJva2UtbGluZWpvaW46cm91bmQ7c3Ryb2tlLW1pdGVybGltaXQ6MTA7c3Ryb2tlLWRhc2hhcnJheTpub25lO3N0cm9rZS1vcGFjaXR5OjEiIGQ9Im0gMTk5MCw2MjY4IC03LDEgLTgsMSBoIC03IGwgLTYsMSAtNSwxIGggLTMgbCAtMiwxIGggLTEgTCAxNDMzLDUxODgiLz4mI3hhOyAgICAgICAgPHBhdGggaWQ9InBhdGgzMzYiIHN0eWxlPSJmaWxsOm5vbmU7c3Ryb2tlOiMwMDAwMDA7c3Ryb2tlLXdpZHRoOjEyO3N0cm9rZS1saW5lY2FwOnJvdW5kO3N0cm9rZS1saW5lam9pbjpyb3VuZDtzdHJva2UtbWl0ZXJsaW1pdDoxMDtzdHJva2UtZGFzaGFycmF5Om5vbmU7c3Ryb2tlLW9wYWNpdHk6MSIgZD0iTSAxNTkxLDgwNzIgMTk1MSw2MjczIi8+JiN4YTsgICAgICAgIDxwYXRoIGlkPSJwYXRoMzM4IiBzdHlsZT0iZmlsbDpub25lO3N0cm9rZTojMDAwMDAwO3N0cm9rZS13aWR0aDoxMjtzdHJva2UtbGluZWNhcDpyb3VuZDtzdHJva2UtbGluZWpvaW46cm91bmQ7c3Ryb2tlLW1pdGVybGltaXQ6MTA7c3Ryb2tlLWRhc2hhcnJheTpub25lO3N0cm9rZS1vcGFjaXR5OjEiIGQ9Ik0gMzIyNSw1MTg4IDI3MDcsNjI3MyIvPiYjeGE7ICAgICAgPC9nPiYjeGE7ICAgIDwvZz4mI3hhOyAgICA8ZyBpZD0iZzM0MCI+JiN4YTsgICAgICA8ZyBjbGlwLXBhdGg9InVybCgjY2xpcFBhdGgzNDYpIiBpZD0iZzM0MiI+JiN4YTsgICAgICAgIDxwYXRoIGlkPSJwYXRoMzQ4IiBzdHlsZT0iZmlsbDpub25lO3N0cm9rZTojMDAwMDAwO3N0cm9rZS13aWR0aDoxMjtzdHJva2UtbGluZWNhcDpyb3VuZDtzdHJva2UtbGluZWpvaW46cm91bmQ7c3Ryb2tlLW1pdGVybGltaXQ6MTA7c3Ryb2tlLWRhc2hhcnJheTpub25lO3N0cm9rZS1vcGFjaXR5OjEiIGQ9Im0gODgwNyw0NjI5LjUgYyAwLDQxLjY5NzMgLTMzLjgwMjcsNzUuNSAtNzUuNSw3NS41Ii8+JiN4YTsgICAgICAgIDxwYXRoIGlkPSJwYXRoMzUwIiBzdHlsZT0iZmlsbDpub25lO3N0cm9rZTojMDAwMDAwO3N0cm9rZS13aWR0aDoxMjtzdHJva2UtbGluZWNhcDpyb3VuZDtzdHJva2UtbGluZWpvaW46cm91bmQ7c3Ryb2tlLW1pdGVybGltaXQ6MTA7c3Ryb2tlLWRhc2hhcnJheTpub25lO3N0cm9rZS1vcGFjaXR5OjEiIGQ9Im0gODczMSw0NzA0IGggLTU0OCB2IDEwOCAyIDIgMiAyIGwgLTEsMiB2IDMgMiBsIC0xLDIgdiAyIGwgLTEsMiB2IDIgbCAtMSwyIC0xLDIgLTEsMiB2IDIgbCAtMSwyIC0xLDIgLTEsMiAtMSwxIC0yLDIgLTEsMiAtMSwyIC0xLDEgLTEsMiAtMiwyIC0xLDEgLTIsMiAtMSwxIC0yLDIgLTEsMSAtMiwyIC0xLDEgLTIsMSAtMiwyIC0yLDEgLTEsMSAtMiwxIC0yLDEgLTIsMSAtMiwxIC0yLDEgLTIsMSAtMiwxIGggLTIgbCAtMiwxIC0yLDEgaCAtMiBsIC0yLDEgaCAtMiAtMiBsIC0yLDEgaCAtMiAtMiAtMiAtMyBsIC0yLDEgLTIsLTEgaCAtMiAtMiAtMiAtMiBsIC0yLC0xIGggLTIgLTMgbCAtMjMsLTYgLTI0LC01IC0yNCwtNiAtMjMsLTUgLTI0LC01IC0yNCwtNSAtMjQsLTYgLTI0LC01IC0yNCwtNSAtMjQsLTUgLTI0LC01IC0yNCwtNCAtMjQsLTUgLTI0LC01IC0yNCwtNSAtMjUsLTQgLTI0LC01IC0yNCwtNCAtMjQsLTUgLTI0LC00IC0yNCwtNCAtMjUsLTQgLTI0LC00IC0yNCwtNCAtMjQsLTQgLTI0LC00IC0yNCwtNCAtMjUsLTMgLTI0LC00IC0yNCwtNCAtMjQsLTMgLTI0LC0zIC0yNCwtMyAtMjQsLTQgLTI0LC0zIC0yNCwtMiAtMjMsLTMgLTI1LC0zIC0yNCwtMyAtMjQsLTIgLTI0LC0zIC0yNSwtMiAtMjQsLTIgLTI0LC0yIC0yNSwtMiAtMjQsLTIgLTEzLC0xIC0xMiwtMSAtMTIsLTEgLTEzLC0xIGggLTEyIGwgLTEyLC0xIC0xMywtMSBoIC0xMiBsIC0xMiwtMSAtMTMsLTEgaCAtMTIgbCAtMTIsLTEgaCAtMTMgbCAtMTIsLTEgaCAtMTIgbCAtMTMsLTEgaCAtMTIgLTEzIGwgLTEyLC0xIGggLTEyIC0xMyAtMTIgLTEyIC0xMyBsIC0xMiwtMSBoIC0xMiAtMTMgbCAtMTIsMSBoIC0xMiAtMTMgLTEyIC0xMiBsIC0xMywxIGggLTEyIC0xMiBsIC0xMiwxIHYgLTExIGggLTQ4MiB2IC0xNjAiLz4mI3hhOyAgICAgICAgPGcgdHJhbnNmb3JtPSJyb3RhdGUoMTgwLDMwNjYuMjUsMjI2Mi43NSkiIGlkPSJnMzUyIj4mI3hhOyAgICAgICAgICA8cGF0aCBpZD0icGF0aDM1NCIgc3R5bGU9ImZpbGw6bm9uZTtzdHJva2U6IzAwMDAwMDtzdHJva2Utd2lkdGg6MTI7c3Ryb2tlLWxpbmVjYXA6cm91bmQ7c3Ryb2tlLWxpbmVqb2luOnJvdW5kO3N0cm9rZS1taXRlcmxpbWl0OjEwO3N0cm9rZS1kYXNoYXJyYXk6bm9uZTtzdHJva2Utb3BhY2l0eToxIiBkPSJNIDc1LjUsMCBDIDc1LjUsNDEuNjk3NSA0MS42OTc1LDc1LjUgMCw3NS41Ii8+JiN4YTsgICAgICAgIDwvZz4mI3hhOyAgICAgICAgPHBhdGggaWQ9InBhdGgzNTYiIHN0eWxlPSJmaWxsOm5vbmU7c3Ryb2tlOiMwMDAwMDA7c3Ryb2tlLXdpZHRoOjEyO3N0cm9rZS1saW5lY2FwOnJvdW5kO3N0cm9rZS1saW5lam9pbjpyb3VuZDtzdHJva2UtbWl0ZXJsaW1pdDoxMDtzdHJva2UtZGFzaGFycmF5Om5vbmU7c3Ryb2tlLW9wYWNpdHk6MSIgZD0iTSA2MTMyLDQ0NDkgSCA4NzMxIi8+JiN4YTsgICAgICAgIDxwYXRoIGlkPSJwYXRoMzU4IiBzdHlsZT0iZmlsbDpub25lO3N0cm9rZTojMDAwMDAwO3N0cm9rZS13aWR0aDoxMjtzdHJva2UtbGluZWNhcDpyb3VuZDtzdHJva2UtbGluZWpvaW46cm91bmQ7c3Ryb2tlLW1pdGVybGltaXQ6MTA7c3Ryb2tlLWRhc2hhcnJheTpub25lO3N0cm9rZS1vcGFjaXR5OjEiIGQ9Im0gODczMS41LDQ0NTAgYyA0MS42OTczLDAgNzUuNSwzMy44MDI3IDc1LjUsNzUuNSIvPiYjeGE7ICAgICAgICA8cGF0aCBpZD0icGF0aDM2MCIgc3R5bGU9ImZpbGw6bm9uZTtzdHJva2U6IzAwMDAwMDtzdHJva2Utd2lkdGg6MTI7c3Ryb2tlLWxpbmVjYXA6cm91bmQ7c3Ryb2tlLWxpbmVqb2luOnJvdW5kO3N0cm9rZS1taXRlcmxpbWl0OjEwO3N0cm9rZS1kYXNoYXJyYXk6bm9uZTtzdHJva2Utb3BhY2l0eToxIiBkPSJtIDg4MDcsNDUyNSB2IDEwNCIvPiYjeGE7ICAgICAgICA8cGF0aCBpZD0icGF0aDM2MiIgc3R5bGU9ImZpbGw6bm9uZTtzdHJva2U6IzAwMDAwMDtzdHJva2Utd2lkdGg6MTI7c3Ryb2tlLWxpbmVjYXA6cm91bmQ7c3Ryb2tlLWxpbmVqb2luOnJvdW5kO3N0cm9rZS1taXRlcmxpbWl0OjEwO3N0cm9rZS1kYXNoYXJyYXk6bm9uZTtzdHJva2Utb3BhY2l0eToxIiBkPSJtIDg3MzEuNSw3MDMwIGMgNDEuNjk3MywwIDc1LjUsMzMuODAyNyA3NS41LDc1LjUiLz4mI3hhOyAgICAgICAgPHBhdGggaWQ9InBhdGgzNjQiIHN0eWxlPSJmaWxsOm5vbmU7c3Ryb2tlOiMwMDAwMDA7c3Ryb2tlLXdpZHRoOjEyO3N0cm9rZS1saW5lY2FwOnJvdW5kO3N0cm9rZS1saW5lam9pbjpyb3VuZDtzdHJva2UtbWl0ZXJsaW1pdDoxMDtzdHJva2UtZGFzaGFycmF5Om5vbmU7c3Ryb2tlLW9wYWNpdHk6MSIgZD0ibSA4ODA3LDcxMDUgdiA4NyIvPiYjeGE7ICAgICAgICA8cGF0aCBpZD0icGF0aDM2NiIgc3R5bGU9ImZpbGw6bm9uZTtzdHJva2U6IzAwMDAwMDtzdHJva2Utd2lkdGg6MTI7c3Ryb2tlLWxpbmVjYXA6cm91bmQ7c3Ryb2tlLWxpbmVqb2luOnJvdW5kO3N0cm9rZS1taXRlcmxpbWl0OjEwO3N0cm9rZS1kYXNoYXJyYXk6bm9uZTtzdHJva2Utb3BhY2l0eToxIiBkPSJtIDg4MDcsNzE5Mi41IGMgMCwyMi42MTk2IC0xMC4xNDE2LDQ0LjA0NzQgLTI3LjYzMzgsNTguMzg3NyAtMTcuNDkzMSwxNC4zNDAzIC00MC40OTMxLDIwLjA4MiAtNjIuNjczOCwxNS42NDYiLz4mI3hhOyAgICAgICAgPHBhdGggaWQ9InBhdGgzNjgiIHN0eWxlPSJmaWxsOm5vbmU7c3Ryb2tlOiMwMDAwMDA7c3Ryb2tlLXdpZHRoOjEyO3N0cm9rZS1saW5lY2FwOnJvdW5kO3N0cm9rZS1saW5lam9pbjpyb3VuZDtzdHJva2UtbWl0ZXJsaW1pdDoxMDtzdHJva2UtZGFzaGFycmF5Om5vbmU7c3Ryb2tlLW9wYWNpdHk6MSIgZD0iTSA4NzE2LDcyNjYgNzE3OSw2OTU5Ii8+JiN4YTsgICAgICAgIDxnIHRyYW5zZm9ybT0icm90YXRlKC0xNjguNjg5ODQsMzk1Mi45NTE0LDI5MzUuMTIzNikiIGlkPSJnMzcwIj4mI3hhOyAgICAgICAgICA8cGF0aCBpZD0icGF0aDM3MiIgc3R5bGU9ImZpbGw6bm9uZTtzdHJva2U6IzAwMDAwMDtzdHJva2Utd2lkdGg6MTI7c3Ryb2tlLWxpbmVjYXA6cm91bmQ7c3Ryb2tlLWxpbmVqb2luOnJvdW5kO3N0cm9rZS1taXRlcmxpbWl0OjEwO3N0cm9rZS1kYXNoYXJyYXk6bm9uZTtzdHJva2Utb3BhY2l0eToxIiBkPSJtIDAsLTM3OC41IGMgMTYwLjQ3NjgxLDAgMzAzLjUxMDYyLDEwMS4xOTgwNiAzNTYuOTIxMjMsMjUyLjUyNTg5Ii8+JiN4YTsgICAgICAgIDwvZz4mI3hhOyAgICAgICAgPHBhdGggaWQ9InBhdGgzNzQiIHN0eWxlPSJmaWxsOm5vbmU7c3Ryb2tlOiMwMDAwMDA7c3Ryb2tlLXdpZHRoOjEyO3N0cm9rZS1saW5lY2FwOnJvdW5kO3N0cm9rZS1saW5lam9pbjpyb3VuZDtzdHJva2UtbWl0ZXJsaW1pdDoxMDtzdHJva2UtZGFzaGFycmF5Om5vbmU7c3Ryb2tlLW9wYWNpdHk6MSIgZD0iTSA2ODc5LDY2NDIgNjc3NCw1OTA4Ii8+JiN4YTsgICAgICAgIDxnIHRyYW5zZm9ybT0icm90YXRlKC04LjEzMDAyMTMsNDUxNDIuOTA2LC00MjA1MC43MjcpIiBpZD0iZzM3NiI+JiN4YTsgICAgICAgICAgPHBhdGggaWQ9InBhdGgzNzgiIHN0eWxlPSJmaWxsOm5vbmU7c3Ryb2tlOiMwMDAwMDA7c3Ryb2tlLXdpZHRoOjEyO3N0cm9rZS1saW5lY2FwOnJvdW5kO3N0cm9rZS1saW5lam9pbjpyb3VuZDtzdHJva2UtbWl0ZXJsaW1pdDoxMDtzdHJva2UtZGFzaGFycmF5Om5vbmU7c3Ryb2tlLW9wYWNpdHk6MSIgZD0iTSA1My41MjY1NSwtMzc0LjY5NjA4IEMgMjM5Ljk5NDc1LC0zNDguMDU4NSAzNzguNSwtMTg4LjM2MTIyIDM3OC41LDAiLz4mI3hhOyAgICAgICAgPC9nPiYjeGE7ICAgICAgICA8cGF0aCBpZD0icGF0aDM4MCIgc3R5bGU9ImZpbGw6bm9uZTtzdHJva2U6IzAwMDAwMDtzdHJva2Utd2lkdGg6MTI7c3Ryb2tlLWxpbmVjYXA6cm91bmQ7c3Ryb2tlLWxpbmVqb2luOnJvdW5kO3N0cm9rZS1taXRlcmxpbWl0OjEwO3N0cm9rZS1kYXNoYXJyYXk6bm9uZTtzdHJva2Utb3BhY2l0eToxIiBkPSJNIDY0MDAsNTU4MyBIIDYxMzIiLz4mI3hhOyAgICAgICAgPGcgdHJhbnNmb3JtPSJyb3RhdGUoMTgwLDMwNjYuMjUsMjc1NC4yNSkiIGlkPSJnMzgyIj4mI3hhOyAgICAgICAgICA8cGF0aCBpZD0icGF0aDM4NCIgc3R5bGU9ImZpbGw6bm9uZTtzdHJva2U6IzAwMDAwMDtzdHJva2Utd2lkdGg6MTI7c3Ryb2tlLWxpbmVjYXA6cm91bmQ7c3Ryb2tlLWxpbmVqb2luOnJvdW5kO3N0cm9rZS1taXRlcmxpbWl0OjEwO3N0cm9rZS1kYXNoYXJyYXk6bm9uZTtzdHJva2Utb3BhY2l0eToxIiBkPSJtIDAsLTc1LjUgYyAzMC43NjYyOCwwIDU4LjQ1NTIyLDE4LjY2ODY2IDY5Ljk5MTQ3LDQ3LjE5MDIxIi8+JiN4YTsgICAgICAgIDwvZz4mI3hhOyAgICAgICAgPHBhdGggaWQ9InBhdGgzODYiIHN0eWxlPSJmaWxsOm5vbmU7c3Ryb2tlOiMwMDAwMDA7c3Ryb2tlLXdpZHRoOjEyO3N0cm9rZS1saW5lY2FwOnJvdW5kO3N0cm9rZS1saW5lam9pbjpyb3VuZDtzdHJva2UtbWl0ZXJsaW1pdDoxMDtzdHJva2UtZGFzaGFycmF5Om5vbmU7c3Ryb2tlLW9wYWNpdHk6MSIgZD0ibSA2MDYyLDU1MzYgaCA0NzcgdiAtNDAgbCAxNCw4IDE0LDcgMTQsOCAxNCw4IDE0LDggMTUsOCAxNCw4IDE0LDggMTQsOSAxNCw4IDE0LDkgMTQsOSAxNSw4IDE0LDkgMTQsOSAxNCw5IDE0LDkgMTQsOSAxNCw5IDE0LDkgMTQsMTAgMTQsOSAxNCwxMCAxNCw5IDE0LDEwIDEzLDkgMTQsMTAgMTQsOSAxNCwxMCAxNCwxMCAxMywxMCAxNCwxMCAxMywxMCAxNCw5IDEzLDEwIDE0LDEwIDEzLDEwIDE0LDExIDEzLDEwIDEzLDEwIDE0LDEwIDEzLDEwIDEzLDEwIDEzLDEwIDEzLDEwIDEzLDEwIDEzLDExIDEyLDEwIDEzLDEwIDEzLDEwIDEzLDEwIDEyLDEwIDEzLDEwIDEyLDExIDEyLDEwIDEzLDEwIDEyLDEwIDEyLDEwIDEzLDExIDEyLDEwIDEyLDEwIDEzLDExIDEyLDEwIDEyLDExIDEzLDEwIDEyLDExIDEyLDEwIDEzLDExIDI0LDIxIDI1LDIyIDI1LDIxIDI0LDIyIDI1LDIyIDI0LDIyIDI1LDIyIDI0LDIyIDI0LDIyIDI1LDIzIDI0LDIyIDI0LDIyIDI0LDIzIDI0LDIzIDI0LDIyIDI0LDIzIDI0LDIzIDI0LDIzIDIzLDIyIDI0LDIzIDIzLDIzIDI0LDIzIDIzLDIzIDIzLDIzIDI0LDIzIDIzLDIzIDIyLDIzIDIzLDIzIDIzLDIzIDIyLDIzIDIsMSAxLDIgMSwxIDEsMSAxLDIgMiwxIDEsMiAxLDEgMSwyIDEsMSAxLDIgdiAyIGwgMSwxIDEsMiAxLDIgMSwxIHYgMiBsIDEsMiB2IDEgbCAxLDIgdiAyIGwgMSwyIHYgMiBsIDEsMSB2IDIgMiBsIDEsMiB2IDIgMSAyIDIgMiAxNTMgaCA1NDgiLz4mI3hhOyAgICAgICAgPHBhdGggaWQ9InBhdGgzODgiIHN0eWxlPSJmaWxsOm5vbmU7c3Ryb2tlOiMwMDAwMDA7c3Ryb2tlLXdpZHRoOjEyO3N0cm9rZS1saW5lY2FwOnJvdW5kO3N0cm9rZS1saW5lam9pbjpyb3VuZDtzdHJva2UtbWl0ZXJsaW1pdDoxMDtzdHJva2UtZGFzaGFycmF5Om5vbmU7c3Ryb2tlLW9wYWNpdHk6MSIgZD0ibSA4NzMxLjUsNTY3OCBjIDQxLjY5NzMsMCA3NS41LDMzLjgwMjcgNzUuNSw3NS41Ii8+JiN4YTsgICAgICAgIDxwYXRoIGlkPSJwYXRoMzkwIiBzdHlsZT0iZmlsbDpub25lO3N0cm9rZTojMDAwMDAwO3N0cm9rZS13aWR0aDoxMjtzdHJva2UtbGluZWNhcDpyb3VuZDtzdHJva2UtbGluZWpvaW46cm91bmQ7c3Ryb2tlLW1pdGVybGltaXQ6MTA7c3Ryb2tlLWRhc2hhcnJheTpub25lO3N0cm9rZS1vcGFjaXR5OjEiIGQ9Im0gODgwNyw1NzUzIHYgMjI3Ii8+JiN4YTsgICAgICAgIDxwYXRoIGlkPSJwYXRoMzkyIiBzdHlsZT0iZmlsbDpub25lO3N0cm9rZTojMDAwMDAwO3N0cm9rZS13aWR0aDoxMjtzdHJva2UtbGluZWNhcDpyb3VuZDtzdHJva2UtbGluZWpvaW46cm91bmQ7c3Ryb2tlLW1pdGVybGltaXQ6MTA7c3Ryb2tlLWRhc2hhcnJheTpub25lO3N0cm9rZS1vcGFjaXR5OjEiIGQ9Im0gODgwNyw1OTgwLjUgYyAwLDQxLjY5NzMgLTMzLjgwMjcsNzUuNSAtNzUuNSw3NS41Ii8+JiN4YTsgICAgICAgIDxwYXRoIGlkPSJwYXRoMzk0IiBzdHlsZT0iZmlsbDpub25lO3N0cm9rZTojMDAwMDAwO3N0cm9rZS13aWR0aDoxMjtzdHJva2UtbGluZWNhcDpyb3VuZDtzdHJva2UtbGluZWpvaW46cm91bmQ7c3Ryb2tlLW1pdGVybGltaXQ6MTA7c3Ryb2tlLWRhc2hhcnJheTpub25lO3N0cm9rZS1vcGFjaXR5OjEiIGQ9Im0gODczMSw2MDU2IGggLTU0OCB2IDQ1IDIgMSAxIDIgMSAyIDEgbCAtMSwxIHYgMiAxIDEgbCAtMSwyIHYgMSAxIGwgLTEsMiB2IDEgMSBsIC0xLDIgdiAxIGwgLTEsMSB2IDIgbCAtMSwxIHYgMSBsIC0xLDEgLTEsMiB2IDEgbCAtMSwxIHYgMSBsIC0xLDEgLTEsMiAtMSwxIHYgMSBsIC0xLDEgLTEsMSAtMSwxIHYgMSBsIC0xLDEgLTEsMSAtMSwyIC0xLDEgLTEsMSAtMSwxIC0xLDEgLTEsMSAtMSwxIGggLTEgbCAtMSwxIC0xLDEgLTEsMSAtMSwxIC0xLDEgLTEsMSBoIC0xIGwgLTEsMSAtMiwxIC0xLDEgaCAtMSBsIC0xLDEgLTEsMSBoIC0yIGwgLTEsMSAtMSwxIGggLTEgbCAtMSwxIGggLTIgbCAtMSwxIGggLTEgbCAtMiwxIGggLTEgbCAtMSwxIGggLTIgLTEgbCAtMSwxIGggLTIgLTEgbCAtMSwxIGggLTIgLTEgLTEgLTIgbCAtMSwxIGggLTEgLTIgLTEgLTEgLTIgLTEgLTIgLTEgLTEgLTIgLTEgbCAtMSwtMSBoIC0yIC0xIC0yIC0xIGwgLTEsLTEgaCAtMiAtMSBsIC0xLC0xIGggLTIgLTEgbCAtMSwtMSBoIC0xIGwgLTIsLTEgaCAtMSBsIC0xLC0xIGggLTIgbCAtMSwtMSBoIC0xIGwgLTEsLTEgLTIsLTEgaCAtMSBsIC0xLC0xIC0xLC0xIGggLTEgbCAtMSwtMSAtMiwtMSAtMSwtMSBoIC0xIGwgLTEsLTEgLTEsLTEgLTEsLTEgLTEsLTEgLTEsLTEgLTEsLTEgLTEsLTEgLTgsLTcgLTcsLTcgLTgsLTcgLTgsLTcgLTcsLTcgLTgsLTcgLTgsLTggLTcsLTcgLTgsLTcgLTgsLTcgLTgsLTcgLTgsLTggLTgsLTcgLTgsLTcgLTgsLTggLTgsLTcgLTgsLTcgLTgsLTggLTgsLTcgLTgsLTcgLTgsLTggLTgsLTcgLTgsLTcgLTgsLTggLTksLTcgLTgsLTggLTgsLTcgLTksLTcgLTgsLTggLTgsLTcgLTksLTggLTgsLTcgLTksLTggLTgsLTcgLTksLTggLTgsLTcgLTE3LC0xNSAtMTcsLTE1IC0xOCwtMTUgLTE3LC0xNSAtMTcsLTE1IC0xOCwtMTUgLTE4LC0xNSAtMTcsLTE1IC0xOCwtMTUgLTE4LC0xNSAtMTgsLTE0IC0xOCwtMTUgLTE4LC0xNSAtMTgsLTE1IC0xOCwtMTQgLTE4LC0xNSAtMTksLTE1IC0xOCwtMTQgLTE4LC0xNSAtMTksLTE0IC0xOCwtMTUgLTE5LC0xNCAtMTksLTE0IC0xOCwtMTUgLTE5LC0xNCAtMTksLTE0IC0xOSwtMTQgLTksLTcgLTksLTcgLTEwLC03IC05LC02IC0xMCwtNyAtOSwtNyAtMTAsLTcgLTksLTcgLTEwLC02IC05LC03IC0xMCwtNyAtOSwtNyAtMTAsLTYgLTksLTcgLTEwLC02IC05LC03IC0xMCwtNyAtOSwtNiAtMTAsLTcgLTksLTYgLTEwLC02IC0xMCwtNyAtOSwtNiAtMTAsLTYgLTksLTcgLTEwLC02IC05LC02IC0xMCwtNiAtMTAsLTcgLTksLTYgLTEwLC02IC05LC02IC0xMCwtNiAtMTAsLTYgLTksLTYgLTEwLC02IC05LC02IC0xMCwtNSAxOSwxIDIwLDIgMTksMSAyMCwyIDE5LDEgMjAsMiAxOSwyIDE5LDIgMjAsMiAxOSwyIDE5LDIgMTksMyAyMCwyIDE5LDIgMTksMyAxOSwyIDE5LDMgMTgsMiAxOSwzIDE5LDIgMTksMyAxOCwzIDE5LDMgMTksMyAxOCwzIDE5LDMgMTksMyAxOSwzIDE5LDMgMTgsMyAxOSw0IDE5LDMgMTksMyAxOSw0IDE5LDMgMTksNCAxOSwzIDE5LDQgMTgsNCAxOSwzIDE5LDQgMTksNCAxOSw0IDE5LDQgMTksNCAxOSw0IDE4LDQgMTksNCAxOSw0IDE5LDQgMTksNCAxOCw0IDE5LDQgMTksNSAxOSw0IDE4LDQgMTksNSAxOSw0IDE4LDUgMTksNCAxOCw1IDE5LDQgMTgsNSAxOSw0IDEsMSBoIDIgMSBsIDIsMSBoIDEgbCAyLDEgMSwxIGggMiBsIDEsMSBoIDIgbCAxLDEgMSwxIDIsMSBoIDEgbCAxLDEgMiwxIDEsMSAxLDEgMiwxIDEsMSAxLDEgMSwxIDEsMSAyLDEgMSwxIDEsMSAxLDEgMSwxIDEsMSAxLDIgMSwxIDEsMSAxLDEgMSwxIDEsMiAxLDEgMSwxIHYgMiBsIDEsMSAxLDEgMSwyIHYgMSBsIDEsMiAxLDEgdiAyIGwgMSwxIHYgMSBsIDEsMiAxLDEgdiAyIDEgbCAxLDIgdiAxIGwgMSwyIHYgMiAxIDIgbCAxLDEgdiAyIDEgMiAxIDIgMiAxNDQgaCA1NDgiLz4mI3hhOyAgICAgICAgPGcgdHJhbnNmb3JtPSJyb3RhdGUoMTgwLDIyMjUuMjUsMjc3Mi43NSkiIGlkPSJnMzk2Ij4mI3hhOyAgICAgICAgICA8cGF0aCBpZD0icGF0aDM5OCIgc3R5bGU9ImZpbGw6bm9uZTtzdHJva2U6IzAwMDAwMDtzdHJva2Utd2lkdGg6MTI7c3Ryb2tlLWxpbmVjYXA6cm91bmQ7c3Ryb2tlLWxpbmVqb2luOnJvdW5kO3N0cm9rZS1taXRlcmxpbWl0OjEwO3N0cm9rZS1kYXNoYXJyYXk6bm9uZTtzdHJva2Utb3BhY2l0eToxIiBkPSJtIDAsLTM3LjUgYyAyMC43MTA2OCwwIDM3LjUsMTYuNzg5MzIgMzcuNSwzNy41Ii8+JiN4YTsgICAgICAgIDwvZz4mI3hhOyAgICAgICAgPHBhdGggaWQ9InBhdGg0MDAiIHN0eWxlPSJmaWxsOm5vbmU7c3Ryb2tlOiMwMDAwMDA7c3Ryb2tlLXdpZHRoOjEyO3N0cm9rZS1saW5lY2FwOnJvdW5kO3N0cm9rZS1saW5lam9pbjpyb3VuZDtzdHJva2UtbWl0ZXJsaW1pdDoxMDtzdHJva2UtZGFzaGFycmF5Om5vbmU7c3Ryb2tlLW9wYWNpdHk6MSIgZD0iTSA0NDEyLDQ0ODcgViA1NTQ1Ii8+JiN4YTsgICAgICAgIDxnIHRyYW5zZm9ybT0icm90YXRlKDE4MCwyMjI1LjI1LDIyNDMuNzUpIiBpZD0iZzQwMiI+JiN4YTsgICAgICAgICAgPHBhdGggaWQ9InBhdGg0MDQiIHN0eWxlPSJmaWxsOm5vbmU7c3Ryb2tlOiMwMDAwMDA7c3Ryb2tlLXdpZHRoOjEyO3N0cm9rZS1saW5lY2FwOnJvdW5kO3N0cm9rZS1saW5lam9pbjpyb3VuZDtzdHJva2UtbWl0ZXJsaW1pdDoxMDtzdHJva2UtZGFzaGFycmF5Om5vbmU7c3Ryb2tlLW9wYWNpdHk6MSIgZD0iTSAzNy41LDAgQyAzNy41LDIwLjcxMDY4IDIwLjcxMDY4LDM3LjUgMCwzNy41Ii8+JiN4YTsgICAgICAgIDwvZz4mI3hhOyAgICAgICAgPHBhdGggaWQ9InBhdGg0MDYiIHN0eWxlPSJmaWxsOm5vbmU7c3Ryb2tlOiMwMDAwMDA7c3Ryb2tlLXdpZHRoOjEyO3N0cm9rZS1saW5lY2FwOnJvdW5kO3N0cm9rZS1saW5lam9pbjpyb3VuZDtzdHJva2UtbWl0ZXJsaW1pdDoxMDtzdHJva2UtZGFzaGFycmF5Om5vbmU7c3Ryb2tlLW9wYWNpdHk6MSIgZD0ibSA0NDUwLDQ0NDkgaCAyMjciLz4mI3hhOyAgICAgICAgPHBhdGggaWQ9InBhdGg0MDgiIHN0eWxlPSJmaWxsOm5vbmU7c3Ryb2tlOiMwMDAwMDA7c3Ryb2tlLXdpZHRoOjEyO3N0cm9rZS1saW5lY2FwOnJvdW5kO3N0cm9rZS1saW5lam9pbjpyb3VuZDtzdHJva2UtbWl0ZXJsaW1pdDoxMDtzdHJva2UtZGFzaGFycmF5Om5vbmU7c3Ryb2tlLW9wYWNpdHk6MSIgZD0ibSA0Njc3LjUsNDQ1MCBjIDQxLjY5NzMsMCA3NS41LDMzLjgwMjcgNzUuNSw3NS41Ii8+JiN4YTsgICAgICAgIDxwYXRoIGlkPSJwYXRoNDEwIiBzdHlsZT0iZmlsbDpub25lO3N0cm9rZTojMDAwMDAwO3N0cm9rZS13aWR0aDoxMjtzdHJva2UtbGluZWNhcDpyb3VuZDtzdHJva2UtbGluZWpvaW46cm91bmQ7c3Ryb2tlLW1pdGVybGltaXQ6MTA7c3Ryb2tlLWRhc2hhcnJheTpub25lO3N0cm9rZS1vcGFjaXR5OjEiIGQ9Im0gNDc1Miw0NTI1IHYgOTgzIi8+JiN4YTsgICAgICAgIDxwYXRoIGlkPSJwYXRoNDEyIiBzdHlsZT0iZmlsbDpub25lO3N0cm9rZTojMDAwMDAwO3N0cm9rZS13aWR0aDoxMjtzdHJva2UtbGluZWNhcDpyb3VuZDtzdHJva2UtbGluZWpvaW46cm91bmQ7c3Ryb2tlLW1pdGVybGltaXQ6MTA7c3Ryb2tlLWRhc2hhcnJheTpub25lO3N0cm9rZS1vcGFjaXR5OjEiIGQ9Im0gNDc1Myw1NTA4LjUgYyAwLDQxLjY5NzMgLTMzLjgwMjcsNzUuNSAtNzUuNSw3NS41Ii8+JiN4YTsgICAgICAgIDxwYXRoIGlkPSJwYXRoNDE0IiBzdHlsZT0iZmlsbDpub25lO3N0cm9rZTojMDAwMDAwO3N0cm9rZS13aWR0aDoxMjtzdHJva2UtbGluZWNhcDpyb3VuZDtzdHJva2UtbGluZWpvaW46cm91bmQ7c3Ryb2tlLW1pdGVybGltaXQ6MTA7c3Ryb2tlLWRhc2hhcnJheTpub25lO3N0cm9rZS1vcGFjaXR5OjEiIGQ9Ik0gNDY3Nyw1NTgzIEggNDQ1MCIvPiYjeGE7ICAgICAgICA8cGF0aCBpZD0icGF0aDQxNiIgc3R5bGU9ImZpbGw6bm9uZTtzdHJva2U6IzAwMDAwMDtzdHJva2Utd2lkdGg6MTI7c3Ryb2tlLWxpbmVjYXA6cm91bmQ7c3Ryb2tlLWxpbmVqb2luOnJvdW5kO3N0cm9rZS1taXRlcmxpbWl0OjEwO3N0cm9rZS1kYXNoYXJyYXk6bm9uZTtzdHJva2Utb3BhY2l0eToxIiBkPSJtIDgxMjYsNTQ2MCB2IC0xIC0xIC0xIGwgLTEsLTEgdiAtMSAtMSAtMSAtMSAtMSAtMSAtMSAtMSAtMSAtMSAtMSAtMSAtMSBsIC0xLC0xIHYgLTIgLTEgLTEgLTIgLTEgLTEgLTIgLTEgLTIgbCAtMSwtMiB2IC0xIC0yIC0yIC0yIC0xIC0yIC0yIC0yIGwgLTEsLTIgdiAtMiAtMiAtMiAtMiAtMiAtMyBsIC0xLC0yIHYgLTIgLTIgLTMgLTIgLTIgLTMgbCAtMSwtMiB2IC0zIC0yIC0zIC0yIC0zIGwgLTEsLTIgdiAtMyAtMyAtMiAtMyAtMyBsIC0xLC0zIHYgLTIgLTMgLTMgLTMgbCAtMSwtMyB2IC0zIC0zIC0zIC0zIGwgLTEsLTMgdiAtMyAtMyAtMyAtMyBsIC0xLC0zIHYgLTMgLTMgLTMgLTQgbCAtMSwtMyB2IC0zIC0zIC0zIC00IGwgLTEsLTMgdiAtMyAtNCAtMyAtMyBsIC0xLC00IHYgLTMgLTMgLTQgbCAtMSwtMyB2IC0zIC00IC0zIC00IGwgLTEsLTMgdiAtNCAtMyAtNCBsIC0xLC0zIHYgLTMgLTQgLTMgLTQgbCAtMSwtMyB2IC00IC0zIC00IGwgLTEsLTMgdiAtNCAtMyAtNCAtMyBsIC0xLC00IHYgLTMgLTQgLTMgbCAtMSwtNCB2IC0zIC00IC0zIC00IGwgLTEsLTMgdiAtNCAtMyAtMyAtNCBsIC0xLC0zIHYgLTQgLTMgLTQgbCAtMSwtMyB2IC0zIC00IC0zIC0zIGwgLTEsLTQgdiAtMyAtMyAtNCAtMyBsIC0xLC0zIHYgLTMgLTQgLTMgLTMgLTMgbCAtMSwtNCB2IC0zIC0zIC0zIC0zIGwgLTEsLTMgdiAtMyAtMyAtMyAtMyAtMyBsIC0xLC0zIHYgLTMgLTMgLTMgLTIgLTMgbCAtMSwtMyB2IC0zIC0zIC0yIC0zIC0zIGwgLTEsLTIgdiAtMyAtMiAtMyAtMiAtMyAtMiBsIC0xLC0zIHYgLTIgLTIgLTMgLTIgLTIgLTMgLTIgbCAtMSwtMiB2IC0yIC0yIC0yIC0yIC0yIC0yIC0yIC0yIC0yIGwgLTEsLTIgdiAtMSAtMiAtMiAtMiAtMSAtMiAtMSAtMiAtMSAtMiBsIC0xLC0xIHYgLTIgLTEgLTEgLTEgLTIgLTEgLTEgLTEgLTEgLTEgLTEgLTEgLTEgLTEgLTEgLTEgLTEgLTEgbCAtMSwtMSB2IC0xIDAiLz4mI3hhOyAgICAgICAgPHBhdGggaWQ9InBhdGg0MTgiIHN0eWxlPSJmaWxsOm5vbmU7c3Ryb2tlOiMwMDAwMDA7c3Ryb2tlLXdpZHRoOjEyO3N0cm9rZS1saW5lY2FwOnJvdW5kO3N0cm9rZS1saW5lam9pbjpyb3VuZDtzdHJva2UtbWl0ZXJsaW1pdDoxMDtzdHJva2UtZGFzaGFycmF5Om5vbmU7c3Ryb2tlLW9wYWNpdHk6MSIgZD0ibSA2OTE2LDUyNTMgLTEsLTEgaCAtMSAtMSB2IC0xIGggLTEgLTEgLTEgdiAtMSBoIC0xIC0xIC0xIHYgLTEgaCAtMSAtMSAtMSBsIC0xLC0xIC0yLC0xIGggLTIgbCAtMSwtMSBoIC0yIGwgLTIsLTEgaCAtMSBsIC0yLC0xIC0yLC0xIGggLTIgbCAtMiwtMSAtMiwtMSBoIC0yIGwgLTIsLTEgLTIsLTEgaCAtMiBsIC0yLC0xIC0yLC0xIC0yLC0xIGggLTMgbCAtMiwtMSAtMiwtMSAtMiwtMSBoIC0zIGwgLTIsLTEgLTIsLTEgLTMsLTEgaCAtMiBsIC0yLC0xIC0zLC0xIC0yLC0xIC0zLC0xIGggLTIgbCAtMywtMSAtMiwtMSAtMywtMSAtMiwtMSAtMywtMSBoIC0zIGwgLTIsLTEgLTMsLTEgLTMsLTEgLTMsLTEgLTMsLTEgLTMsLTEgLTMsLTEgLTIsLTEgLTMsLTEgLTMsLTEgaCAtNCBsIC0zLC0xIC0zLC0xIC0zLC0xIC0zLC0xIC0zLC0xIC00LC0xIC0zLC0xIC0zLC0xIC0zLC0xIC00LC0xIC0zLC0xIC00LC0xIC0zLC0xIC00LC0xIC0zLC0xIC00LC0xIC0zLC0xIC00LC0yIC00LC0xIC0zLC0xIC00LC0xIC00LC0xIC0zLC0xIC00LC0xIC00LC0xIC00LC0xIC0zLC0xIC00LC0xIC00LC0xIC00LC0xIC00LC0xIC00LC0xIC00LC0xIC00LC0xIC00LC0xIC00LC0yIC00LC0xIC00LC0xIC00LC0xIC00LC0xIC00LC0xIC00LC0xIC00LC0xIC01LC0xIC00LC0xIC00LC0xIC00LC0xIC01LC0xIC00LC0xIC00LC0xIC01LC0xIC00LC0xIC00LC0xIC01LC0xIC00LC0xIC00LC0xIC01LC0xIC00LC0xIC01LC0xIC00LC0xIC01LC0xIC00LC0xIC01LC0xIC00LC0xIHYgLTIgLTIgLTIgLTIgLTIgLTIgLTIgLTEgLTIgLTIgLTIgLTIgLTIgLTIgLTIgLTMgLTIgLTIgLTIgLTIgLTIgLTIgLTIgLTIgLTMgLTIgLTIgLTIgLTIgLTIgLTMgLTIgLTIgLTIgLTMgLTIgLTIgLTIgLTMgLTIgLTIgLTIgLTMgLTIgLTIgLTMgLTIgLTIgLTMgLTIgLTIgLTMgLTIgLTIgLTMgLTIgLTIgLTMgLTIgLTMgLTIgLTIgLTMgLTIgLTMgLTIgLTIgLTMgLTIgLTMgLTIgLTMgLTIgLTIgLTMgLTIgLTMgLTIgLTMgLTIgLTIgLTMgLTIgLTMgLTIgLTIgLTMgLTIgLTMgLTIgLTIgLTMgLTIgLTMgLTIgLTIgLTMgLTIgLTMgLTIgLTIgLTMgLTIgLTIgLTMgLTIgLTIgLTMgLTIgLTIgLTMgLTIgLTIgLTMgLTIgLTIgLTIgLTMgLTIgLTIgLTIgLTMgLTIgLTIgLTIgLTMgLTIgLTIgLTIgLTIgLTIgLTMgLTIgLTIgLTIgLTIgLTIgLTIgLTIgLTIgLTIgLTIgLTIgLTIgLTIgLTIgLTIgLTIgLTIgLTIgLTIgLTIgLTIgLTIgLTIgLTIgLTEgLTIgLTIgLTIgLTIgLTIgLTEgLTIgLTIgLTIgLTEgLTIgLTIgLTEgLTIgLTIgLTEgLTIgLTEgLTIgLTEgLTIgLTEgLTIgLTEgLTIgLTEgLTIgLTEgLTIgLTEgLTEgLTIgLTEgLTEgLTIgLTEgLTEgLTIgLTEgLTEgLTEgLTEgLTIgLTEgLTEgLTEgLTEgLTEgLTEgLTEgLTEgLTEgLTEgLTEgLTEgLTEgLTEgLTEgLTEgLTEgLTEgLTEgLTEgLTEgLTEgLTEgLTEgLTEgLTEgLTEgLTEgLTEgLTEgLTEgLTEgLTEgLTEgMCIvPiYjeGE7ICAgICAgICA8cGF0aCBpZD0icGF0aDQyMCIgc3R5bGU9ImZpbGw6bm9uZTtzdHJva2U6IzAwMDAwMDtzdHJva2Utd2lkdGg6MTI7c3Ryb2tlLWxpbmVjYXA6cm91bmQ7c3Ryb2tlLWxpbmVqb2luOnJvdW5kO3N0cm9rZS1taXRlcmxpbWl0OjEwO3N0cm9rZS1kYXNoYXJyYXk6bm9uZTtzdHJva2Utb3BhY2l0eToxIiBkPSJtIDYwNTcsNDUyNSBoIC0yIC02IC0xMCAtMTQgLTE4IC0yMSAtMjUgLTI5IC0zMiAtMzQgLTM4IC00MCAtNDMgLTQ0IC00NyAtNDggLTQ5IC01MSAtNTAgLTUyIC01MSAtNTEgLTUwIC00OSAtNDggLTQ3IC00NCAtNDMgLTQwIC0zOCAtMzQgLTMyIC0yOSAtMjUgLTIxIC0xOCAtMTQgLTEwIC02IC0yIi8+JiN4YTsgICAgICAgIDxwYXRoIGlkPSJwYXRoNDIyIiBzdHlsZT0iZmlsbDpub25lO3N0cm9rZTojMDAwMDAwO3N0cm9rZS13aWR0aDoxMjtzdHJva2UtbGluZWNhcDpyb3VuZDtzdHJva2UtbGluZWpvaW46cm91bmQ7c3Ryb2tlLW1pdGVybGltaXQ6MTA7c3Ryb2tlLWRhc2hhcnJheTpub25lO3N0cm9rZS1vcGFjaXR5OjEiIGQ9Im0gNjA1Nyw0Njg1IHYgMSBoIC0xIHYgMSBoIC0xIHYgMSBsIC0xLDEgLTEsMSB2IDEgbCAtMSwxIHYgMSBsIC0xLDEgLTEsMSB2IDEgbCAtMSwxIC0xLDIgLTEsMSAtMSwxIC0xLDIgLTEsMSAtMSwyIC0xLDIgLTEsMSAtMSwyIC0xLDIgLTEsMiAtMSwxIC0xLDEgdiAxIGwgLTEsMSAtMSwyIC0yLDIgLTEsMyAtMSwyIC0yLDIgLTEsMyAtMiwyIC0xLDMgLTIsMiAtMSwzIC0yLDIgLTIsMyAtMSwzIC0yLDMgLTEsMyAtMiwzIC0yLDIgLTIsMyAtMSw0IC0yLDMgLTIsMyAtMiwzIC0xLDMgLTIsMyAtMiwzIC0yLDQgLTEsMyAtMiwzIC0yLDQgLTIsMyAtMiw0IC0xLDMgLTIsNCAtMiwzIC0yLDQgLTIsMyAtMiw0IC0xLDQgLTIsNCAtMiw0IC0yLDMgLTIsNCAtMiw0IC0yLDQgLTIsNSAtMSw0IC0yLDQgLTIsNCAtMiw0IC0yLDUgLTIsNCAtMSw1IC0yLDQgLTIsNCAtMiw1IC0xLDUgLTIsNCAtMiw1IC0yLDQgLTEsNSAtMiw1IC0xLDUgLTIsNCAtMiw1IC0xLDUgLTIsNSAtMSw1IC0xLDUgLTIsNSAtMSw1IC0xLDUgLTIsNSAtMSw1IC0xLDUgLTEsNSAtMSw1IC0xLDYgLTEsMiB2IDMgbCAtMSwyIHYgMyBsIC0xLDIgdiAzIDMgbCAtMSwyIHYgMyBsIC0xLDIgdiAzIDMgbCAtMSwyIHYgMyAzIGwgLTEsMiB2IDMgMiBsIC0xLDMgdiAzIDIgMyBsIC0xLDIgdiAzIDMgMiAzIDMgbCAtMSwyIHYgMyAyIDMgMyAyIDMgMiAzIDMgNCA0IDQgNCA0IDQgbCAxLDQgdiA0IDQgbCAxLDQgdiA0IDQgbCAxLDQgdiA0IGwgMSw0IHYgNCBsIDEsNCB2IDQgbCAxLDQgMSw0IHYgNCBsIDEsNCAxLDQgdiA0IGwgMSw0IDEsNCAxLDQgMSw0IHYgNCBsIDEsNCAxLDQgMSw0IDEsNCAxLDQgMSwzIDEsNCAxLDQgMSw0IDIsNCAxLDMgMSw0IDEsNCAxLDQgMSwzIDIsNCAxLDQgMSwzIDEsNCAyLDQgMSwzIDEsNCAyLDMgMSw0IDEsMyAyLDQgMSwzIDIsNCAxLDMgMSwzIDIsNCAxLDMgMiwzIDEsNCAxLDMgMiwzIDEsMyAyLDQgMSwzIDIsMyAxLDMgMSwzIDIsMyAxLDMgMiwzIDEsMyAyLDMgMSwzIDIsMyAxLDIgMSwzIDIsMyAxLDMgMiwyIDEsMyAxLDMgMiwyIDEsMyAxLDIgMiwzIDEsMyAyLDIgMSwzIDEsMiAyLDMgMSwyIDEsMyAyLDIgMSwyIDIsMyAxLDIgMSwyIDIsMyAxLDIgMSwyIDEsMyAyLDIgMSwyIDEsMiAyLDIgMSwyIDEsMiAxLDIgMSwyIDIsMiAxLDIgMSwyIDEsMiAxLDIgMSwyIDEsMiAxLDEgMiwyIDEsMiAxLDEgMSwyIDEsMiAxLDEgdiAyIi8+JiN4YTsgICAgICAgIDxwYXRoIGlkPSJwYXRoNDI0IiBzdHlsZT0iZmlsbDpub25lO3N0cm9rZTojMDAwMDAwO3N0cm9rZS13aWR0aDoxMjtzdHJva2UtbGluZWNhcDpyb3VuZDtzdHJva2UtbGluZWpvaW46cm91bmQ7c3Ryb2tlLW1pdGVybGltaXQ6MTA7c3Ryb2tlLWRhc2hhcnJheTpub25lO3N0cm9rZS1vcGFjaXR5OjEiIGQ9Im0gNDc1Miw1NTA4IGggMiA2IDEwIDE0IDE4IDIxIDI1IDI5IDMyIDM0IDM4IDQwIDQzIDQ0IDQ3IDQ4IDQ5IDUwIDUxIDUxIDUxIDUxIDUwIDUwIDQ4IDQ2IDQ1IDQyIDQxIDM3IDM1IDMyIDI4IDI1IDIyIDE4IDEzIi8+JiN4YTsgICAgICAgIDxwYXRoIGlkPSJwYXRoNDI2IiBzdHlsZT0iZmlsbDpub25lO3N0cm9rZTojMDAwMDAwO3N0cm9rZS13aWR0aDoxMjtzdHJva2UtbGluZWNhcDpyb3VuZDtzdHJva2UtbGluZWpvaW46cm91bmQ7c3Ryb2tlLW1pdGVybGltaXQ6MTA7c3Ryb2tlLWRhc2hhcnJheTpub25lO3N0cm9rZS1vcGFjaXR5OjEiIGQ9Im0gNDY3Nyw0NDQ5IGggMiA2IDEwIDE0IDE4IDIyIDI1IDI5IDMyIDM2IDM4IDQyIDQ0IDQ2IDQ4IDUwIDUxIDUzIDUzIDU0IDU0IDU1IDU0IDUzIDUzIDUxIDUwIDQ4IDQ2IDQ0IDQxIDM5IDM1IDMzIDI5IDI1IDIyIDE4IDE0IDEwIDYgMiIvPiYjeGE7ICAgICAgICA8cGF0aCBpZD0icGF0aDQyOCIgc3R5bGU9ImZpbGw6bm9uZTtzdHJva2U6IzAwMDAwMDtzdHJva2Utd2lkdGg6MTI7c3Ryb2tlLWxpbmVjYXA6cm91bmQ7c3Ryb2tlLWxpbmVqb2luOnJvdW5kO3N0cm9rZS1taXRlcmxpbWl0OjEwO3N0cm9rZS1kYXNoYXJyYXk6bm9uZTtzdHJva2Utb3BhY2l0eToxIiBkPSJtIDgxNjEsNjgyMyB2IC0xIC0xIC0xIC0xIC0xIC0xIC0xIC0xIC0xIC0xIC0xIGwgLTEsLTEgdiAtMSAtMSAtMSAtMiAtMSAtMiAtMSBsIC0xLC0yIHYgLTEgLTIgLTEgLTIgbCAtMSwtMiB2IC0yIC0yIC0yIC0xIGwgLTEsLTIgdiAtMyAtMiAtMiAtMiBsIC0xLC0yIHYgLTMgLTIgLTIgbCAtMSwtMyB2IC0yIC0zIGwgLTEsLTIgdiAtMyAtMiBsIC0xLC0zIHYgLTMgLTIgbCAtMSwtMyB2IC0zIC0zIGwgLTEsLTMgdiAtMiBsIC0xLC0zIHYgLTMgLTMgbCAtMSwtMyB2IC0zIGwgLTEsLTMgdiAtMyBsIC0xLC00IHYgLTMgbCAtMSwtMyB2IC0zIC0zIGwgLTEsLTQgdiAtMyBsIC0xLC0zIC0xLC0zIHYgLTQgbCAtMSwtMyB2IC00IGwgLTEsLTMgdiAtMyBsIC0xLC00IHYgLTMgbCAtMSwtNCAtMSwtMyB2IC00IGwgLTEsLTMgdiAtNCBsIC0xLC0zIC0xLC00IHYgLTMgbCAtMSwtNCAtMSwtNCB2IC0zIGwgLTEsLTQgdiAtNCBsIC0xLC0zIC0xLC00IC0xLC00IHYgLTMgbCAtMSwtNCAtMSwtNCB2IC0zIGwgLTEsLTQgLTEsLTQgLTEsLTMgdiAtNCBsIC0xLC00IC0xLC00IC0xLC0zIHYgLTQgbCAtMSwtNCAtMSwtNCAtMSwtMyB2IC00IGwgLTEsLTQgLTEsLTQgLTEsLTMgLTEsLTQgdiAtNCBsIC0xLC00IC0xLC0zIC0xLC00IC0xLC00IHYgLTQgbCAtMSwtNCAtMSwtMyAtMSwtNCB2IC00IGwgLTEsLTQgLTEsLTMgLTEsLTQgLTEsLTQgdiAtNCBsIC0xLC00IC0xLC0zIC0xLC00IC0xLC00IHYgLTQgbCAtMSwtMyAtMSwtNCAtMSwtNCB2IC00IGwgLTEsLTMgLTEsLTQgLTEsLTQgdiAtNCBsIC0xLC0zIC0xLC00IC0xLC00IHYgLTMgbCAtMSwtNCAtMSwtNCB2IC0zIGwgLTEsLTQgLTEsLTQgdiAtMyBsIC0xLC00IC0xLC00IC0xLC0zIHYgLTQgbCAtMSwtMyB2IC00IGwgLTEsLTQgLTEsLTMgdiAtNCBsIC0xLC0zIHYgLTQgbCAtMSwtMyAtMSwtNCB2IC0zIGwgLTEsLTQgdiAtMyBsIC0xLC00IHYgLTMgbCAtMSwtMyB2IC00IGwgLTEsLTMgdiAtNCBsIC0xLC0zIHYgLTMgbCAtMSwtMyB2IC00IGwgLTEsLTMgdiAtMyBsIC0xLC0zIHYgLTMgbCAtMSwtMyB2IC00IC0zIGwgLTEsLTMgdiAtMyBsIC0xLC0zIHYgLTMgLTIgbCAtMSwtMyB2IC0zIC0zIGwgLTEsLTMgdiAtMyAtMiBsIC0xLC0zIHYgLTMgLTIgbCAtMSwtMyB2IC0yIC0zIC0yIGwgLTEsLTMgdiAtMiAtMiAtMyBsIC0xLC0yIHYgLTIgLTIgLTIgbCAtMSwtMiB2IC0yIC0yIC0yIC0yIC0yIGwgLTEsLTIgdiAtMiAtMSAtMiAtMSAtMiBsIC0xLC0yIHYgLTEgLTEgLTIgLTEgLTEgLTEgLTEgLTIgbCAtMSwtMSB2IC0xIC0xIC0xIC0xIC0xIC0xIC0xIC0xIC0xIDAiLz4mI3hhOyAgICAgICAgPHBhdGggaWQ9InBhdGg0MzAiIHN0eWxlPSJmaWxsOm5vbmU7c3Ryb2tlOiMwMDAwMDA7c3Ryb2tlLXdpZHRoOjEyO3N0cm9rZS1saW5lY2FwOnJvdW5kO3N0cm9rZS1saW5lam9pbjpyb3VuZDtzdHJva2UtbWl0ZXJsaW1pdDoxMDtzdHJva2UtZGFzaGFycmF5Om5vbmU7c3Ryb2tlLW9wYWNpdHk6MSIgZD0ibSA2NTM5LDU0OTYgdiAtMSAtMSAtMSAtMSAtMSAtMSAtMSAtMSAtMSAtMSAtMiAtMSAtMSAtMSAtMSAtMSAtMiAtMSAtMiAtMSAtMiAtMSAtMiAtMSAtMiAtMiAtMiAtMiAtMiAtMiAtMiAtMiAtMiAtMiAtMyAtMiAtMiAtMyAtMiAtMyAtMyAtMiAtMyAtMyAtMSAtMiAtMSAtMiAtMSAtMiAtMSAtMiAtMSAtMiAtMSAtMiAtMiAtMSAtMiAtMSAtMiAtMiAtMSAtMiAtMiAtMiAtMSAtMiAtMiAtMiAtMSAtMiAtMiAtMiAtMiAtMSAtMiAtMiAtMiAtMiAtMiAtMiAtMSAtMiAtMiAtMiAtMiAtMiAtMiAtMiAtMiAtMiAtMiAtMiAtMiAtMiAtMiAtMiAtMiAtMiAtMiAtMiAtMiAtMiAtMiAtMiAtMiAtMiAtMiAtMyAtMiAtMiAtMiAtMiAtMiAtMiAtMiAtMiAtMiAtMiAtMiAtMiAtMiAtMiAtMiAtMiAtMiAtMyAtMiAtMiAtMiAtMiAtMiAtMiAtMiAtMiAtMiAtMiAtMiAtMiAtMiAtMiAtMiAtMiAtMiAtMiAtMiAtMiAtMiAtMSAtMiAtMiAtMiAtMiAtMiAtMiAtMiAtMiAtMSAtMiAtMiAtMiAtMiAtMSAtMiAtMiAtNCAtMyAtNCAtMyAtMyAtNCAtMyAtMyAtNCAtMyAtMyAtMyAtMyAtMyIvPiYjeGE7ICAgICAgICA8cGF0aCBpZD0icGF0aDQzMiIgc3R5bGU9ImZpbGw6bm9uZTtzdHJva2U6IzAwMDAwMDtzdHJva2Utd2lkdGg6MTI7c3Ryb2tlLWxpbmVjYXA6cm91bmQ7c3Ryb2tlLWxpbmVqb2luOnJvdW5kO3N0cm9rZS1taXRlcmxpbWl0OjEwO3N0cm9rZS1kYXNoYXJyYXk6bm9uZTtzdHJva2Utb3BhY2l0eToxIiBkPSJtIDgxODMsNjEwMSB2IDEgMSAxIDEgMSAxIDEgMSAxIDEgMSAyIDEgMSAxIDIgMSAyIDIgMSAyIDIgMSAyIDIgMiAyIDIgMyAyIDIgMiAzIDIgMyAyIDMgMiAzIDMgMiAzIDMgMyAzIDMgMyAzIDMgMyAzIDQgMyAzIDQgMyAzIDQgMyA0IDQgMyA0IDMgNCA0IDQgNCAzIDQgNCA0IDQgNCA0IDQgNCA0IDQgNCA1IDQgNCA0IDQgNSA0IDQgNSA0IDQgNSA0IDQgNSA0IDUgNCA1IDQgNSA0IDUgNCA1IDQgNSA0IDUgNCA1IDUgNCA1IDQgNSA0IDUgNSA0IDUgNCA1IDUgNCA1IDQgNSA0IDUgNSA0IDUgNCA1IDQgNSA0IDUgNCA1IDQgNSA0IDUgNCA0IDUgNCA0IDUgNCA0IDUgNCA0IDQgNSA0IDQgNCA0IDQgNCA0IDQgNCA0IDQgNCA0IDQgNCA0IDMgNCA0IDMgNCA0IDMgNCAzIDQgMyAzIDQgMyAzIDMgNCAzIDMgMyAzIDMgMyAzIDIgMyAzIDIgMyAzIDIgMyAyIDIgMyAyIDIgMiAyIDMgMiAxIDIgMiAyIDIgMSAyIDIgMSAxIDIgMSAxIDIgMSAxIDEgMSAxIDEgMSAxIDEgMSAxIDAiLz4mI3hhOyAgICAgICAgPHBhdGggaWQ9InBhdGg0MzQiIHN0eWxlPSJmaWxsOm5vbmU7c3Ryb2tlOiMwMDAwMDA7c3Ryb2tlLXdpZHRoOjEyO3N0cm9rZS1saW5lY2FwOnJvdW5kO3N0cm9rZS1saW5lam9pbjpyb3VuZDtzdHJva2UtbWl0ZXJsaW1pdDoxMDtzdHJva2UtZGFzaGFycmF5Om5vbmU7c3Ryb2tlLW9wYWNpdHk6MSIgZD0ibSA2MDM4LDU1MDggMSwxIDEsMiAyLDEgMSwyIDEsMSAxLDIgMSwxIDEsMSAxLDEgMSwyIDEsMSAxLDEgMSwxIDEsMSAxLDEgdiAxIGwgMSwxIDEsMSAxLDEgMSwxIDEsMSBoIDEgdiAxIGggMSB2IDEgbCAxLDEiLz4mI3hhOyAgICAgICAgPHBhdGggaWQ9InBhdGg0MzYiIHN0eWxlPSJmaWxsOm5vbmU7c3Ryb2tlOiMwMDAwMDA7c3Ryb2tlLXdpZHRoOjEyO3N0cm9rZS1saW5lY2FwOnJvdW5kO3N0cm9rZS1saW5lam9pbjpyb3VuZDtzdHJva2UtbWl0ZXJsaW1pdDoxMDtzdHJva2UtZGFzaGFycmF5Om5vbmU7c3Ryb2tlLW9wYWNpdHk6MSIgZD0ibSA2MTMyLDU1ODMgaCAtMiAtNiAtMTAgLTE0IC0xOCAtMjIgLTI1IC0yOSAtMzMgLTM1IC0zOSAtNDEgLTQ0IC00NiAtNDggLTUwIC01MSAtNTMgLTUzIC01NCAtNTUgLTU0IC01NCAtNTMgLTUzIC01MSAtNTAgLTQ4IC00NiAtNDQgLTQyIC0zOCAtMzYgLTMyIC0yOSAtMjUgLTIyIC0xOCAtMTQgLTEwIC02IC0yIi8+JiN4YTsgICAgICAgIDxwYXRoIGlkPSJwYXRoNDM4IiBzdHlsZT0iZmlsbDpub25lO3N0cm9rZTojMDAwMDAwO3N0cm9rZS13aWR0aDoxMjtzdHJva2UtbGluZWNhcDpyb3VuZDtzdHJva2UtbGluZWpvaW46cm91bmQ7c3Ryb2tlLW1pdGVybGltaXQ6MTA7c3Ryb2tlLWRhc2hhcnJheTpub25lO3N0cm9rZS1vcGFjaXR5OjEiIGQ9Ik0gODgwNyw0NjI5IFYgNTc1MyIvPiYjeGE7ICAgICAgICA8cGF0aCBpZD0icGF0aDQ0MCIgc3R5bGU9ImZpbGw6bm9uZTtzdHJva2U6IzAwMDAwMDtzdHJva2Utd2lkdGg6MTI7c3Ryb2tlLWxpbmVjYXA6cm91bmQ7c3Ryb2tlLWxpbmVqb2luOnJvdW5kO3N0cm9rZS1taXRlcmxpbWl0OjEwO3N0cm9rZS1kYXNoYXJyYXk6bm9uZTtzdHJva2Utb3BhY2l0eToxIiBkPSJNIDg4MDcsNTk4MCBWIDcxMDUiLz4mI3hhOyAgICAgICAgPHBhdGggaWQ9InBhdGg0NDIiIHN0eWxlPSJmaWxsOm5vbmU7c3Ryb2tlOiMwMDAwMDA7c3Ryb2tlLXdpZHRoOjEyO3N0cm9rZS1saW5lY2FwOnJvdW5kO3N0cm9rZS1saW5lam9pbjpyb3VuZDtzdHJva2UtbWl0ZXJsaW1pdDoxMDtzdHJva2UtZGFzaGFycmF5Om5vbmU7c3Ryb2tlLW9wYWNpdHk6MSIgZD0iTSA4NzMxLDU2NzggViA0NzA0Ii8+JiN4YTsgICAgICAgIDxwYXRoIGlkPSJwYXRoNDQ0IiBzdHlsZT0iZmlsbDpub25lO3N0cm9rZTojMDAwMDAwO3N0cm9rZS13aWR0aDoxMjtzdHJva2UtbGluZWNhcDpyb3VuZDtzdHJva2UtbGluZWpvaW46cm91bmQ7c3Ryb2tlLW1pdGVybGltaXQ6MTA7c3Ryb2tlLWRhc2hhcnJheTpub25lO3N0cm9rZS1vcGFjaXR5OjEiIGQ9Ik0gODczMSw3MDI5IFYgNjA1NiIvPiYjeGE7ICAgICAgICA8cGF0aCBpZD0icGF0aDQ0NiIgc3R5bGU9ImZpbGw6bm9uZTtzdHJva2U6IzAwMDAwMDtzdHJva2Utd2lkdGg6MTI7c3Ryb2tlLWxpbmVjYXA6cm91bmQ7c3Ryb2tlLWxpbmVqb2luOnJvdW5kO3N0cm9rZS1taXRlcmxpbWl0OjEwO3N0cm9rZS1kYXNoYXJyYXk6bm9uZTtzdHJva2Utb3BhY2l0eToxIiBkPSJtIDgxODMsNDgxMiB2IDEgMSAxIDEgMSAxIDEgMSAxIDEgMSAxIDEgMSAyIDEgMSAyIDEgMiAxIDIgMiAxIDIgMiAyIDIgMiAyIDIgMiAyIDMgMiAyIDIgMyAyIDMgMiAzIDMgMiAzIDMgMiAzIDMgMyAzIDMgMyAzIDMgMyA0IDMgMyAzIDQgMyAzIDQgMyA0IDMgNCAzIDQgNCAzIDQgNCA0IDMgNCA0IDQgNCA0IDQgNCA0IDQgNCA0IDQgNCA0IDQgNSA0IDQgNCA0IDUgNCA0IDUgNCA0IDUgNCA0IDUgNCA0IDUgNCA0IDUgNCA1IDQgNCA1IDQgNSA0IDUgNCA0IDUgNCA1IDQgNCA1IDQgNSA0IDQgNSA0IDQgNSA0IDQgNCA1IDQgNCA0IDUgNCA0IDQgNCA0IDQgNSA0IDQgNCA0IDQgMyA0IDQgNCA0IDQgNCAzIDQgNCAzIDQgNCAzIDQgMyA0IDMgNCAzIDMgNCAzIDMgMyAzIDQgMyAzIDMgMyAzIDIgMyAzIDMgMyAyIDMgMiAzIDIgMyAyIDMgMiAyIDIgMyAyIDIgMiAyIDIgMiAxIDIgMiAyIDEgMiAxIDIgMSAyIDEgMSAxIDEgMiAxIDEgMSAxIDEgMSAxIDEgMSAxIDEiLz4mI3hhOyAgICAgIDwvZz4mI3hhOyAgICA8L2c+JiN4YTsgICAgPGcgaWQ9Imc0NDgiPiYjeGE7ICAgICAgPGcgY2xpcC1wYXRoPSJ1cmwoI2NsaXBQYXRoNDU0KSIgaWQ9Imc0NTAiPiYjeGE7ICAgICAgICA8cGF0aCBpZD0icGF0aDQ1NiIgc3R5bGU9ImZpbGw6bm9uZTtzdHJva2U6IzAwMDAwMDtzdHJva2Utd2lkdGg6MTI7c3Ryb2tlLWxpbmVjYXA6cm91bmQ7c3Ryb2tlLWxpbmVqb2luOnJvdW5kO3N0cm9rZS1taXRlcmxpbWl0OjEwO3N0cm9rZS1kYXNoYXJyYXk6bm9uZTtzdHJva2Utb3BhY2l0eToxIiBkPSJtIDE1OTAsMTIxODUgdiAzMDgiLz4mI3hhOyAgICAgICAgPHBhdGggaWQ9InBhdGg0NTgiIHN0eWxlPSJmaWxsOm5vbmU7c3Ryb2tlOiMwMDAwMDA7c3Ryb2tlLXdpZHRoOjEyO3N0cm9rZS1saW5lY2FwOnJvdW5kO3N0cm9rZS1saW5lam9pbjpyb3VuZDtzdHJva2UtbWl0ZXJsaW1pdDoxMDtzdHJva2UtZGFzaGFycmF5Om5vbmU7c3Ryb2tlLW9wYWNpdHk6MSIgZD0ibSAzMDY4LDEyMTg1IHYgMzA4Ii8+JiN4YTsgICAgICAgIDxwYXRoIGlkPSJwYXRoNDYwIiBzdHlsZT0iZmlsbDpub25lO3N0cm9rZTojMDAwMDAwO3N0cm9rZS13aWR0aDoxMjtzdHJva2UtbGluZWNhcDpyb3VuZDtzdHJva2UtbGluZWpvaW46cm91bmQ7c3Ryb2tlLW1pdGVybGltaXQ6MTA7c3Ryb2tlLWRhc2hhcnJheTpub25lO3N0cm9rZS1vcGFjaXR5OjEiIGQ9Ik0gMTc1NSwxMjM5NCBIIDI5MDMiLz4mI3hhOyAgICAgICAgPGcgaWQ9Imc0NjIiPiYjeGE7ICAgICAgICAgIDxwYXRoIGlkPSJwYXRoNDY0IiBzdHlsZT0iZmlsbDojMDAwMDAwO2ZpbGwtb3BhY2l0eToxO2ZpbGwtcnVsZTpub256ZXJvO3N0cm9rZTojMDAwMDAwO3N0cm9rZS13aWR0aDoxMi41O3N0cm9rZS1saW5lY2FwOnJvdW5kO3N0cm9rZS1saW5lam9pbjptaXRlcjtzdHJva2UtbWl0ZXJsaW1pdDoxMDtzdHJva2UtZGFzaGFycmF5Om5vbmU7c3Ryb2tlLW9wYWNpdHk6MSIgZD0ibSAxNzU1LDEyNDIxIHYgLTU1IGwgLTE2NSwyOCB6Ii8+JiN4YTsgICAgICAgIDwvZz4mI3hhOyAgICAgICAgPGcgaWQ9Imc0NjYiPiYjeGE7ICAgICAgICAgIDxwYXRoIGlkPSJwYXRoNDY4IiBzdHlsZT0iZmlsbDojMDAwMDAwO2ZpbGwtb3BhY2l0eToxO2ZpbGwtcnVsZTpub256ZXJvO3N0cm9rZTojMDAwMDAwO3N0cm9rZS13aWR0aDoxMi41O3N0cm9rZS1saW5lY2FwOnJvdW5kO3N0cm9rZS1saW5lam9pbjptaXRlcjtzdHJva2UtbWl0ZXJsaW1pdDoxMDtzdHJva2UtZGFzaGFycmF5Om5vbmU7c3Ryb2tlLW9wYWNpdHk6MSIgZD0ibSAyOTAzLDEyNDIxIHYgLTU1IGwgMTY1LDI4IHoiLz4mI3hhOyAgICAgICAgPC9nPiYjeGE7ICAgICAgPC9nPiYjeGE7ICAgIDwvZz4mI3hhOyAgICA8ZyBpZD0iZzQ3MCI+JiN4YTsgICAgICA8ZyBjbGlwLXBhdGg9InVybCgjY2xpcFBhdGg0NzYpIiBpZD0iZzQ3MiI+JiN4YTsgICAgICAgIDx0ZXh0IGlkPSJ0ZXh0NDgwIiBzdHlsZT0iZm9udC12YXJpYW50Om5vcm1hbDtmb250LXdlaWdodDpub3JtYWw7Zm9udC1zaXplOjIyNy40MjNweDtmb250LWZhbWlseTpWZXJkYW5hOy1pbmtzY2FwZS1mb250LXNwZWNpZmljYXRpb246VmVyZGFuYTt3cml0aW5nLW1vZGU6bHItdGI7ZmlsbDojMDAwMDAwO2ZpbGwtb3BhY2l0eToxO2ZpbGwtcnVsZTpub256ZXJvO3N0cm9rZTpub25lIiB0cmFuc2Zvcm09Im1hdHJpeCgxLDAsMCwtMSwxOTk2LDEyNDYzKSIgeG1sOnNwYWNlPSJwcmVzZXJ2ZSI+PHRzcGFuIGlkPSJ0c3BhbjQ3OCIgeT0iMCIgeD0iMCAxNDQuNjQxMDIgMjg5LjI4MjA0IDM3Mi4wNjQwMyA1MTYuNzA1MDgiPjMxLjI4PC90c3Bhbj48L3RleHQ+JiN4YTsgICAgICA8L2c+JiN4YTsgICAgPC9nPiYjeGE7ICAgIDxnIGlkPSJnNDgyIj4mI3hhOyAgICAgIDxnIGNsaXAtcGF0aD0idXJsKCNjbGlwUGF0aDQ4OCkiIGlkPSJnNDg0Ij4mI3hhOyAgICAgICAgPHBhdGggaWQ9InBhdGg0OTAiIHN0eWxlPSJmaWxsOm5vbmU7c3Ryb2tlOiMwMDAwMDA7c3Ryb2tlLXdpZHRoOjEyO3N0cm9rZS1saW5lY2FwOnJvdW5kO3N0cm9rZS1saW5lam9pbjpyb3VuZDtzdHJva2UtbWl0ZXJsaW1pdDoxMDtzdHJva2UtZGFzaGFycmF5Om5vbmU7c3Ryb2tlLW9wYWNpdHk6MSIgZD0iTSAxNTI4LDEyMTI0IEggOTg2Ii8+JiN4YTsgICAgICAgIDxwYXRoIGlkPSJwYXRoNDkyIiBzdHlsZT0iZmlsbDpub25lO3N0cm9rZTojMDAwMDAwO3N0cm9rZS13aWR0aDoxMjtzdHJva2UtbGluZWNhcDpyb3VuZDtzdHJva2UtbGluZWpvaW46cm91bmQ7c3Ryb2tlLW1pdGVybGltaXQ6MTA7c3Ryb2tlLWRhc2hhcnJheTpub25lO3N0cm9rZS1vcGFjaXR5OjEiIGQ9Ik0gMTUyOCw5MzA2IEggOTg2Ii8+JiN4YTsgICAgICAgIDxwYXRoIGlkPSJwYXRoNDk0IiBzdHlsZT0iZmlsbDpub25lO3N0cm9rZTojMDAwMDAwO3N0cm9rZS13aWR0aDoxMjtzdHJva2UtbGluZWNhcDpyb3VuZDtzdHJva2UtbGluZWpvaW46cm91bmQ7c3Ryb2tlLW1pdGVybGltaXQ6MTA7c3Ryb2tlLWRhc2hhcnJheTpub25lO3N0cm9rZS1vcGFjaXR5OjEiIGQ9Ik0gMTA4NSwxMTk1OSBWIDk0NzEiLz4mI3hhOyAgICAgICAgPGcgaWQ9Imc0OTYiPiYjeGE7ICAgICAgICAgIDxwYXRoIGlkPSJwYXRoNDk4IiBzdHlsZT0iZmlsbDojMDAwMDAwO2ZpbGwtb3BhY2l0eToxO2ZpbGwtcnVsZTpub256ZXJvO3N0cm9rZTojMDAwMDAwO3N0cm9rZS13aWR0aDoxMi41O3N0cm9rZS1saW5lY2FwOnJvdW5kO3N0cm9rZS1saW5lam9pbjptaXRlcjtzdHJva2UtbWl0ZXJsaW1pdDoxMDtzdHJva2UtZGFzaGFycmF5Om5vbmU7c3Ryb2tlLW9wYWNpdHk6MSIgZD0ibSAxMDU4LDExOTU5IGggNTUgbCAtMjgsMTY1IHoiLz4mI3hhOyAgICAgICAgPC9nPiYjeGE7ICAgICAgICA8ZyBpZD0iZzUwMCI+JiN4YTsgICAgICAgICAgPHBhdGggaWQ9InBhdGg1MDIiIHN0eWxlPSJmaWxsOiMwMDAwMDA7ZmlsbC1vcGFjaXR5OjE7ZmlsbC1ydWxlOm5vbnplcm87c3Ryb2tlOiMwMDAwMDA7c3Ryb2tlLXdpZHRoOjEyLjU7c3Ryb2tlLWxpbmVjYXA6cm91bmQ7c3Ryb2tlLWxpbmVqb2luOm1pdGVyO3N0cm9rZS1taXRlcmxpbWl0OjEwO3N0cm9rZS1kYXNoYXJyYXk6bm9uZTtzdHJva2Utb3BhY2l0eToxIiBkPSJtIDEwNTgsOTQ3MSBoIDU1IGwgLTI4LC0xNjUgeiIvPiYjeGE7ICAgICAgICA8L2c+JiN4YTsgICAgICAgIDx0ZXh0IGlkPSJ0ZXh0NTA2IiBzdHlsZT0iZm9udC12YXJpYW50Om5vcm1hbDtmb250LXdlaWdodDpub3JtYWw7Zm9udC1zaXplOjIyNy40MjNweDtmb250LWZhbWlseTpWZXJkYW5hOy1pbmtzY2FwZS1mb250LXNwZWNpZmljYXRpb246VmVyZGFuYTt3cml0aW5nLW1vZGU6bHItdGI7ZmlsbDojMDAwMDAwO2ZpbGwtb3BhY2l0eToxO2ZpbGwtcnVsZTpub256ZXJvO3N0cm9rZTpub25lIiB0cmFuc2Zvcm09Im1hdHJpeCgwLDEsMSwwLDEwMTYsMTAzNzkpIiB4bWw6c3BhY2U9InByZXNlcnZlIj48dHNwYW4gaWQ9InRzcGFuNTA0IiB5PSIwIiB4PSIwIDE0NC42NDEwMiAyODkuMjgyMDQgMzcyLjA2NDAzIDUxNi43MDUwOCI+NTkuNjQ8L3RzcGFuPjwvdGV4dD4mI3hhOyAgICAgICAgPHBhdGggaWQ9InBhdGg1MDgiIHN0eWxlPSJmaWxsOm5vbmU7c3Ryb2tlOiMwMDAwMDA7c3Ryb2tlLXdpZHRoOjEyO3N0cm9rZS1saW5lY2FwOnJvdW5kO3N0cm9rZS1saW5lam9pbjpyb3VuZDtzdHJva2UtbWl0ZXJsaW1pdDoxMDtzdHJva2UtZGFzaGFycmF5Om5vbmU7c3Ryb2tlLW9wYWNpdHk6MSIgZD0iTSAxODQyLDk0NjIgViA4ODU4Ii8+JiN4YTsgICAgICAgIDxwYXRoIGlkPSJwYXRoNTEwIiBzdHlsZT0iZmlsbDpub25lO3N0cm9rZTojMDAwMDAwO3N0cm9rZS13aWR0aDoxMjtzdHJva2UtbGluZWNhcDpyb3VuZDtzdHJva2UtbGluZWpvaW46cm91bmQ7c3Ryb2tlLW1pdGVybGltaXQ6MTA7c3Ryb2tlLWRhc2hhcnJheTpub25lO3N0cm9rZS1vcGFjaXR5OjEiIGQ9Ik0gMjgxNiw5NDYyIFYgODg1OCIvPiYjeGE7ICAgICAgICA8cGF0aCBpZD0icGF0aDUxMiIgc3R5bGU9ImZpbGw6bm9uZTtzdHJva2U6IzAwMDAwMDtzdHJva2Utd2lkdGg6MTI7c3Ryb2tlLWxpbmVjYXA6cm91bmQ7c3Ryb2tlLWxpbmVqb2luOnJvdW5kO3N0cm9rZS1taXRlcmxpbWl0OjEwO3N0cm9rZS1kYXNoYXJyYXk6bm9uZTtzdHJva2Utb3BhY2l0eToxIiBkPSJtIDIwMDgsODk1OCBoIDY0MiIvPiYjeGE7ICAgICAgICA8ZyBpZD0iZzUxNCI+JiN4YTsgICAgICAgICAgPHBhdGggaWQ9InBhdGg1MTYiIHN0eWxlPSJmaWxsOiMwMDAwMDA7ZmlsbC1vcGFjaXR5OjE7ZmlsbC1ydWxlOm5vbnplcm87c3Ryb2tlOiMwMDAwMDA7c3Ryb2tlLXdpZHRoOjEyLjU7c3Ryb2tlLWxpbmVjYXA6cm91bmQ7c3Ryb2tlLWxpbmVqb2luOm1pdGVyO3N0cm9rZS1taXRlcmxpbWl0OjEwO3N0cm9rZS1kYXNoYXJyYXk6bm9uZTtzdHJva2Utb3BhY2l0eToxIiBkPSJtIDIwMDgsODk4NSB2IC01NSBsIC0xNjYsMjggeiIvPiYjeGE7ICAgICAgICA8L2c+JiN4YTsgICAgICAgIDxnIGlkPSJnNTE4Ij4mI3hhOyAgICAgICAgICA8cGF0aCBpZD0icGF0aDUyMCIgc3R5bGU9ImZpbGw6IzAwMDAwMDtmaWxsLW9wYWNpdHk6MTtmaWxsLXJ1bGU6bm9uemVybztzdHJva2U6IzAwMDAwMDtzdHJva2Utd2lkdGg6MTIuNTtzdHJva2UtbGluZWNhcDpyb3VuZDtzdHJva2UtbGluZWpvaW46bWl0ZXI7c3Ryb2tlLW1pdGVybGltaXQ6MTA7c3Ryb2tlLWRhc2hhcnJheTpub25lO3N0cm9rZS1vcGFjaXR5OjEiIGQ9Im0gMjY1MCw4OTg1IHYgLTU1IGwgMTY2LDI4IHoiLz4mI3hhOyAgICAgICAgPC9nPiYjeGE7ICAgICAgICA8dGV4dCBpZD0idGV4dDUyNCIgc3R5bGU9ImZvbnQtdmFyaWFudDpub3JtYWw7Zm9udC13ZWlnaHQ6bm9ybWFsO2ZvbnQtc2l6ZToyMjcuNDIzcHg7Zm9udC1mYW1pbHk6VmVyZGFuYTstaW5rc2NhcGUtZm9udC1zcGVjaWZpY2F0aW9uOlZlcmRhbmE7d3JpdGluZy1tb2RlOmxyLXRiO2ZpbGw6IzAwMDAwMDtmaWxsLW9wYWNpdHk6MTtmaWxsLXJ1bGU6bm9uemVybztzdHJva2U6bm9uZSIgdHJhbnNmb3JtPSJtYXRyaXgoMSwwLDAsLTEsMjA2OCw5MDI3KSIgeG1sOnNwYWNlPSJwcmVzZXJ2ZSI+PHRzcGFuIGlkPSJ0c3BhbjUyMiIgeT0iMCIgeD0iMCAxNDQuNjQxMDIgMjg5LjI4MjA0IDM3Mi4wNjQwMyI+MjAuNjwvdHNwYW4+PC90ZXh0PiYjeGE7ICAgICAgICA8cGF0aCBpZD0icGF0aDUyNiIgc3R5bGU9ImZpbGw6bm9uZTtzdHJva2U6IzAwMDAwMDtzdHJva2Utd2lkdGg6MTI7c3Ryb2tlLWxpbmVjYXA6cm91bmQ7c3Ryb2tlLWxpbmVqb2luOnJvdW5kO3N0cm9rZS1taXRlcmxpbWl0OjEwO3N0cm9rZS1kYXNoYXJyYXk6bm9uZTtzdHJva2Utb3BhY2l0eToxIiBkPSJtIDI5MTUsMTA1MzQgaCA4NTIiLz4mI3hhOyAgICAgICAgPHBhdGggaWQ9InBhdGg1MjgiIHN0eWxlPSJmaWxsOm5vbmU7c3Ryb2tlOiMwMDAwMDA7c3Ryb2tlLXdpZHRoOjEyO3N0cm9rZS1saW5lY2FwOnJvdW5kO3N0cm9rZS1saW5lam9pbjpyb3VuZDtzdHJva2UtbWl0ZXJsaW1pdDoxMDtzdHJva2UtZGFzaGFycmF5Om5vbmU7c3Ryb2tlLW9wYWNpdHk6MSIgZD0ibSAyOTE1LDk1NjEgaCA4NTIiLz4mI3hhOyAgICAgICAgPHBhdGggaWQ9InBhdGg1MzAiIHN0eWxlPSJmaWxsOm5vbmU7c3Ryb2tlOiMwMDAwMDA7c3Ryb2tlLXdpZHRoOjEyO3N0cm9rZS1saW5lY2FwOnJvdW5kO3N0cm9rZS1saW5lam9pbjpyb3VuZDtzdHJva2UtbWl0ZXJsaW1pdDoxMDtzdHJva2UtZGFzaGFycmF5Om5vbmU7c3Ryb2tlLW9wYWNpdHk6MSIgZD0iTSAzNjY4LDEwMzY5IFYgOTcyNiIvPiYjeGE7ICAgICAgICA8ZyBpZD0iZzUzMiI+JiN4YTsgICAgICAgICAgPHBhdGggaWQ9InBhdGg1MzQiIHN0eWxlPSJmaWxsOiMwMDAwMDA7ZmlsbC1vcGFjaXR5OjE7ZmlsbC1ydWxlOm5vbnplcm87c3Ryb2tlOiMwMDAwMDA7c3Ryb2tlLXdpZHRoOjEyLjU7c3Ryb2tlLWxpbmVjYXA6cm91bmQ7c3Ryb2tlLWxpbmVqb2luOm1pdGVyO3N0cm9rZS1taXRlcmxpbWl0OjEwO3N0cm9rZS1kYXNoYXJyYXk6bm9uZTtzdHJva2Utb3BhY2l0eToxIiBkPSJtIDM2NDAsMTAzNjkgaCA1NSBsIC0yNywxNjUgeiIvPiYjeGE7ICAgICAgICA8L2c+JiN4YTsgICAgICAgIDxnIGlkPSJnNTM2Ij4mI3hhOyAgICAgICAgICA8cGF0aCBpZD0icGF0aDUzOCIgc3R5bGU9ImZpbGw6IzAwMDAwMDtmaWxsLW9wYWNpdHk6MTtmaWxsLXJ1bGU6bm9uemVybztzdHJva2U6IzAwMDAwMDtzdHJva2Utd2lkdGg6MTIuNTtzdHJva2UtbGluZWNhcDpyb3VuZDtzdHJva2UtbGluZWpvaW46bWl0ZXI7c3Ryb2tlLW1pdGVybGltaXQ6MTA7c3Ryb2tlLWRhc2hhcnJheTpub25lO3N0cm9rZS1vcGFjaXR5OjEiIGQ9Im0gMzY0MCw5NzI2IGggNTUgbCAtMjcsLTE2NSB6Ii8+JiN4YTsgICAgICAgIDwvZz4mI3hhOyAgICAgICAgPHRleHQgaWQ9InRleHQ1NDIiIHN0eWxlPSJmb250LXZhcmlhbnQ6bm9ybWFsO2ZvbnQtd2VpZ2h0Om5vcm1hbDtmb250LXNpemU6MjI3LjQyM3B4O2ZvbnQtZmFtaWx5OlZlcmRhbmE7LWlua3NjYXBlLWZvbnQtc3BlY2lmaWNhdGlvbjpWZXJkYW5hO3dyaXRpbmctbW9kZTpsci10YjtmaWxsOiMwMDAwMDA7ZmlsbC1vcGFjaXR5OjE7ZmlsbC1ydWxlOm5vbnplcm87c3Ryb2tlOm5vbmUiIHRyYW5zZm9ybT0ibWF0cml4KDAsMSwxLDAsMzU5OCw5Nzg3KSIgeG1sOnNwYWNlPSJwcmVzZXJ2ZSI+PHRzcGFuIGlkPSJ0c3BhbjU0MCIgeT0iMCIgeD0iMCAxNDQuNjQxMDIgMjg5LjI4MjA0IDM3Mi4wNjQwMyI+MjAuNjwvdHNwYW4+PC90ZXh0PiYjeGE7ICAgICAgICA8cGF0aCBpZD0icGF0aDU0NCIgc3R5bGU9ImZpbGw6bm9uZTtzdHJva2U6IzAwMDAwMDtzdHJva2Utd2lkdGg6MTI7c3Ryb2tlLWxpbmVjYXA6cm91bmQ7c3Ryb2tlLWxpbmVqb2luOnJvdW5kO3N0cm9rZS1taXRlcmxpbWl0OjEwO3N0cm9rZS1kYXNoYXJyYXk6bm9uZTtzdHJva2Utb3BhY2l0eToxIiBkPSJtIDIzMjksMTA3NDcgdiA1MjUiLz4mI3hhOyAgICAgICAgPHBhdGggaWQ9InBhdGg1NDYiIHN0eWxlPSJmaWxsOm5vbmU7c3Ryb2tlOiMwMDAwMDA7c3Ryb2tlLXdpZHRoOjEyO3N0cm9rZS1saW5lY2FwOnJvdW5kO3N0cm9rZS1saW5lam9pbjpyb3VuZDtzdHJva2UtbWl0ZXJsaW1pdDoxMDtzdHJva2UtZGFzaGFycmF5Om5vbmU7c3Ryb2tlLW9wYWNpdHk6MSIgZD0ibSAyMzI5LDExMzU3IHYgODQiLz4mI3hhOyAgICAgICAgPHBhdGggaWQ9InBhdGg1NDgiIHN0eWxlPSJmaWxsOm5vbmU7c3Ryb2tlOiMwMDAwMDA7c3Ryb2tlLXdpZHRoOjEyO3N0cm9rZS1saW5lY2FwOnJvdW5kO3N0cm9rZS1saW5lam9pbjpyb3VuZDtzdHJva2UtbWl0ZXJsaW1pdDoxMDtzdHJva2UtZGFzaGFycmF5Om5vbmU7c3Ryb2tlLW9wYWNpdHk6MSIgZD0ibSAyMzI5LDExNTI1IHYgNTI2Ii8+JiN4YTsgICAgICAgIDxwYXRoIGlkPSJwYXRoNTUwIiBzdHlsZT0iZmlsbDpub25lO3N0cm9rZTojMDAwMDAwO3N0cm9rZS13aWR0aDoxMjtzdHJva2UtbGluZWNhcDpyb3VuZDtzdHJva2UtbGluZWpvaW46cm91bmQ7c3Ryb2tlLW1pdGVybGltaXQ6MTA7c3Ryb2tlLWRhc2hhcnJheTpub25lO3N0cm9rZS1vcGFjaXR5OjEiIGQ9Im0gMjMyOSw5Mzk2IHYgNTI1Ii8+JiN4YTsgICAgICAgIDxwYXRoIGlkPSJwYXRoNTUyIiBzdHlsZT0iZmlsbDpub25lO3N0cm9rZTojMDAwMDAwO3N0cm9rZS13aWR0aDoxMjtzdHJva2UtbGluZWNhcDpyb3VuZDtzdHJva2UtbGluZWpvaW46cm91bmQ7c3Ryb2tlLW1pdGVybGltaXQ6MTA7c3Ryb2tlLWRhc2hhcnJheTpub25lO3N0cm9rZS1vcGFjaXR5OjEiIGQ9Im0gMjMyOSwxMDAwNSB2IDg1Ii8+JiN4YTsgICAgICAgIDxwYXRoIGlkPSJwYXRoNTU0IiBzdHlsZT0iZmlsbDpub25lO3N0cm9rZTojMDAwMDAwO3N0cm9rZS13aWR0aDoxMjtzdHJva2UtbGluZWNhcDpyb3VuZDtzdHJva2UtbGluZWpvaW46cm91bmQ7c3Ryb2tlLW1pdGVybGltaXQ6MTA7c3Ryb2tlLWRhc2hhcnJheTpub25lO3N0cm9rZS1vcGFjaXR5OjEiIGQ9Im0gMjMyOSwxMDE3NCB2IDUyNiIvPiYjeGE7ICAgICAgICA8cGF0aCBpZD0icGF0aDU1NiIgc3R5bGU9ImZpbGw6bm9uZTtzdHJva2U6IzAwMDAwMDtzdHJva2Utd2lkdGg6MTI7c3Ryb2tlLWxpbmVjYXA6cm91bmQ7c3Ryb2tlLWxpbmVqb2luOnJvdW5kO3N0cm9rZS1taXRlcmxpbWl0OjEwO3N0cm9rZS1kYXNoYXJyYXk6bm9uZTtzdHJva2Utb3BhY2l0eToxIiBkPSJtIDE2NzcsMTAwNDggaCA1MjYiLz4mI3hhOyAgICAgICAgPHBhdGggaWQ9InBhdGg1NTgiIHN0eWxlPSJmaWxsOm5vbmU7c3Ryb2tlOiMwMDAwMDA7c3Ryb2tlLXdpZHRoOjEyO3N0cm9rZS1saW5lY2FwOnJvdW5kO3N0cm9rZS1saW5lam9pbjpyb3VuZDtzdHJva2UtbWl0ZXJsaW1pdDoxMDtzdHJva2UtZGFzaGFycmF5Om5vbmU7c3Ryb2tlLW9wYWNpdHk6MSIgZD0ibSAyMjg3LDEwMDQ4IGggODQiLz4mI3hhOyAgICAgICAgPHBhdGggaWQ9InBhdGg1NjAiIHN0eWxlPSJmaWxsOm5vbmU7c3Ryb2tlOiMwMDAwMDA7c3Ryb2tlLXdpZHRoOjEyO3N0cm9rZS1saW5lY2FwOnJvdW5kO3N0cm9rZS1saW5lam9pbjpyb3VuZDtzdHJva2UtbWl0ZXJsaW1pdDoxMDtzdHJva2UtZGFzaGFycmF5Om5vbmU7c3Ryb2tlLW9wYWNpdHk6MSIgZD0ibSAyNDU2LDEwMDQ4IGggNTI1Ii8+JiN4YTsgICAgICAgIDxwYXRoIGlkPSJwYXRoNTYyIiBzdHlsZT0iZmlsbDpub25lO3N0cm9rZTojMDAwMDAwO3N0cm9rZS13aWR0aDoxMjtzdHJva2UtbGluZWNhcDpyb3VuZDtzdHJva2UtbGluZWpvaW46cm91bmQ7c3Ryb2tlLW1pdGVybGltaXQ6MTA7c3Ryb2tlLWRhc2hhcnJheTpub25lO3N0cm9rZS1vcGFjaXR5OjEiIGQ9Im0gMTY3NywxMTM5OSBoIDUyNiIvPiYjeGE7ICAgICAgICA8cGF0aCBpZD0icGF0aDU2NCIgc3R5bGU9ImZpbGw6bm9uZTtzdHJva2U6IzAwMDAwMDtzdHJva2Utd2lkdGg6MTI7c3Ryb2tlLWxpbmVjYXA6cm91bmQ7c3Ryb2tlLWxpbmVqb2luOnJvdW5kO3N0cm9rZS1taXRlcmxpbWl0OjEwO3N0cm9rZS1kYXNoYXJyYXk6bm9uZTtzdHJva2Utb3BhY2l0eToxIiBkPSJtIDIyODcsMTEzOTkgaCA4NCIvPiYjeGE7ICAgICAgICA8cGF0aCBpZD0icGF0aDU2NiIgc3R5bGU9ImZpbGw6bm9uZTtzdHJva2U6IzAwMDAwMDtzdHJva2Utd2lkdGg6MTI7c3Ryb2tlLWxpbmVjYXA6cm91bmQ7c3Ryb2tlLWxpbmVqb2luOnJvdW5kO3N0cm9rZS1taXRlcmxpbWl0OjEwO3N0cm9rZS1kYXNoYXJyYXk6bm9uZTtzdHJva2Utb3BhY2l0eToxIiBkPSJtIDI0NTYsMTEzOTkgaCA1MjUiLz4mI3hhOyAgICAgICAgPHBhdGggaWQ9InBhdGg1NjgiIHN0eWxlPSJmaWxsOm5vbmU7c3Ryb2tlOiMwMDAwMDA7c3Ryb2tlLXdpZHRoOjEyO3N0cm9rZS1saW5lY2FwOnJvdW5kO3N0cm9rZS1saW5lam9pbjpyb3VuZDtzdHJva2UtbWl0ZXJsaW1pdDoxMDtzdHJva2UtZGFzaGFycmF5Om5vbmU7c3Ryb2tlLW9wYWNpdHk6MSIgZD0ibSAyNjE0LDExMjQ2IDIsLTI0NCIvPiYjeGE7ICAgICAgICA8cGF0aCBpZD0icGF0aDU3MCIgc3R5bGU9ImZpbGw6bm9uZTtzdHJva2U6IzAwMDAwMDtzdHJva2Utd2lkdGg6MTI7c3Ryb2tlLWxpbmVjYXA6cm91bmQ7c3Ryb2tlLWxpbmVqb2luOnJvdW5kO3N0cm9rZS1taXRlcmxpbWl0OjEwO3N0cm9rZS1kYXNoYXJyYXk6bm9uZTtzdHJva2Utb3BhY2l0eToxIiBkPSJtIDIwNDcsMTEyNDIgMiwtMjQ1Ii8+JiN4YTsgICAgICAgIDxwYXRoIGlkPSJwYXRoNTcyIiBzdHlsZT0iZmlsbDpub25lO3N0cm9rZTojMDAwMDAwO3N0cm9rZS13aWR0aDoxMjtzdHJva2UtbGluZWNhcDpyb3VuZDtzdHJva2UtbGluZWpvaW46cm91bmQ7c3Ryb2tlLW1pdGVybGltaXQ6MTA7c3Ryb2tlLWRhc2hhcnJheTpub25lO3N0cm9rZS1vcGFjaXR5OjEiIGQ9Im0gMjQ1MCwxMTA5OSAtMjM3LC0xIi8+JiN4YTsgICAgICAgIDxnIGlkPSJnNTc0Ij4mI3hhOyAgICAgICAgICA8cGF0aCBpZD0icGF0aDU3NiIgc3R5bGU9ImZpbGw6IzAwMDAwMDtmaWxsLW9wYWNpdHk6MTtmaWxsLXJ1bGU6bm9uemVybztzdHJva2U6IzAwMDAwMDtzdHJva2Utd2lkdGg6MTIuNTtzdHJva2UtbGluZWNhcDpyb3VuZDtzdHJva2UtbGluZWpvaW46bWl0ZXI7c3Ryb2tlLW1pdGVybGltaXQ6MTA7c3Ryb2tlLWRhc2hhcnJheTpub25lO3N0cm9rZS1vcGFjaXR5OjEiIGQ9Im0gMjQ0OSwxMTEyNyAxLC01NSAxNjUsMjkgeiIvPiYjeGE7ICAgICAgICA8L2c+JiN4YTsgICAgICAgIDxnIGlkPSJnNTc4Ij4mI3hhOyAgICAgICAgICA8cGF0aCBpZD0icGF0aDU4MCIgc3R5bGU9ImZpbGw6IzAwMDAwMDtmaWxsLW9wYWNpdHk6MTtmaWxsLXJ1bGU6bm9uemVybztzdHJva2U6IzAwMDAwMDtzdHJva2Utd2lkdGg6MTIuNTtzdHJva2UtbGluZWNhcDpyb3VuZDtzdHJva2UtbGluZWpvaW46bWl0ZXI7c3Ryb2tlLW1pdGVybGltaXQ6MTA7c3Ryb2tlLWRhc2hhcnJheTpub25lO3N0cm9rZS1vcGFjaXR5OjEiIGQ9Im0gMjIxMywxMTEyNSAxLC01NSAtMTY2LDI2IHoiLz4mI3hhOyAgICAgICAgPC9nPiYjeGE7ICAgICAgICA8dGV4dCBpZD0idGV4dDU4NCIgc3R5bGU9ImZvbnQtdmFyaWFudDpub3JtYWw7Zm9udC13ZWlnaHQ6bm9ybWFsO2ZvbnQtc2l6ZToyMjcuNDI0cHg7Zm9udC1mYW1pbHk6VmVyZGFuYTstaW5rc2NhcGUtZm9udC1zcGVjaWZpY2F0aW9uOlZlcmRhbmE7d3JpdGluZy1tb2RlOmxyLXRiO2ZpbGw6IzAwMDAwMDtmaWxsLW9wYWNpdHk6MTtmaWxsLXJ1bGU6bm9uemVybztzdHJva2U6bm9uZSIgdHJhbnNmb3JtPSJtYXRyaXgoMC45OTk5OCwwLjAwNjksMC4wMDY5LC0wLjk5OTk4LDIxNzUsMTExNjQpIiB4bWw6c3BhY2U9InByZXNlcnZlIj48dHNwYW4gaWQ9InRzcGFuNTgyIiB5PSIwIiB4PSIwIDE0NC42NDE1NyI+MTI8L3RzcGFuPjwvdGV4dD4mI3hhOyAgICAgICAgPHBhdGggaWQ9InBhdGg1ODYiIHN0eWxlPSJmaWxsOm5vbmU7c3Ryb2tlOiMwMDAwMDA7c3Ryb2tlLXdpZHRoOjEyO3N0cm9rZS1saW5lY2FwOnJvdW5kO3N0cm9rZS1saW5lam9pbjpyb3VuZDtzdHJva2UtbWl0ZXJsaW1pdDoxMDtzdHJva2UtZGFzaGFycmF5Om5vbmU7c3Ryb2tlLW9wYWNpdHk6MSIgZD0iTSA0MzgzLDEwNDQwIEggNDA3NSIvPiYjeGE7ICAgICAgICA8cGF0aCBpZD0icGF0aDU4OCIgc3R5bGU9ImZpbGw6bm9uZTtzdHJva2U6IzAwMDAwMDtzdHJva2Utd2lkdGg6MTI7c3Ryb2tlLWxpbmVjYXA6cm91bmQ7c3Ryb2tlLWxpbmVqb2luOnJvdW5kO3N0cm9rZS1taXRlcmxpbWl0OjEwO3N0cm9rZS1kYXNoYXJyYXk6bm9uZTtzdHJva2Utb3BhY2l0eToxIiBkPSJNIDQzODMsOTMwNiBIIDQwNzUiLz4mI3hhOyAgICAgICAgPHBhdGggaWQ9InBhdGg1OTAiIHN0eWxlPSJmaWxsOm5vbmU7c3Ryb2tlOiMwMDAwMDA7c3Ryb2tlLXdpZHRoOjEyO3N0cm9rZS1saW5lY2FwOnJvdW5kO3N0cm9rZS1saW5lam9pbjpyb3VuZDtzdHJva2UtbWl0ZXJsaW1pdDoxMDtzdHJva2UtZGFzaGFycmF5Om5vbmU7c3Ryb2tlLW9wYWNpdHk6MSIgZD0iTSA0MTc0LDEwMjc0IFYgOTQ3MSIvPiYjeGE7ICAgICAgICA8ZyBpZD0iZzU5MiI+JiN4YTsgICAgICAgICAgPHBhdGggaWQ9InBhdGg1OTQiIHN0eWxlPSJmaWxsOiMwMDAwMDA7ZmlsbC1vcGFjaXR5OjE7ZmlsbC1ydWxlOm5vbnplcm87c3Ryb2tlOiMwMDAwMDA7c3Ryb2tlLXdpZHRoOjEyLjU7c3Ryb2tlLWxpbmVjYXA6cm91bmQ7c3Ryb2tlLWxpbmVqb2luOm1pdGVyO3N0cm9rZS1taXRlcmxpbWl0OjEwO3N0cm9rZS1kYXNoYXJyYXk6bm9uZTtzdHJva2Utb3BhY2l0eToxIiBkPSJtIDQxNDcsMTAyNzQgaCA1NSBsIC0yOCwxNjYgeiIvPiYjeGE7ICAgICAgICA8L2c+JiN4YTsgICAgICAgIDxnIGlkPSJnNTk2Ij4mI3hhOyAgICAgICAgICA8cGF0aCBpZD0icGF0aDU5OCIgc3R5bGU9ImZpbGw6IzAwMDAwMDtmaWxsLW9wYWNpdHk6MTtmaWxsLXJ1bGU6bm9uemVybztzdHJva2U6IzAwMDAwMDtzdHJva2Utd2lkdGg6MTIuNTtzdHJva2UtbGluZWNhcDpyb3VuZDtzdHJva2UtbGluZWpvaW46bWl0ZXI7c3Ryb2tlLW1pdGVybGltaXQ6MTA7c3Ryb2tlLWRhc2hhcnJheTpub25lO3N0cm9rZS1vcGFjaXR5OjEiIGQ9Im0gNDE0Nyw5NDcxIGggNTUgbCAtMjgsLTE2NSB6Ii8+JiN4YTsgICAgICAgIDwvZz4mI3hhOyAgICAgICAgPHRleHQgaWQ9InRleHQ2MDIiIHN0eWxlPSJmb250LXZhcmlhbnQ6bm9ybWFsO2ZvbnQtd2VpZ2h0Om5vcm1hbDtmb250LXNpemU6MjI3LjQyM3B4O2ZvbnQtZmFtaWx5OlZlcmRhbmE7LWlua3NjYXBlLWZvbnQtc3BlY2lmaWNhdGlvbjpWZXJkYW5hO3dyaXRpbmctbW9kZTpsci10YjtmaWxsOiMwMDAwMDA7ZmlsbC1vcGFjaXR5OjE7ZmlsbC1ydWxlOm5vbnplcm87c3Ryb2tlOm5vbmUiIHRyYW5zZm9ybT0ibWF0cml4KDAsMSwxLDAsNDEwOCw5NzI1KSIgeG1sOnNwYWNlPSJwcmVzZXJ2ZSI+PHRzcGFuIGlkPSJ0c3BhbjYwMCIgeT0iMCIgeD0iMCAxNDQuNjQxMDIiPjI0PC90c3Bhbj48L3RleHQ+JiN4YTsgICAgICAgIDxwYXRoIGlkPSJwYXRoNjA0IiBzdHlsZT0iZmlsbDpub25lO3N0cm9rZTojMDAwMDAwO3N0cm9rZS13aWR0aDoxMjtzdHJva2UtbGluZWNhcDpyb3VuZDtzdHJva2UtbGluZWpvaW46cm91bmQ7c3Ryb2tlLW1pdGVybGltaXQ6MTA7c3Ryb2tlLWRhc2hhcnJheTpub25lO3N0cm9rZS1vcGFjaXR5OjEiIGQ9Ik0gNDQ0NCw5MjQ1IFYgODg1OCIvPiYjeGE7ICAgICAgICA8cGF0aCBpZD0icGF0aDYwNiIgc3R5bGU9ImZpbGw6bm9uZTtzdHJva2U6IzAwMDAwMDtzdHJva2Utd2lkdGg6MTI7c3Ryb2tlLWxpbmVjYXA6cm91bmQ7c3Ryb2tlLWxpbmVqb2luOnJvdW5kO3N0cm9rZS1taXRlcmxpbWl0OjEwO3N0cm9rZS1kYXNoYXJyYXk6bm9uZTtzdHJva2Utb3BhY2l0eToxIiBkPSJNIDg4MzgsOTI4MiBWIDg4NTgiLz4mI3hhOyAgICAgICAgPHBhdGggaWQ9InBhdGg2MDgiIHN0eWxlPSJmaWxsOm5vbmU7c3Ryb2tlOiMwMDAwMDA7c3Ryb2tlLXdpZHRoOjEyO3N0cm9rZS1saW5lY2FwOnJvdW5kO3N0cm9rZS1saW5lam9pbjpyb3VuZDtzdHJva2UtbWl0ZXJsaW1pdDoxMDtzdHJva2UtZGFzaGFycmF5Om5vbmU7c3Ryb2tlLW9wYWNpdHk6MSIgZD0iTSA0NjEwLDg5NTggSCA4NjczIi8+JiN4YTsgICAgICAgIDxnIGlkPSJnNjEwIj4mI3hhOyAgICAgICAgICA8cGF0aCBpZD0icGF0aDYxMiIgc3R5bGU9ImZpbGw6IzAwMDAwMDtmaWxsLW9wYWNpdHk6MTtmaWxsLXJ1bGU6bm9uemVybztzdHJva2U6IzAwMDAwMDtzdHJva2Utd2lkdGg6MTIuNTtzdHJva2UtbGluZWNhcDpyb3VuZDtzdHJva2UtbGluZWpvaW46bWl0ZXI7c3Ryb2tlLW1pdGVybGltaXQ6MTA7c3Ryb2tlLWRhc2hhcnJheTpub25lO3N0cm9rZS1vcGFjaXR5OjEiIGQ9Im0gNDYxMCw4OTg1IHYgLTU1IGwgLTE2NiwyOCB6Ii8+JiN4YTsgICAgICAgIDwvZz4mI3hhOyAgICAgICAgPGcgaWQ9Imc2MTQiPiYjeGE7ICAgICAgICAgIDxwYXRoIGlkPSJwYXRoNjE2IiBzdHlsZT0iZmlsbDojMDAwMDAwO2ZpbGwtb3BhY2l0eToxO2ZpbGwtcnVsZTpub256ZXJvO3N0cm9rZTojMDAwMDAwO3N0cm9rZS13aWR0aDoxMi41O3N0cm9rZS1saW5lY2FwOnJvdW5kO3N0cm9rZS1saW5lam9pbjptaXRlcjtzdHJva2UtbWl0ZXJsaW1pdDoxMDtzdHJva2UtZGFzaGFycmF5Om5vbmU7c3Ryb2tlLW9wYWNpdHk6MSIgZD0ibSA4NjczLDg5ODUgdiAtNTUgbCAxNjUsMjggeiIvPiYjeGE7ICAgICAgICA8L2c+JiN4YTsgICAgICAgIDx0ZXh0IGlkPSJ0ZXh0NjIwIiBzdHlsZT0iZm9udC12YXJpYW50Om5vcm1hbDtmb250LXdlaWdodDpub3JtYWw7Zm9udC1zaXplOjIyNy40MjNweDtmb250LWZhbWlseTpWZXJkYW5hOy1pbmtzY2FwZS1mb250LXNwZWNpZmljYXRpb246VmVyZGFuYTt3cml0aW5nLW1vZGU6bHItdGI7ZmlsbDojMDAwMDAwO2ZpbGwtb3BhY2l0eToxO2ZpbGwtcnVsZTpub256ZXJvO3N0cm9rZTpub25lIiB0cmFuc2Zvcm09Im1hdHJpeCgxLDAsMCwtMSw2NDk5LDkwMjcpIiB4bWw6c3BhY2U9InByZXNlcnZlIj48dHNwYW4gaWQ9InRzcGFuNjE4IiB5PSIwIiB4PSIwIDE0NC42NDEwMiI+OTM8L3RzcGFuPjwvdGV4dD4mI3hhOyAgICAgICAgPHBhdGggaWQ9InBhdGg2MjIiIHN0eWxlPSJmaWxsOm5vbmU7c3Ryb2tlOiMwMDAwMDA7c3Ryb2tlLXdpZHRoOjEyO3N0cm9rZS1saW5lY2FwOnJvdW5kO3N0cm9rZS1saW5lam9pbjpyb3VuZDtzdHJva2UtbWl0ZXJsaW1pdDoxMDtzdHJva2UtZGFzaGFycmF5Om5vbmU7c3Ryb2tlLW9wYWNpdHk6MSIgZD0iTSAxOTkxLDYxNjkgViA1NjUyIi8+JiN4YTsgICAgICAgIDxwYXRoIGlkPSJwYXRoNjI0IiBzdHlsZT0iZmlsbDpub25lO3N0cm9rZTojMDAwMDAwO3N0cm9rZS13aWR0aDoxMjtzdHJva2UtbGluZWNhcDpyb3VuZDtzdHJva2UtbGluZWpvaW46cm91bmQ7c3Ryb2tlLW1pdGVybGltaXQ6MTA7c3Ryb2tlLWRhc2hhcnJheTpub25lO3N0cm9rZS1vcGFjaXR5OjEiIGQ9Ik0gMjY2Nyw2MTY5IFYgNTY1MiIvPiYjeGE7ICAgICAgICA8cGF0aCBpZD0icGF0aDYyNiIgc3R5bGU9ImZpbGw6bm9uZTtzdHJva2U6IzAwMDAwMDtzdHJva2Utd2lkdGg6MTI7c3Ryb2tlLWxpbmVjYXA6cm91bmQ7c3Ryb2tlLWxpbmVqb2luOnJvdW5kO3N0cm9rZS1taXRlcmxpbWl0OjEwO3N0cm9rZS1kYXNoYXJyYXk6bm9uZTtzdHJva2Utb3BhY2l0eToxIiBkPSJtIDIxNTYsNTc1MSBoIDM0NiIvPiYjeGE7ICAgICAgICA8ZyBpZD0iZzYyOCI+JiN4YTsgICAgICAgICAgPHBhdGggaWQ9InBhdGg2MzAiIHN0eWxlPSJmaWxsOiMwMDAwMDA7ZmlsbC1vcGFjaXR5OjE7ZmlsbC1ydWxlOm5vbnplcm87c3Ryb2tlOiMwMDAwMDA7c3Ryb2tlLXdpZHRoOjEyLjU7c3Ryb2tlLWxpbmVjYXA6cm91bmQ7c3Ryb2tlLWxpbmVqb2luOm1pdGVyO3N0cm9rZS1taXRlcmxpbWl0OjEwO3N0cm9rZS1kYXNoYXJyYXk6bm9uZTtzdHJva2Utb3BhY2l0eToxIiBkPSJtIDIxNTYsNTc3OCB2IC01NSBsIC0xNjUsMjggeiIvPiYjeGE7ICAgICAgICA8L2c+JiN4YTsgICAgICAgIDxnIGlkPSJnNjMyIj4mI3hhOyAgICAgICAgICA8cGF0aCBpZD0icGF0aDYzNCIgc3R5bGU9ImZpbGw6IzAwMDAwMDtmaWxsLW9wYWNpdHk6MTtmaWxsLXJ1bGU6bm9uemVybztzdHJva2U6IzAwMDAwMDtzdHJva2Utd2lkdGg6MTIuNTtzdHJva2UtbGluZWNhcDpyb3VuZDtzdHJva2UtbGluZWpvaW46bWl0ZXI7c3Ryb2tlLW1pdGVybGltaXQ6MTA7c3Ryb2tlLWRhc2hhcnJheTpub25lO3N0cm9rZS1vcGFjaXR5OjEiIGQ9Im0gMjUwMiw1Nzc4IHYgLTU1IGwgMTY1LDI4IHoiLz4mI3hhOyAgICAgICAgPC9nPiYjeGE7ICAgICAgICA8dGV4dCBpZD0idGV4dDYzOCIgc3R5bGU9ImZvbnQtdmFyaWFudDpub3JtYWw7Zm9udC13ZWlnaHQ6bm9ybWFsO2ZvbnQtc2l6ZToyMjcuNDIzcHg7Zm9udC1mYW1pbHk6VmVyZGFuYTstaW5rc2NhcGUtZm9udC1zcGVjaWZpY2F0aW9uOlZlcmRhbmE7d3JpdGluZy1tb2RlOmxyLXRiO2ZpbGw6IzAwMDAwMDtmaWxsLW9wYWNpdHk6MTtmaWxsLXJ1bGU6bm9uemVybztzdHJva2U6bm9uZSIgdHJhbnNmb3JtPSJtYXRyaXgoMSwwLDAsLTEsMTk5MCw1ODIwKSIgeG1sOnNwYWNlPSJwcmVzZXJ2ZSI+PHRzcGFuIGlkPSJ0c3BhbjYzNiIgeT0iMCIgeD0iMCAxNDQuNjQxMDIgMjg5LjI4MjA0IDM3Mi4wNjQwMyA1MTYuNzA1MDgiPjE0LjMyPC90c3Bhbj48L3RleHQ+JiN4YTsgICAgICAgIDxwYXRoIGlkPSJwYXRoNjQwIiBzdHlsZT0iZmlsbDpub25lO3N0cm9rZTojMDAwMDAwO3N0cm9rZS13aWR0aDoxMjtzdHJva2UtbGluZWNhcDpyb3VuZDtzdHJva2UtbGluZWpvaW46cm91bmQ7c3Ryb2tlLW1pdGVybGltaXQ6MTA7c3Ryb2tlLWRhc2hhcnJheTpub25lO3N0cm9rZS1vcGFjaXR5OjEiIGQ9Ik0gNDEyNiw2MDM1IDI5OTYsNTIzNCIvPiYjeGE7ICAgICAgICA8dGV4dCBpZD0idGV4dDY0NCIgc3R5bGU9ImZvbnQtdmFyaWFudDpub3JtYWw7Zm9udC13ZWlnaHQ6bm9ybWFsO2ZvbnQtc2l6ZToyMjcuNDIzcHg7Zm9udC1mYW1pbHk6VmVyZGFuYTstaW5rc2NhcGUtZm9udC1zcGVjaWZpY2F0aW9uOlZlcmRhbmE7d3JpdGluZy1tb2RlOmxyLXRiO2ZpbGw6IzAwMDAwMDtmaWxsLW9wYWNpdHk6MTtmaWxsLXJ1bGU6bm9uemVybztzdHJva2U6bm9uZSIgdHJhbnNmb3JtPSJtYXRyaXgoMC44MTU1NCwwLjU3ODcsMC41Nzg3LC0wLjgxNTU0LDM0OTIsNTY3MikiIHhtbDpzcGFjZT0icHJlc2VydmUiPjx0c3BhbiBpZD0idHNwYW42NDIiIHk9IjAiIHg9IjAgMTU4LjA1ODkxIDMwMi42OTk4OSA0NDcuMzQwODUgNTMwLjEyMjgiPlIxMy44PC90c3Bhbj48L3RleHQ+JiN4YTsgICAgICAgIDxwYXRoIGlkPSJwYXRoNjQ2IiBzdHlsZT0iZmlsbDpub25lO3N0cm9rZTojMDAwMDAwO3N0cm9rZS13aWR0aDoxMjtzdHJva2UtbGluZWNhcDpyb3VuZDtzdHJva2UtbGluZWpvaW46cm91bmQ7c3Ryb2tlLW1pdGVybGltaXQ6MTA7c3Ryb2tlLWRhc2hhcnJheTpub25lO3N0cm9rZS1vcGFjaXR5OjEiIGQ9Im0gMjMyOSw0NzYxIDUzMiwzNzciLz4mI3hhOyAgICAgICAgPGcgaWQ9Imc2NDgiPiYjeGE7ICAgICAgICAgIDxwYXRoIGlkPSJwYXRoNjUwIiBzdHlsZT0iZmlsbDojMDAwMDAwO2ZpbGwtb3BhY2l0eToxO2ZpbGwtcnVsZTpub256ZXJvO3N0cm9rZTojMDAwMDAwO3N0cm9rZS13aWR0aDoxMi41O3N0cm9rZS1saW5lY2FwOnJvdW5kO3N0cm9rZS1saW5lam9pbjptaXRlcjtzdHJva2UtbWl0ZXJsaW1pdDoxMDtzdHJva2UtZGFzaGFycmF5Om5vbmU7c3Ryb2tlLW9wYWNpdHk6MSIgZD0ibSAyOTgwLDUyNTYgMzIsLTQ1IC0xNTEsLTczIHoiLz4mI3hhOyAgICAgICAgPC9nPiYjeGE7ICAgICAgICA8cGF0aCBpZD0icGF0aDY1MiIgc3R5bGU9ImZpbGw6bm9uZTtzdHJva2U6IzAwMDAwMDtzdHJva2Utd2lkdGg6MTI7c3Ryb2tlLWxpbmVjYXA6cm91bmQ7c3Ryb2tlLWxpbmVqb2luOnJvdW5kO3N0cm9rZS1taXRlcmxpbWl0OjEwO3N0cm9rZS1kYXNoYXJyYXk6bm9uZTtzdHJva2Utb3BhY2l0eToxIiBkPSJtIDQxODUsNDc1NSAtNjk4LDIiLz4mI3hhOyAgICAgICAgPHRleHQgaWQ9InRleHQ2NTYiIHN0eWxlPSJmb250LXZhcmlhbnQ6bm9ybWFsO2ZvbnQtd2VpZ2h0Om5vcm1hbDtmb250LXNpemU6MjI3LjQyM3B4O2ZvbnQtZmFtaWx5OlZlcmRhbmE7LWlua3NjYXBlLWZvbnQtc3BlY2lmaWNhdGlvbjpWZXJkYW5hO3dyaXRpbmctbW9kZTpsci10YjtmaWxsOiMwMDAwMDA7ZmlsbC1vcGFjaXR5OjE7ZmlsbC1ydWxlOm5vbnplcm87c3Ryb2tlOm5vbmUiIHRyYW5zZm9ybT0ibWF0cml4KDAuOTk5OTksLTAuMDA0NTEsLTAuMDA0NTEsLTAuOTk5OTksMzY5Niw0ODIzKSIgeG1sOnNwYWNlPSJwcmVzZXJ2ZSI+PHRzcGFuIGlkPSJ0c3BhbjY1NCIgeT0iMCIgeD0iMCAxNTguMDU5MDEgMzAyLjcwMDA3Ij5SMjE8L3RzcGFuPjwvdGV4dD4mI3hhOyAgICAgICAgPHBhdGggaWQ9InBhdGg2NTgiIHN0eWxlPSJmaWxsOm5vbmU7c3Ryb2tlOiMwMDAwMDA7c3Ryb2tlLXdpZHRoOjEyO3N0cm9rZS1saW5lY2FwOnJvdW5kO3N0cm9rZS1saW5lam9pbjpyb3VuZDtzdHJva2UtbWl0ZXJsaW1pdDoxMDtzdHJva2UtZGFzaGFycmF5Om5vbmU7c3Ryb2tlLW9wYWNpdHk6MSIgZD0ibSAyMzI5LDQ3NjEgOTkyLC0zIi8+JiN4YTsgICAgICAgIDxnIGlkPSJnNjYwIj4mI3hhOyAgICAgICAgICA8cGF0aCBpZD0icGF0aDY2MiIgc3R5bGU9ImZpbGw6IzAwMDAwMDtmaWxsLW9wYWNpdHk6MTtmaWxsLXJ1bGU6bm9uemVybztzdHJva2U6IzAwMDAwMDtzdHJva2Utd2lkdGg6MTIuNTtzdHJva2UtbGluZWNhcDpyb3VuZDtzdHJva2UtbGluZWpvaW46bWl0ZXI7c3Ryb2tlLW1pdGVybGltaXQ6MTA7c3Ryb2tlLWRhc2hhcnJheTpub25lO3N0cm9rZS1vcGFjaXR5OjEiIGQ9Im0gMzQ4Nyw0Nzg1IC0xLC01NSAtMTY1LDI4IHoiLz4mI3hhOyAgICAgICAgPC9nPiYjeGE7ICAgICAgICA8cGF0aCBpZD0icGF0aDY2NCIgc3R5bGU9ImZpbGw6bm9uZTtzdHJva2U6IzAwMDAwMDtzdHJva2Utd2lkdGg6MTI7c3Ryb2tlLWxpbmVjYXA6cm91bmQ7c3Ryb2tlLWxpbmVqb2luOnJvdW5kO3N0cm9rZS1taXRlcmxpbWl0OjEwO3N0cm9rZS1kYXNoYXJyYXk6bm9uZTtzdHJva2Utb3BhY2l0eToxIiBkPSJtIDI4MDQsNjI1MyA0MDgsLTgxIi8+JiN4YTsgICAgICAgIDxwYXRoIGlkPSJwYXRoNjY2IiBzdHlsZT0iZmlsbDpub25lO3N0cm9rZTojMDAwMDAwO3N0cm9rZS13aWR0aDoxMjtzdHJva2UtbGluZWNhcDpyb3VuZDtzdHJva2UtbGluZWpvaW46cm91bmQ7c3Ryb2tlLW1pdGVybGltaXQ6MTA7c3Ryb2tlLWRhc2hhcnJheTpub25lO3N0cm9rZS1vcGFjaXR5OjEiIGQ9Im0gMzE2NCw4MDUzIDQwOCwtODIiLz4mI3hhOyAgICAgICAgPHBhdGggaWQ9InBhdGg2NjgiIHN0eWxlPSJmaWxsOm5vbmU7c3Ryb2tlOiMwMDAwMDA7c3Ryb2tlLXdpZHRoOjEyO3N0cm9rZS1saW5lY2FwOnJvdW5kO3N0cm9rZS1saW5lam9pbjpyb3VuZDtzdHJva2UtbWl0ZXJsaW1pdDoxMDtzdHJva2UtZGFzaGFycmF5Om5vbmU7c3Ryb2tlLW9wYWNpdHk6MSIgZD0ibSAzMTQ4LDYzNTMgMjk1LDE0NzUiLz4mI3hhOyAgICAgICAgPGcgaWQ9Imc2NzAiPiYjeGE7ICAgICAgICAgIDxwYXRoIGlkPSJwYXRoNjcyIiBzdHlsZT0iZmlsbDojMDAwMDAwO2ZpbGwtb3BhY2l0eToxO2ZpbGwtcnVsZTpub256ZXJvO3N0cm9rZTojMDAwMDAwO3N0cm9rZS13aWR0aDoxMi41O3N0cm9rZS1saW5lY2FwOnJvdW5kO3N0cm9rZS1saW5lam9pbjptaXRlcjtzdHJva2UtbWl0ZXJsaW1pdDoxMDtzdHJva2UtZGFzaGFycmF5Om5vbmU7c3Ryb2tlLW9wYWNpdHk6MSIgZD0ibSAzMTIxLDYzNTkgNTQsLTExIC02MCwtMTU3IHoiLz4mI3hhOyAgICAgICAgPC9nPiYjeGE7ICAgICAgICA8ZyBpZD0iZzY3NCI+JiN4YTsgICAgICAgICAgPHBhdGggaWQ9InBhdGg2NzYiIHN0eWxlPSJmaWxsOiMwMDAwMDA7ZmlsbC1vcGFjaXR5OjE7ZmlsbC1ydWxlOm5vbnplcm87c3Ryb2tlOiMwMDAwMDA7c3Ryb2tlLXdpZHRoOjEyLjU7c3Ryb2tlLWxpbmVjYXA6cm91bmQ7c3Ryb2tlLWxpbmVqb2luOm1pdGVyO3N0cm9rZS1taXRlcmxpbWl0OjEwO3N0cm9rZS1kYXNoYXJyYXk6bm9uZTtzdHJva2Utb3BhY2l0eToxIiBkPSJtIDM0MTYsNzgzNCA1NCwtMTEgNSwxNjggeiIvPiYjeGE7ICAgICAgICA8L2c+JiN4YTsgICAgICAgIDx0ZXh0IGlkPSJ0ZXh0NjgwIiBzdHlsZT0iZm9udC12YXJpYW50Om5vcm1hbDtmb250LXdlaWdodDpub3JtYWw7Zm9udC1zaXplOjIyNy40MjRweDtmb250LWZhbWlseTpWZXJkYW5hOy1pbmtzY2FwZS1mb250LXNwZWNpZmljYXRpb246VmVyZGFuYTt3cml0aW5nLW1vZGU6bHItdGI7ZmlsbDojMDAwMDAwO2ZpbGwtb3BhY2l0eToxO2ZpbGwtcnVsZTpub256ZXJvO3N0cm9rZTpub25lIiB0cmFuc2Zvcm09Im1hdHJpeCgwLjE5NTI4LDAuOTgwNzUsMC45ODA3NSwtMC4xOTUyOCwzMTQ0LDY2OTQpIiB4bWw6c3BhY2U9InByZXNlcnZlIj48dHNwYW4gaWQ9InRzcGFuNjc4IiB5PSIwIiB4PSIwIDE0NC42NDEzNyAyODkuMjgyNzUgMzcyLjA2NDk0IDUxNi43MDYzIj4zOC44NDwvdHNwYW4+PC90ZXh0PiYjeGE7ICAgICAgICA8cGF0aCBpZD0icGF0aDY4MiIgc3R5bGU9ImZpbGw6bm9uZTtzdHJva2U6IzAwMDAwMDtzdHJva2Utd2lkdGg6MTI7c3Ryb2tlLWxpbmVjYXA6cm91bmQ7c3Ryb2tlLWxpbmVqb2luOnJvdW5kO3N0cm9rZS1taXRlcmxpbWl0OjEwO3N0cm9rZS1kYXNoYXJyYXk6bm9uZTtzdHJva2Utb3BhY2l0eToxIiBkPSJtIDg2NTUsNzI1MyAxNTIsLTE1MSIvPiYjeGE7ICAgICAgICA8cGF0aCBpZD0icGF0aDY4NCIgc3R5bGU9ImZpbGw6bm9uZTtzdHJva2U6IzAwMDAwMDtzdHJva2Utd2lkdGg6MTI7c3Ryb2tlLWxpbmVjYXA6cm91bmQ7c3Ryb2tlLWxpbmVqb2luOnJvdW5kO3N0cm9rZS1taXRlcmxpbWl0OjEwO3N0cm9rZS1kYXNoYXJyYXk6bm9uZTtzdHJva2Utb3BhY2l0eToxIiBkPSJtIDg0NzgsNzIxOCAxOTAsLTE4OSIvPiYjeGE7ICAgICAgICA8cGF0aCBpZD0icGF0aDY4NiIgc3R5bGU9ImZpbGw6bm9uZTtzdHJva2U6IzAwMDAwMDtzdHJva2Utd2lkdGg6MTI7c3Ryb2tlLWxpbmVjYXA6cm91bmQ7c3Ryb2tlLWxpbmVqb2luOnJvdW5kO3N0cm9rZS1taXRlcmxpbWl0OjEwO3N0cm9rZS1kYXNoYXJyYXk6bm9uZTtzdHJva2Utb3BhY2l0eToxIiBkPSJtIDgzMDIsNzE4MyAxNTQsLTE1NCIvPiYjeGE7ICAgICAgICA8cGF0aCBpZD0icGF0aDY4OCIgc3R5bGU9ImZpbGw6bm9uZTtzdHJva2U6IzAwMDAwMDtzdHJva2Utd2lkdGg6MTI7c3Ryb2tlLWxpbmVjYXA6cm91bmQ7c3Ryb2tlLWxpbmVqb2luOnJvdW5kO3N0cm9rZS1taXRlcmxpbWl0OjEwO3N0cm9rZS1kYXNoYXJyYXk6bm9uZTtzdHJva2Utb3BhY2l0eToxIiBkPSJtIDgxMjUsNzE0NyAxMTgsLTExOCIvPiYjeGE7ICAgICAgICA8cGF0aCBpZD0icGF0aDY5MCIgc3R5bGU9ImZpbGw6bm9uZTtzdHJva2U6IzAwMDAwMDtzdHJva2Utd2lkdGg6MTI7c3Ryb2tlLWxpbmVjYXA6cm91bmQ7c3Ryb2tlLWxpbmVqb2luOnJvdW5kO3N0cm9rZS1taXRlcmxpbWl0OjEwO3N0cm9rZS1kYXNoYXJyYXk6bm9uZTtzdHJva2Utb3BhY2l0eToxIiBkPSJtIDc5NDgsNzExMiAyMzUsLTIzNSIvPiYjeGE7ICAgICAgICA8cGF0aCBpZD0icGF0aDY5MiIgc3R5bGU9ImZpbGw6bm9uZTtzdHJva2U6IzAwMDAwMDtzdHJva2Utd2lkdGg6MTI7c3Ryb2tlLWxpbmVjYXA6cm91bmQ7c3Ryb2tlLWxpbmVqb2luOnJvdW5kO3N0cm9rZS1taXRlcmxpbWl0OjEwO3N0cm9rZS1kYXNoYXJyYXk6bm9uZTtzdHJva2Utb3BhY2l0eToxIiBkPSJtIDc3NzEsNzA3NyAzMjMsLTMyMyIvPiYjeGE7ICAgICAgICA8cGF0aCBpZD0icGF0aDY5NCIgc3R5bGU9ImZpbGw6bm9uZTtzdHJva2U6IzAwMDAwMDtzdHJva2Utd2lkdGg6MTI7c3Ryb2tlLWxpbmVjYXA6cm91bmQ7c3Ryb2tlLWxpbmVqb2luOnJvdW5kO3N0cm9rZS1taXRlcmxpbWl0OjEwO3N0cm9rZS1kYXNoYXJyYXk6bm9uZTtzdHJva2Utb3BhY2l0eToxIiBkPSJtIDc1OTQsNzA0MSAzOTQsLTM5MyIvPiYjeGE7ICAgICAgICA8cGF0aCBpZD0icGF0aDY5NiIgc3R5bGU9ImZpbGw6bm9uZTtzdHJva2U6IzAwMDAwMDtzdHJva2Utd2lkdGg6MTI7c3Ryb2tlLWxpbmVjYXA6cm91bmQ7c3Ryb2tlLWxpbmVqb2luOnJvdW5kO3N0cm9rZS1taXRlcmxpbWl0OjEwO3N0cm9rZS1kYXNoYXJyYXk6bm9uZTtzdHJva2Utb3BhY2l0eToxIiBkPSJtIDg1ODAsNjA1NSAyMjcsLTIyNiIvPiYjeGE7ICAgICAgICA8cGF0aCBpZD0icGF0aDY5OCIgc3R5bGU9ImZpbGw6bm9uZTtzdHJva2U6IzAwMDAwMDtzdHJva2Utd2lkdGg6MTI7c3Ryb2tlLWxpbmVjYXA6cm91bmQ7c3Ryb2tlLWxpbmVqb2luOnJvdW5kO3N0cm9rZS1taXRlcmxpbWl0OjEwO3N0cm9rZS1kYXNoYXJyYXk6bm9uZTtzdHJva2Utb3BhY2l0eToxIiBkPSJtIDc0MTgsNzAwNiA0NjIsLTQ2MiIvPiYjeGE7ICAgICAgICA8cGF0aCBpZD0icGF0aDcwMCIgc3R5bGU9ImZpbGw6bm9uZTtzdHJva2U6IzAwMDAwMDtzdHJva2Utd2lkdGg6MTI7c3Ryb2tlLWxpbmVjYXA6cm91bmQ7c3Ryb2tlLWxpbmVqb2luOnJvdW5kO3N0cm9rZS1taXRlcmxpbWl0OjEwO3N0cm9rZS1kYXNoYXJyYXk6bm9uZTtzdHJva2Utb3BhY2l0eToxIiBkPSJtIDgzNjgsNjA1NSAzNzcsLTM3NiIvPiYjeGE7ICAgICAgICA8cGF0aCBpZD0icGF0aDcwMiIgc3R5bGU9ImZpbGw6bm9uZTtzdHJva2U6IzAwMDAwMDtzdHJva2Utd2lkdGg6MTI7c3Ryb2tlLWxpbmVjYXA6cm91bmQ7c3Ryb2tlLWxpbmVqb2luOnJvdW5kO3N0cm9rZS1taXRlcmxpbWl0OjEwO3N0cm9rZS1kYXNoYXJyYXk6bm9uZTtzdHJva2Utb3BhY2l0eToxIiBkPSJtIDcyNDEsNjk3MSA1MzAsLTUzMSIvPiYjeGE7ICAgICAgICA8cGF0aCBpZD0icGF0aDcwNCIgc3R5bGU9ImZpbGw6bm9uZTtzdHJva2U6IzAwMDAwMDtzdHJva2Utd2lkdGg6MTI7c3Ryb2tlLWxpbmVjYXA6cm91bmQ7c3Ryb2tlLWxpbmVqb2luOnJvdW5kO3N0cm9rZS1taXRlcmxpbWl0OjEwO3N0cm9rZS1kYXNoYXJyYXk6bm9uZTtzdHJva2Utb3BhY2l0eToxIiBkPSJtIDgwNTYsNjE1NiA0NzgsLTQ3OSIvPiYjeGE7ICAgICAgICA8cGF0aCBpZD0icGF0aDcwNiIgc3R5bGU9ImZpbGw6bm9uZTtzdHJva2U6IzAwMDAwMDtzdHJva2Utd2lkdGg6MTI7c3Ryb2tlLWxpbmVjYXA6cm91bmQ7c3Ryb2tlLWxpbmVqb2luOnJvdW5kO3N0cm9rZS1taXRlcmxpbWl0OjEwO3N0cm9rZS1kYXNoYXJyYXk6bm9uZTtzdHJva2Utb3BhY2l0eToxIiBkPSJtIDcwNzcsNjkyMiA1ODQsLTU4NCIvPiYjeGE7ICAgICAgICA8cGF0aCBpZD0icGF0aDcwOCIgc3R5bGU9ImZpbGw6bm9uZTtzdHJva2U6IzAwMDAwMDtzdHJva2Utd2lkdGg6MTI7c3Ryb2tlLWxpbmVjYXA6cm91bmQ7c3Ryb2tlLWxpbmVqb2luOnJvdW5kO3N0cm9rZS1taXRlcmxpbWl0OjEwO3N0cm9rZS1kYXNoYXJyYXk6bm9uZTtzdHJva2Utb3BhY2l0eToxIiBkPSJtIDc5NDYsNjA1NCAzNzYsLTM3NyIvPiYjeGE7ICAgICAgICA8cGF0aCBpZD0icGF0aDcxMCIgc3R5bGU9ImZpbGw6bm9uZTtzdHJva2U6IzAwMDAwMDtzdHJva2Utd2lkdGg6MTI7c3Ryb2tlLWxpbmVjYXA6cm91bmQ7c3Ryb2tlLWxpbmVqb2luOnJvdW5kO3N0cm9rZS1taXRlcmxpbWl0OjEwO3N0cm9rZS1kYXNoYXJyYXk6bm9uZTtzdHJva2Utb3BhY2l0eToxIiBkPSJtIDY5NjEsNjgyNyA1ODksLTU5MCIvPiYjeGE7ICAgICAgICA8cGF0aCBpZD0icGF0aDcxMiIgc3R5bGU9ImZpbGw6bm9uZTtzdHJva2U6IzAwMDAwMDtzdHJva2Utd2lkdGg6MTI7c3Ryb2tlLWxpbmVjYXA6cm91bmQ7c3Ryb2tlLWxpbmVqb2luOnJvdW5kO3N0cm9rZS1taXRlcmxpbWl0OjEwO3N0cm9rZS1kYXNoYXJyYXk6bm9uZTtzdHJva2Utb3BhY2l0eToxIiBkPSJtIDc4MzQsNTk1MyAzNDksLTM0OSIvPiYjeGE7ICAgICAgICA8cGF0aCBpZD0icGF0aDcxNCIgc3R5bGU9ImZpbGw6bm9uZTtzdHJva2U6IzAwMDAwMDtzdHJva2Utd2lkdGg6MTI7c3Ryb2tlLWxpbmVjYXA6cm91bmQ7c3Ryb2tlLWxpbmVqb2luOnJvdW5kO3N0cm9rZS1taXRlcmxpbWl0OjEwO3N0cm9rZS1kYXNoYXJyYXk6bm9uZTtzdHJva2Utb3BhY2l0eToxIiBkPSJtIDY4ODgsNjY4NyA1NDksLTU0OSIvPiYjeGE7ICAgICAgICA8cGF0aCBpZD0icGF0aDcxNiIgc3R5bGU9ImZpbGw6bm9uZTtzdHJva2U6IzAwMDAwMDtzdHJva2Utd2lkdGg6MTI7c3Ryb2tlLWxpbmVjYXA6cm91bmQ7c3Ryb2tlLWxpbmVqb2luOnJvdW5kO3N0cm9rZS1taXRlcmxpbWl0OjEwO3N0cm9rZS1kYXNoYXJyYXk6bm9uZTtzdHJva2Utb3BhY2l0eToxIiBkPSJtIDc3MjEsNTg1NCAzOTYsLTM5NiIvPiYjeGE7ICAgICAgICA8cGF0aCBpZD0icGF0aDcxOCIgc3R5bGU9ImZpbGw6bm9uZTtzdHJva2U6IzAwMDAwMDtzdHJva2Utd2lkdGg6MTI7c3Ryb2tlLWxpbmVjYXA6cm91bmQ7c3Ryb2tlLWxpbmVqb2luOnJvdW5kO3N0cm9rZS1taXRlcmxpbWl0OjEwO3N0cm9rZS1kYXNoYXJyYXk6bm9uZTtzdHJva2Utb3BhY2l0eToxIiBkPSJtIDY4NTksNjUwMyA0NjMsLTQ2MiIvPiYjeGE7ICAgICAgICA8cGF0aCBpZD0icGF0aDcyMCIgc3R5bGU9ImZpbGw6bm9uZTtzdHJva2U6IzAwMDAwMDtzdHJva2Utd2lkdGg6MTI7c3Ryb2tlLWxpbmVjYXA6cm91bmQ7c3Ryb2tlLWxpbmVqb2luOnJvdW5kO3N0cm9rZS1taXRlcmxpbWl0OjEwO3N0cm9rZS1kYXNoYXJyYXk6bm9uZTtzdHJva2Utb3BhY2l0eToxIiBkPSJtIDg2NTksNDcwNCAxNDgsLTE0OCIvPiYjeGE7ICAgICAgICA8cGF0aCBpZD0icGF0aDcyMiIgc3R5bGU9ImZpbGw6bm9uZTtzdHJva2U6IzAwMDAwMDtzdHJva2Utd2lkdGg6MTI7c3Ryb2tlLWxpbmVjYXA6cm91bmQ7c3Ryb2tlLWxpbmVqb2luOnJvdW5kO3N0cm9rZS1taXRlcmxpbWl0OjEwO3N0cm9rZS1kYXNoYXJyYXk6bm9uZTtzdHJva2Utb3BhY2l0eToxIiBkPSJtIDc2MDcsNTc1NiAzMzksLTMzOSIvPiYjeGE7ICAgICAgICA8cGF0aCBpZD0icGF0aDcyNCIgc3R5bGU9ImZpbGw6bm9uZTtzdHJva2U6IzAwMDAwMDtzdHJva2Utd2lkdGg6MTI7c3Ryb2tlLWxpbmVjYXA6cm91bmQ7c3Ryb2tlLWxpbmVqb2luOnJvdW5kO3N0cm9rZS1taXRlcmxpbWl0OjEwO3N0cm9rZS1kYXNoYXJyYXk6bm9uZTtzdHJva2Utb3BhY2l0eToxIiBkPSJtIDY4MzMsNjMxOCAzNzIsLTM3MiIvPiYjeGE7ICAgICAgICA8cGF0aCBpZD0icGF0aDcyNiIgc3R5bGU9ImZpbGw6bm9uZTtzdHJva2U6IzAwMDAwMDtzdHJva2Utd2lkdGg6MTI7c3Ryb2tlLWxpbmVjYXA6cm91bmQ7c3Ryb2tlLWxpbmVqb2luOnJvdW5kO3N0cm9rZS1taXRlcmxpbWl0OjEwO3N0cm9rZS1kYXNoYXJyYXk6bm9uZTtzdHJva2Utb3BhY2l0eToxIiBkPSJtIDg0NDcsNDcwNCAyNTUsLTI1NSIvPiYjeGE7ICAgICAgICA8cGF0aCBpZD0icGF0aDcyOCIgc3R5bGU9ImZpbGw6bm9uZTtzdHJva2U6IzAwMDAwMDtzdHJva2Utd2lkdGg6MTI7c3Ryb2tlLWxpbmVjYXA6cm91bmQ7c3Ryb2tlLWxpbmVqb2luOnJvdW5kO3N0cm9rZS1taXRlcmxpbWl0OjEwO3N0cm9rZS1kYXNoYXJyYXk6bm9uZTtzdHJva2Utb3BhY2l0eToxIiBkPSJtIDc0OTAsNTY2MSAyODIsLTI4MiIvPiYjeGE7ICAgICAgICA8cGF0aCBpZD0icGF0aDczMCIgc3R5bGU9ImZpbGw6bm9uZTtzdHJva2U6IzAwMDAwMDtzdHJva2Utd2lkdGg6MTI7c3Ryb2tlLWxpbmVjYXA6cm91bmQ7c3Ryb2tlLWxpbmVqb2luOnJvdW5kO3N0cm9rZS1taXRlcmxpbWl0OjEwO3N0cm9rZS1kYXNoYXJyYXk6bm9uZTtzdHJva2Utb3BhY2l0eToxIiBkPSJtIDY4MDYsNjEzMiAyNzksLTI3OSIvPiYjeGE7ICAgICAgICA8cGF0aCBpZD0icGF0aDczMiIgc3R5bGU9ImZpbGw6bm9uZTtzdHJva2U6IzAwMDAwMDtzdHJva2Utd2lkdGg6MTI7c3Ryb2tlLWxpbmVjYXA6cm91bmQ7c3Ryb2tlLWxpbmVqb2luOnJvdW5kO3N0cm9rZS1taXRlcmxpbWl0OjEwO3N0cm9rZS1kYXNoYXJyYXk6bm9uZTtzdHJva2Utb3BhY2l0eToxIiBkPSJtIDgyMzQsNDcwNCAyNTYsLTI1NSIvPiYjeGE7ICAgICAgICA8cGF0aCBpZD0icGF0aDczNCIgc3R5bGU9ImZpbGw6bm9uZTtzdHJva2U6IzAwMDAwMDtzdHJva2Utd2lkdGg6MTI7c3Ryb2tlLWxpbmVjYXA6cm91bmQ7c3Ryb2tlLWxpbmVqb2luOnJvdW5kO3N0cm9rZS1taXRlcmxpbWl0OjEwO3N0cm9rZS1kYXNoYXJyYXk6bm9uZTtzdHJva2Utb3BhY2l0eToxIiBkPSJtIDczNzIsNTU2NyAyMjMsLTIyNCIvPiYjeGE7ICAgICAgICA8cGF0aCBpZD0icGF0aDczNiIgc3R5bGU9ImZpbGw6bm9uZTtzdHJva2U6IzAwMDAwMDtzdHJva2Utd2lkdGg6MTI7c3Ryb2tlLWxpbmVjYXA6cm91bmQ7c3Ryb2tlLWxpbmVqb2luOnJvdW5kO3N0cm9rZS1taXRlcmxpbWl0OjEwO3N0cm9rZS1kYXNoYXJyYXk6bm9uZTtzdHJva2Utb3BhY2l0eToxIiBkPSJtIDgwNjAsNDg3OSAxMjMsLTEyMyIvPiYjeGE7ICAgICAgICA8cGF0aCBpZD0icGF0aDczOCIgc3R5bGU9ImZpbGw6bm9uZTtzdHJva2U6IzAwMDAwMDtzdHJva2Utd2lkdGg6MTI7c3Ryb2tlLWxpbmVjYXA6cm91bmQ7c3Ryb2tlLWxpbmVqb2luOnJvdW5kO3N0cm9rZS1taXRlcmxpbWl0OjEwO3N0cm9rZS1kYXNoYXJyYXk6bm9uZTtzdHJva2Utb3BhY2l0eToxIiBkPSJtIDY3ODAsNTk0NyAxODMsLTE4NCIvPiYjeGE7ICAgICAgICA8cGF0aCBpZD0icGF0aDc0MCIgc3R5bGU9ImZpbGw6bm9uZTtzdHJva2U6IzAwMDAwMDtzdHJva2Utd2lkdGg6MTI7c3Ryb2tlLWxpbmVjYXA6cm91bmQ7c3Ryb2tlLWxpbmVqb2luOnJvdW5kO3N0cm9rZS1taXRlcmxpbWl0OjEwO3N0cm9rZS1kYXNoYXJyYXk6bm9uZTtzdHJva2Utb3BhY2l0eToxIiBkPSJtIDc4ODYsNDg0MCAzOTEsLTM5MSIvPiYjeGE7ICAgICAgICA8cGF0aCBpZD0icGF0aDc0MiIgc3R5bGU9ImZpbGw6bm9uZTtzdHJva2U6IzAwMDAwMDtzdHJva2Utd2lkdGg6MTI7c3Ryb2tlLWxpbmVjYXA6cm91bmQ7c3Ryb2tlLWxpbmVqb2luOnJvdW5kO3N0cm9rZS1taXRlcmxpbWl0OjEwO3N0cm9rZS1kYXNoYXJyYXk6bm9uZTtzdHJva2Utb3BhY2l0eToxIiBkPSJtIDcyNTAsNTQ3NiAxNjUsLTE2NCIvPiYjeGE7ICAgICAgICA8cGF0aCBpZD0icGF0aDc0NCIgc3R5bGU9ImZpbGw6bm9uZTtzdHJva2U6IzAwMDAwMDtzdHJva2Utd2lkdGg6MTI7c3Ryb2tlLWxpbmVjYXA6cm91bmQ7c3Ryb2tlLWxpbmVqb2luOnJvdW5kO3N0cm9rZS1taXRlcmxpbWl0OjEwO3N0cm9rZS1kYXNoYXJyYXk6bm9uZTtzdHJva2Utb3BhY2l0eToxIiBkPSJtIDY3MzMsNTc4MiAxMDUsLTEwNiIvPiYjeGE7ICAgICAgICA8cGF0aCBpZD0icGF0aDc0NiIgc3R5bGU9ImZpbGw6bm9uZTtzdHJva2U6IzAwMDAwMDtzdHJva2Utd2lkdGg6MTI7c3Ryb2tlLWxpbmVjYXA6cm91bmQ7c3Ryb2tlLWxpbmVqb2luOnJvdW5kO3N0cm9rZS1taXRlcmxpbWl0OjEwO3N0cm9rZS1kYXNoYXJyYXk6bm9uZTtzdHJva2Utb3BhY2l0eToxIiBkPSJtIDc3MDksNDgwNSAzNTYsLTM1NiIvPiYjeGE7ICAgICAgICA8cGF0aCBpZD0icGF0aDc0OCIgc3R5bGU9ImZpbGw6bm9uZTtzdHJva2U6IzAwMDAwMDtzdHJva2Utd2lkdGg6MTI7c3Ryb2tlLWxpbmVjYXA6cm91bmQ7c3Ryb2tlLWxpbmVqb2luOnJvdW5kO3N0cm9rZS1taXRlcmxpbWl0OjEwO3N0cm9rZS1kYXNoYXJyYXk6bm9uZTtzdHJva2Utb3BhY2l0eToxIiBkPSJtIDcxMjYsNTM4OCAxMDQsLTEwMyIvPiYjeGE7ICAgICAgICA8cGF0aCBpZD0icGF0aDc1MCIgc3R5bGU9ImZpbGw6bm9uZTtzdHJva2U6IzAwMDAwMDtzdHJva2Utd2lkdGg6MTI7c3Ryb2tlLWxpbmVjYXA6cm91bmQ7c3Ryb2tlLWxpbmVqb2luOnJvdW5kO3N0cm9rZS1taXRlcmxpbWl0OjEwO3N0cm9rZS1kYXNoYXJyYXk6bm9uZTtzdHJva2Utb3BhY2l0eToxIiBkPSJtIDY2MzYsNTY2NiA3MywtNzMiLz4mI3hhOyAgICAgICAgPHBhdGggaWQ9InBhdGg3NTIiIHN0eWxlPSJmaWxsOm5vbmU7c3Ryb2tlOiMwMDAwMDA7c3Ryb2tlLXdpZHRoOjEyO3N0cm9rZS1saW5lY2FwOnJvdW5kO3N0cm9rZS1saW5lam9pbjpyb3VuZDtzdHJva2UtbWl0ZXJsaW1pdDoxMDtzdHJva2UtZGFzaGFycmF5Om5vbmU7c3Ryb2tlLW9wYWNpdHk6MSIgZD0ibSA3NTI5LDQ3NzMgMzI0LC0zMjQiLz4mI3hhOyAgICAgICAgPHBhdGggaWQ9InBhdGg3NTQiIHN0eWxlPSJmaWxsOm5vbmU7c3Ryb2tlOiMwMDAwMDA7c3Ryb2tlLXdpZHRoOjEyO3N0cm9rZS1saW5lY2FwOnJvdW5kO3N0cm9rZS1saW5lam9pbjpyb3VuZDtzdHJva2UtbWl0ZXJsaW1pdDoxMDtzdHJva2UtZGFzaGFycmF5Om5vbmU7c3Ryb2tlLW9wYWNpdHk6MSIgZD0ibSA2OTk5LDUzMDQgNDEsLTQxIi8+JiN4YTsgICAgICAgIDxwYXRoIGlkPSJwYXRoNzU2IiBzdHlsZT0iZmlsbDpub25lO3N0cm9rZTojMDAwMDAwO3N0cm9rZS13aWR0aDoxMjtzdHJva2UtbGluZWNhcDpyb3VuZDtzdHJva2UtbGluZWpvaW46cm91bmQ7c3Ryb2tlLW1pdGVybGltaXQ6MTA7c3Ryb2tlLWRhc2hhcnJheTpub25lO3N0cm9rZS1vcGFjaXR5OjEiIGQ9Im0gNjQ5NSw1NTk1IDgwLC04MCIvPiYjeGE7ICAgICAgICA8cGF0aCBpZD0icGF0aDc1OCIgc3R5bGU9ImZpbGw6bm9uZTtzdHJva2U6IzAwMDAwMDtzdHJva2Utd2lkdGg6MTI7c3Ryb2tlLWxpbmVjYXA6cm91bmQ7c3Ryb2tlLWxpbmVqb2luOnJvdW5kO3N0cm9rZS1taXRlcmxpbWl0OjEwO3N0cm9rZS1kYXNoYXJyYXk6bm9uZTtzdHJva2Utb3BhY2l0eToxIiBkPSJtIDczNDUsNDc0NSAyOTYsLTI5NiIvPiYjeGE7ICAgICAgICA8cGF0aCBpZD0icGF0aDc2MCIgc3R5bGU9ImZpbGw6bm9uZTtzdHJva2U6IzAwMDAwMDtzdHJva2Utd2lkdGg6MTI7c3Ryb2tlLWxpbmVjYXA6cm91bmQ7c3Ryb2tlLWxpbmVqb2luOnJvdW5kO3N0cm9rZS1taXRlcmxpbWl0OjEwO3N0cm9rZS1kYXNoYXJyYXk6bm9uZTtzdHJva2Utb3BhY2l0eToxIiBkPSJtIDYyOTUsNTU4MyA0NywtNDciLz4mI3hhOyAgICAgICAgPHBhdGggaWQ9InBhdGg3NjIiIHN0eWxlPSJmaWxsOm5vbmU7c3Ryb2tlOiMwMDAwMDA7c3Ryb2tlLXdpZHRoOjEyO3N0cm9rZS1saW5lY2FwOnJvdW5kO3N0cm9rZS1saW5lam9pbjpyb3VuZDtzdHJva2UtbWl0ZXJsaW1pdDoxMDtzdHJva2UtZGFzaGFycmF5Om5vbmU7c3Ryb2tlLW9wYWNpdHk6MSIgZD0ibSA3MTU2LDQ3MjIgMjczLC0yNzMiLz4mI3hhOyAgICAgICAgPHBhdGggaWQ9InBhdGg3NjQiIHN0eWxlPSJmaWxsOm5vbmU7c3Ryb2tlOiMwMDAwMDA7c3Ryb2tlLXdpZHRoOjEyO3N0cm9rZS1saW5lY2FwOnJvdW5kO3N0cm9rZS1saW5lam9pbjpyb3VuZDtzdHJva2UtbWl0ZXJsaW1pdDoxMDtzdHJva2UtZGFzaGFycmF5Om5vbmU7c3Ryb2tlLW9wYWNpdHk6MSIgZD0ibSA2MDk0LDU1NzIgMzYsLTM2Ii8+JiN4YTsgICAgICAgIDxwYXRoIGlkPSJwYXRoNzY2IiBzdHlsZT0iZmlsbDpub25lO3N0cm9rZTojMDAwMDAwO3N0cm9rZS13aWR0aDoxMjtzdHJva2UtbGluZWNhcDpyb3VuZDtzdHJva2UtbGluZWpvaW46cm91bmQ7c3Ryb2tlLW1pdGVybGltaXQ6MTA7c3Ryb2tlLWRhc2hhcnJheTpub25lO3N0cm9rZS1vcGFjaXR5OjEiIGQ9Im0gNjk2Miw0NzA0IDI1NSwtMjU1Ii8+JiN4YTsgICAgICAgIDxwYXRoIGlkPSJwYXRoNzY4IiBzdHlsZT0iZmlsbDpub25lO3N0cm9rZTojMDAwMDAwO3N0cm9rZS13aWR0aDoxMjtzdHJva2UtbGluZWNhcDpyb3VuZDtzdHJva2UtbGluZWpvaW46cm91bmQ7c3Ryb2tlLW1pdGVybGltaXQ6MTA7c3Ryb2tlLWRhc2hhcnJheTpub25lO3N0cm9rZS1vcGFjaXR5OjEiIGQ9Im0gNjc1OSw0Njk1IDI0NiwtMjQ2Ii8+JiN4YTsgICAgICAgIDxwYXRoIGlkPSJwYXRoNzcwIiBzdHlsZT0iZmlsbDpub25lO3N0cm9rZTojMDAwMDAwO3N0cm9rZS13aWR0aDoxMjtzdHJva2UtbGluZWNhcDpyb3VuZDtzdHJva2UtbGluZWpvaW46cm91bmQ7c3Ryb2tlLW1pdGVybGltaXQ6MTA7c3Ryb2tlLWRhc2hhcnJheTpub25lO3N0cm9rZS1vcGFjaXR5OjEiIGQ9Im0gNjU0Niw0Njk1IDI0NywtMjQ2Ii8+JiN4YTsgICAgICAgIDxwYXRoIGlkPSJwYXRoNzcyIiBzdHlsZT0iZmlsbDpub25lO3N0cm9rZTojMDAwMDAwO3N0cm9rZS13aWR0aDoxMjtzdHJva2UtbGluZWNhcDpyb3VuZDtzdHJva2UtbGluZWpvaW46cm91bmQ7c3Ryb2tlLW1pdGVybGltaXQ6MTA7c3Ryb2tlLWRhc2hhcnJheTpub25lO3N0cm9rZS1vcGFjaXR5OjEiIGQ9Im0gNjM0NCw0Njg1IDIzNiwtMjM2Ii8+JiN4YTsgICAgICAgIDxwYXRoIGlkPSJwYXRoNzc0IiBzdHlsZT0iZmlsbDpub25lO3N0cm9rZTojMDAwMDAwO3N0cm9rZS13aWR0aDoxMjtzdHJva2UtbGluZWNhcDpyb3VuZDtzdHJva2UtbGluZWpvaW46cm91bmQ7c3Ryb2tlLW1pdGVybGltaXQ6MTA7c3Ryb2tlLWRhc2hhcnJheTpub25lO3N0cm9rZS1vcGFjaXR5OjEiIGQ9Im0gNjEzMiw0Njg1IDIzNiwtMjM2Ii8+JiN4YTsgICAgICAgIDxwYXRoIGlkPSJwYXRoNzc2IiBzdHlsZT0iZmlsbDpub25lO3N0cm9rZTojMDAwMDAwO3N0cm9rZS13aWR0aDoxMjtzdHJva2UtbGluZWNhcDpyb3VuZDtzdHJva2UtbGluZWpvaW46cm91bmQ7c3Ryb2tlLW1pdGVybGltaXQ6MTA7c3Ryb2tlLWRhc2hhcnJheTpub25lO3N0cm9rZS1vcGFjaXR5OjEiIGQ9Im0gNjA1Nyw0NTQ4IDk5LC05OSIvPiYjeGE7ICAgICAgICA8cGF0aCBpZD0icGF0aDc3OCIgc3R5bGU9ImZpbGw6bm9uZTtzdHJva2U6IzAwMDAwMDtzdHJva2Utd2lkdGg6MTI7c3Ryb2tlLWxpbmVjYXA6cm91bmQ7c3Ryb2tlLWxpbmVqb2luOnJvdW5kO3N0cm9rZS1taXRlcmxpbWl0OjEwO3N0cm9rZS1kYXNoYXJyYXk6bm9uZTtzdHJva2Utb3BhY2l0eToxIiBkPSJtIDQ1OTgsNTU4MyAxNTUsLTE1NSIvPiYjeGE7ICAgICAgICA8cGF0aCBpZD0icGF0aDc4MCIgc3R5bGU9ImZpbGw6bm9uZTtzdHJva2U6IzAwMDAwMDtzdHJva2Utd2lkdGg6MTI7c3Ryb2tlLWxpbmVjYXA6cm91bmQ7c3Ryb2tlLWxpbmVqb2luOnJvdW5kO3N0cm9rZS1taXRlcmxpbWl0OjEwO3N0cm9rZS1kYXNoYXJyYXk6bm9uZTtzdHJva2Utb3BhY2l0eToxIiBkPSJtIDQ0MTQsNTU1NSAzMzksLTMzOSIvPiYjeGE7ICAgICAgICA8cGF0aCBpZD0icGF0aDc4MiIgc3R5bGU9ImZpbGw6bm9uZTtzdHJva2U6IzAwMDAwMDtzdHJva2Utd2lkdGg6MTI7c3Ryb2tlLWxpbmVjYXA6cm91bmQ7c3Ryb2tlLWxpbmVqb2luOnJvdW5kO3N0cm9rZS1taXRlcmxpbWl0OjEwO3N0cm9rZS1kYXNoYXJyYXk6bm9uZTtzdHJva2Utb3BhY2l0eToxIiBkPSJtIDQ0MTMsNTM0NCAzNDAsLTM0MCIvPiYjeGE7ICAgICAgICA8cGF0aCBpZD0icGF0aDc4NCIgc3R5bGU9ImZpbGw6bm9uZTtzdHJva2U6IzAwMDAwMDtzdHJva2Utd2lkdGg6MTI7c3Ryb2tlLWxpbmVjYXA6cm91bmQ7c3Ryb2tlLWxpbmVqb2luOnJvdW5kO3N0cm9rZS1taXRlcmxpbWl0OjEwO3N0cm9rZS1kYXNoYXJyYXk6bm9uZTtzdHJva2Utb3BhY2l0eToxIiBkPSJtIDQ0MTMsNTEzMiAzNDAsLTM0MSIvPiYjeGE7ICAgICAgICA8cGF0aCBpZD0icGF0aDc4NiIgc3R5bGU9ImZpbGw6bm9uZTtzdHJva2U6IzAwMDAwMDtzdHJva2Utd2lkdGg6MTI7c3Ryb2tlLWxpbmVjYXA6cm91bmQ7c3Ryb2tlLWxpbmVqb2luOnJvdW5kO3N0cm9rZS1taXRlcmxpbWl0OjEwO3N0cm9rZS1kYXNoYXJyYXk6bm9uZTtzdHJva2Utb3BhY2l0eToxIiBkPSJtIDQ0MTMsNDkxOSAzNDAsLTM0MCIvPiYjeGE7ICAgICAgICA8cGF0aCBpZD0icGF0aDc4OCIgc3R5bGU9ImZpbGw6bm9uZTtzdHJva2U6IzAwMDAwMDtzdHJva2Utd2lkdGg6MTI7c3Ryb2tlLWxpbmVjYXA6cm91bmQ7c3Ryb2tlLWxpbmVqb2luOnJvdW5kO3N0cm9rZS1taXRlcmxpbWl0OjEwO3N0cm9rZS1kYXNoYXJyYXk6bm9uZTtzdHJva2Utb3BhY2l0eToxIiBkPSJtIDQ0MTMsNDcwNyAyNTgsLTI1OCIvPiYjeGE7ICAgICAgICA8cGF0aCBpZD0icGF0aDc5MCIgc3R5bGU9ImZpbGw6bm9uZTtzdHJva2U6IzAwMDAwMDtzdHJva2Utd2lkdGg6MTI7c3Ryb2tlLWxpbmVjYXA6cm91bmQ7c3Ryb2tlLWxpbmVqb2luOnJvdW5kO3N0cm9rZS1taXRlcmxpbWl0OjEwO3N0cm9rZS1kYXNoYXJyYXk6bm9uZTtzdHJva2Utb3BhY2l0eToxIiBkPSJtIDQ0MTMsNDQ5NSA0NiwtNDYiLz4mI3hhOyAgICAgICAgPHBhdGggaWQ9InBhdGg3OTIiIHN0eWxlPSJmaWxsOm5vbmU7c3Ryb2tlOiMwMDAwMDA7c3Ryb2tlLXdpZHRoOjI0O3N0cm9rZS1saW5lY2FwOnJvdW5kO3N0cm9rZS1saW5lam9pbjpyb3VuZDtzdHJva2UtbWl0ZXJsaW1pdDoxMDtzdHJva2UtZGFzaGFycmF5Om5vbmU7c3Ryb2tlLW9wYWNpdHk6MSIgZD0iTSAyMzI5LDgyODEgViA4MDQ0Ii8+JiN4YTsgICAgICAgIDxwYXRoIGlkPSJwYXRoNzk0IiBzdHlsZT0iZmlsbDpub25lO3N0cm9rZTojMDAwMDAwO3N0cm9rZS13aWR0aDoyNDtzdHJva2UtbGluZWNhcDpyb3VuZDtzdHJva2UtbGluZWpvaW46cm91bmQ7c3Ryb2tlLW1pdGVybGltaXQ6MTA7c3Ryb2tlLWRhc2hhcnJheTpub25lO3N0cm9rZS1vcGFjaXR5OjEiIGQ9Im0gMjMyOSwzNjUxIHYgMjM2Ii8+JiN4YTsgICAgICAgIDxwYXRoIGlkPSJwYXRoNzk2IiBzdHlsZT0iZmlsbDpub25lO3N0cm9rZTojMDAwMDAwO3N0cm9rZS13aWR0aDoxMjtzdHJva2UtbGluZWNhcDpyb3VuZDtzdHJva2UtbGluZWpvaW46cm91bmQ7c3Ryb2tlLW1pdGVybGltaXQ6MTA7c3Ryb2tlLWRhc2hhcnJheTpub25lO3N0cm9rZS1vcGFjaXR5OjEiIGQ9Ik0gMjMyOSw4MDQ0IFYgNzY1MyIvPiYjeGE7ICAgICAgICA8cGF0aCBpZD0icGF0aDc5OCIgc3R5bGU9ImZpbGw6bm9uZTtzdHJva2U6IzAwMDAwMDtzdHJva2Utd2lkdGg6MTI7c3Ryb2tlLWxpbmVjYXA6cm91bmQ7c3Ryb2tlLWxpbmVqb2luOnJvdW5kO3N0cm9rZS1taXRlcmxpbWl0OjEwO3N0cm9rZS1kYXNoYXJyYXk6bm9uZTtzdHJva2Utb3BhY2l0eToxIiBkPSJNIDIzMjksNzU0MSBWIDc0MjgiLz4mI3hhOyAgICAgICAgPHBhdGggaWQ9InBhdGg4MDAiIHN0eWxlPSJmaWxsOm5vbmU7c3Ryb2tlOiMwMDAwMDA7c3Ryb2tlLXdpZHRoOjEyO3N0cm9rZS1saW5lY2FwOnJvdW5kO3N0cm9rZS1saW5lam9pbjpyb3VuZDtzdHJva2UtbWl0ZXJsaW1pdDoxMDtzdHJva2UtZGFzaGFycmF5Om5vbmU7c3Ryb2tlLW9wYWNpdHk6MSIgZD0iTSAyMzI5LDczMTYgViA2NjQxIi8+JiN4YTsgICAgICAgIDxwYXRoIGlkPSJwYXRoODAyIiBzdHlsZT0iZmlsbDpub25lO3N0cm9rZTojMDAwMDAwO3N0cm9rZS13aWR0aDoxMjtzdHJva2UtbGluZWNhcDpyb3VuZDtzdHJva2UtbGluZWpvaW46cm91bmQ7c3Ryb2tlLW1pdGVybGltaXQ6MTA7c3Ryb2tlLWRhc2hhcnJheTpub25lO3N0cm9rZS1vcGFjaXR5OjEiIGQ9Ik0gMjMyOSw2NTI4IFYgNjQxNiIvPiYjeGE7ICAgICAgICA8cGF0aCBpZD0icGF0aDgwNCIgc3R5bGU9ImZpbGw6bm9uZTtzdHJva2U6IzAwMDAwMDtzdHJva2Utd2lkdGg6MTI7c3Ryb2tlLWxpbmVjYXA6cm91bmQ7c3Ryb2tlLWxpbmVqb2luOnJvdW5kO3N0cm9rZS1taXRlcmxpbWl0OjEwO3N0cm9rZS1kYXNoYXJyYXk6bm9uZTtzdHJva2Utb3BhY2l0eToxIiBkPSJNIDIzMjksNjMwMyBWIDU2MjgiLz4mI3hhOyAgICAgICAgPHBhdGggaWQ9InBhdGg4MDYiIHN0eWxlPSJmaWxsOm5vbmU7c3Ryb2tlOiMwMDAwMDA7c3Ryb2tlLXdpZHRoOjEyO3N0cm9rZS1saW5lY2FwOnJvdW5kO3N0cm9rZS1saW5lam9pbjpyb3VuZDtzdHJva2UtbWl0ZXJsaW1pdDoxMDtzdHJva2UtZGFzaGFycmF5Om5vbmU7c3Ryb2tlLW9wYWNpdHk6MSIgZD0iTSAyMzI5LDU1MTYgViA1NDAzIi8+JiN4YTsgICAgICAgIDxwYXRoIGlkPSJwYXRoODA4IiBzdHlsZT0iZmlsbDpub25lO3N0cm9rZTojMDAwMDAwO3N0cm9rZS13aWR0aDoxMjtzdHJva2UtbGluZWNhcDpyb3VuZDtzdHJva2UtbGluZWpvaW46cm91bmQ7c3Ryb2tlLW1pdGVybGltaXQ6MTA7c3Ryb2tlLWRhc2hhcnJheTpub25lO3N0cm9rZS1vcGFjaXR5OjEiIGQ9Ik0gMjMyOSw1MjkxIFYgNDYxNiIvPiYjeGE7ICAgICAgICA8cGF0aCBpZD0icGF0aDgxMCIgc3R5bGU9ImZpbGw6bm9uZTtzdHJva2U6IzAwMDAwMDtzdHJva2Utd2lkdGg6MTI7c3Ryb2tlLWxpbmVjYXA6cm91bmQ7c3Ryb2tlLWxpbmVqb2luOnJvdW5kO3N0cm9rZS1taXRlcmxpbWl0OjEwO3N0cm9rZS1kYXNoYXJyYXk6bm9uZTtzdHJva2Utb3BhY2l0eToxIiBkPSJNIDIzMjksNDUwMyBWIDQzOTEiLz4mI3hhOyAgICAgICAgPHBhdGggaWQ9InBhdGg4MTIiIHN0eWxlPSJmaWxsOm5vbmU7c3Ryb2tlOiMwMDAwMDA7c3Ryb2tlLXdpZHRoOjEyO3N0cm9rZS1saW5lY2FwOnJvdW5kO3N0cm9rZS1saW5lam9pbjpyb3VuZDtzdHJva2UtbWl0ZXJsaW1pdDoxMDtzdHJva2UtZGFzaGFycmF5Om5vbmU7c3Ryb2tlLW9wYWNpdHk6MSIgZD0iTSAyMzI5LDQyNzggViAzODg3Ii8+JiN4YTsgICAgICAgIDxwYXRoIGlkPSJwYXRoODE0IiBzdHlsZT0iZmlsbDpub25lO3N0cm9rZTojMDAwMDAwO3N0cm9rZS13aWR0aDoxMjtzdHJva2UtbGluZWNhcDpyb3VuZDtzdHJva2UtbGluZWpvaW46cm91bmQ7c3Ryb2tlLW1pdGVybGltaXQ6MTA7c3Ryb2tlLWRhc2hhcnJheTpub25lO3N0cm9rZS1vcGFjaXR5OjEiIGQ9Ik0gMjA5Myw4MTYzIEggMTg1NyIvPiYjeGE7ICAgICAgICA8ZyBpZD0iZzgxNiI+JiN4YTsgICAgICAgICAgPHBhdGggaWQ9InBhdGg4MTgiIHN0eWxlPSJmaWxsOiMwMDAwMDA7ZmlsbC1vcGFjaXR5OjE7ZmlsbC1ydWxlOm5vbnplcm87c3Ryb2tlOiMwMDAwMDA7c3Ryb2tlLXdpZHRoOjEyLjU7c3Ryb2tlLWxpbmVjYXA6cm91bmQ7c3Ryb2tlLWxpbmVqb2luOm1pdGVyO3N0cm9rZS1taXRlcmxpbWl0OjEwO3N0cm9rZS1kYXNoYXJyYXk6bm9uZTtzdHJva2Utb3BhY2l0eToxIiBkPSJtIDIwOTMsODIwMiAyMzYsLTM5IC0yMzYsLTQwIHoiLz4mI3hhOyAgICAgICAgPC9nPiYjeGE7ICAgICAgICA8cGF0aCBpZD0icGF0aDgyMCIgc3R5bGU9ImZpbGw6bm9uZTtzdHJva2U6IzAwMDAwMDtzdHJva2Utd2lkdGg6MTI7c3Ryb2tlLWxpbmVjYXA6cm91bmQ7c3Ryb2tlLWxpbmVqb2luOnJvdW5kO3N0cm9rZS1taXRlcmxpbWl0OjEwO3N0cm9rZS1kYXNoYXJyYXk6bm9uZTtzdHJva2Utb3BhY2l0eToxIiBkPSJNIDIwOTMsMzc2OSBIIDE4NTciLz4mI3hhOyAgICAgICAgPGcgaWQ9Imc4MjIiPiYjeGE7ICAgICAgICAgIDxwYXRoIGlkPSJwYXRoODI0IiBzdHlsZT0iZmlsbDojMDAwMDAwO2ZpbGwtb3BhY2l0eToxO2ZpbGwtcnVsZTpub256ZXJvO3N0cm9rZTojMDAwMDAwO3N0cm9rZS13aWR0aDoxMi41O3N0cm9rZS1saW5lY2FwOnJvdW5kO3N0cm9rZS1saW5lam9pbjptaXRlcjtzdHJva2UtbWl0ZXJsaW1pdDoxMDtzdHJva2UtZGFzaGFycmF5Om5vbmU7c3Ryb2tlLW9wYWNpdHk6MSIgZD0ibSAyMDkzLDM4MDggMjM2LC0zOSAtMjM2LC0zOSB6Ii8+JiN4YTsgICAgICAgIDwvZz4mI3hhOyAgICAgIDwvZz4mI3hhOyAgICA8L2c+JiN4YTsgICAgPGcgaWQ9Imc4MjYiPiYjeGE7ICAgICAgPGcgY2xpcC1wYXRoPSJ1cmwoI2NsaXBQYXRoODMyKSIgaWQ9Imc4MjgiPiYjeGE7ICAgICAgICA8dGV4dCBpZD0idGV4dDgzNiIgc3R5bGU9ImZvbnQtdmFyaWFudDpub3JtYWw7Zm9udC13ZWlnaHQ6bm9ybWFsO2ZvbnQtc2l6ZTozMjkuOTg4cHg7Zm9udC1mYW1pbHk6QXJpYWw7LWlua3NjYXBlLWZvbnQtc3BlY2lmaWNhdGlvbjpBcmlhbE1UO3dyaXRpbmctbW9kZTpsci10YjtmaWxsOiMwMDAwMDA7ZmlsbC1vcGFjaXR5OjE7ZmlsbC1ydWxlOm5vbnplcm87c3Ryb2tlOm5vbmUiIHRyYW5zZm9ybT0ibWF0cml4KDEsMCwwLC0xLDIzMjksODM3NSkiIHhtbDpzcGFjZT0icHJlc2VydmUiPjx0c3BhbiBpZD0idHNwYW44MzQiIHk9IjAiIHg9IjAiPuKAiTwvdHNwYW4+PC90ZXh0PiYjeGE7ICAgICAgPC9nPiYjeGE7ICAgIDwvZz4mI3hhOyAgICA8ZyBpZD0iZzgzOCI+JiN4YTsgICAgICA8ZyBjbGlwLXBhdGg9InVybCgjY2xpcFBhdGg4NDQpIiBpZD0iZzg0MCI+JiN4YTsgICAgICAgIDx0ZXh0IGlkPSJ0ZXh0ODQ4IiBzdHlsZT0iZm9udC12YXJpYW50Om5vcm1hbDtmb250LXdlaWdodDpub3JtYWw7Zm9udC1zaXplOjMyOS45ODhweDtmb250LWZhbWlseTpBcmlhbDstaW5rc2NhcGUtZm9udC1zcGVjaWZpY2F0aW9uOkFyaWFsTVQ7d3JpdGluZy1tb2RlOmxyLXRiO2ZpbGw6IzAwMDAwMDtmaWxsLW9wYWNpdHk6MTtmaWxsLXJ1bGU6bm9uemVybztzdHJva2U6bm9uZSIgdHJhbnNmb3JtPSJtYXRyaXgoMSwwLDAsLTEsMjMyOSwzMzIwKSIgeG1sOnNwYWNlPSJwcmVzZXJ2ZSI+PHRzcGFuIGlkPSJ0c3Bhbjg0NiIgeT0iMCIgeD0iMCI+4oCJPC90c3Bhbj48L3RleHQ+JiN4YTsgICAgICAgIDxwYXRoIGlkPSJwYXRoODUwIiBzdHlsZT0iZmlsbDpub25lO3N0cm9rZTojMDAwMDAwO3N0cm9rZS13aWR0aDoxMjtzdHJva2UtbGluZWNhcDpyb3VuZDtzdHJva2UtbGluZWpvaW46cm91bmQ7c3Ryb2tlLW1pdGVybGltaXQ6MTA7c3Ryb2tlLWRhc2hhcnJheTpub25lO3N0cm9rZS1vcGFjaXR5OjEiIGQ9Ik0gNjMyOCw1MzcwIFYgNDg1MSIvPiYjeGE7ICAgICAgICA8ZyBpZD0iZzg1MiI+JiN4YTsgICAgICAgICAgPHBhdGggaWQ9InBhdGg4NTQiIHN0eWxlPSJmaWxsOiMwMDAwMDA7ZmlsbC1vcGFjaXR5OjE7ZmlsbC1ydWxlOm5vbnplcm87c3Ryb2tlOiMwMDAwMDA7c3Ryb2tlLXdpZHRoOjEyLjU7c3Ryb2tlLWxpbmVjYXA6cm91bmQ7c3Ryb2tlLWxpbmVqb2luOm1pdGVyO3N0cm9rZS1taXRlcmxpbWl0OjEwO3N0cm9rZS1kYXNoYXJyYXk6bm9uZTtzdHJva2Utb3BhY2l0eToxIiBkPSJtIDYzMDAsNTM3MCBoIDU2IGwgLTI4LDE2NiB6Ii8+JiN4YTsgICAgICAgIDwvZz4mI3hhOyAgICAgICAgPGcgaWQ9Imc4NTYiPiYjeGE7ICAgICAgICAgIDxwYXRoIGlkPSJwYXRoODU4IiBzdHlsZT0iZmlsbDojMDAwMDAwO2ZpbGwtb3BhY2l0eToxO2ZpbGwtcnVsZTpub256ZXJvO3N0cm9rZTojMDAwMDAwO3N0cm9rZS13aWR0aDoxMi41O3N0cm9rZS1saW5lY2FwOnJvdW5kO3N0cm9rZS1saW5lam9pbjptaXRlcjtzdHJva2UtbWl0ZXJsaW1pdDoxMDtzdHJva2UtZGFzaGFycmF5Om5vbmU7c3Ryb2tlLW9wYWNpdHk6MSIgZD0ibSA2MzAwLDQ4NTEgaCA1NiBsIC0yOCwtMTY2IHoiLz4mI3hhOyAgICAgICAgPC9nPiYjeGE7ICAgICAgICA8dGV4dCBpZD0idGV4dDg2MiIgc3R5bGU9ImZvbnQtdmFyaWFudDpub3JtYWw7Zm9udC13ZWlnaHQ6bm9ybWFsO2ZvbnQtc2l6ZToyMjcuNDIzcHg7Zm9udC1mYW1pbHk6VmVyZGFuYTstaW5rc2NhcGUtZm9udC1zcGVjaWZpY2F0aW9uOlZlcmRhbmE7d3JpdGluZy1tb2RlOmxyLXRiO2ZpbGw6IzAwMDAwMDtmaWxsLW9wYWNpdHk6MTtmaWxsLXJ1bGU6bm9uemVybztzdHJva2U6bm9uZSIgdHJhbnNmb3JtPSJtYXRyaXgoMCwxLDEsMCw2MjU4LDQ4NTEpIiB4bWw6c3BhY2U9InByZXNlcnZlIj48dHNwYW4gaWQ9InRzcGFuODYwIiB5PSIwIiB4PSIwIDE0NC42NDEwMiAyODkuMjgyMDQgMzcyLjA2NDAzIj4yMi41PC90c3Bhbj48L3RleHQ+JiN4YTsgICAgICA8L2c+JiN4YTsgICAgPC9nPiYjeGE7ICA8L2c+JiN4YTs8L3N2Zz4=;" parent="6ik4fCtfQ_uQef5bXLx3-1" vertex="1">
          <mxGeometry x="39" y="39" width="748.51" height="1060" as="geometry" />
        </mxCell>
        <mxCell id="6ik4fCtfQ_uQef5bXLx3-3" value="" style="rounded=0;whiteSpace=wrap;html=1;fillColor=none;strokeWidth=1;" parent="6ik4fCtfQ_uQef5bXLx3-1" vertex="1">
          <mxGeometry x="39.37" y="39.37" width="748.03" height="1090.63" as="geometry" />
        </mxCell>
        <mxCell id="6ik4fCtfQ_uQef5bXLx3-4" value="" style="endArrow=none;html=1;rounded=0;curved=0;endSize=6;targetPerimeterSpacing=0;jumpSize=6;strokeColor=default;exitX=0.5;exitY=0.018;exitDx=0;exitDy=0;exitPerimeter=0;strokeWidth=1;" parent="6ik4fCtfQ_uQef5bXLx3-1" source="6ik4fCtfQ_uQef5bXLx3-3" edge="1">
          <mxGeometry width="50" height="50" relative="1" as="geometry">
            <mxPoint x="413.37" y="32.68" as="sourcePoint" />
            <mxPoint x="413.37" y="19.68" as="targetPoint" />
          </mxGeometry>
        </mxCell>
        <mxCell id="6ik4fCtfQ_uQef5bXLx3-5" value="" style="endArrow=none;html=1;rounded=0;entryX=0.026;entryY=0.5;entryDx=0;entryDy=0;entryPerimeter=0;strokeWidth=1;" parent="6ik4fCtfQ_uQef5bXLx3-1" target="6ik4fCtfQ_uQef5bXLx3-3" edge="1">
          <mxGeometry width="50" height="50" relative="1" as="geometry">
            <mxPoint x="19.69" y="584.67" as="sourcePoint" />
            <mxPoint x="27.69" y="584.67" as="targetPoint" />
          </mxGeometry>
        </mxCell>
        <mxCell id="6ik4fCtfQ_uQef5bXLx3-6" value="" style="endArrow=none;html=1;rounded=0;exitX=0.974;exitY=0.5;exitDx=0;exitDy=0;exitPerimeter=0;strokeWidth=1;" parent="6ik4fCtfQ_uQef5bXLx3-1" source="6ik4fCtfQ_uQef5bXLx3-3" edge="1">
          <mxGeometry width="50" height="50" relative="1" as="geometry">
            <mxPoint x="797" y="584.68" as="sourcePoint" />
            <mxPoint x="807" y="584.68" as="targetPoint" />
          </mxGeometry>
        </mxCell>
        <mxCell id="6ik4fCtfQ_uQef5bXLx3-7" value="" style="endArrow=none;html=1;rounded=0;entryX=1;entryY=0.75;entryDx=0;entryDy=0;exitX=0;exitY=0.75;exitDx=0;exitDy=0;strokeWidth=1;" parent="6ik4fCtfQ_uQef5bXLx3-1" edge="1">
          <mxGeometry width="50" height="50" relative="1" as="geometry">
            <mxPoint x="39.3" y="944.8825000000002" as="sourcePoint" />
            <mxPoint x="787.49" y="944.8825000000002" as="targetPoint" />
          </mxGeometry>
        </mxCell>
        <mxCell id="6ik4fCtfQ_uQef5bXLx3-8" value="" style="endArrow=none;html=1;rounded=0;entryX=1;entryY=0.75;entryDx=0;entryDy=0;exitX=0;exitY=0.75;exitDx=0;exitDy=0;strokeWidth=1;" parent="6ik4fCtfQ_uQef5bXLx3-1" edge="1">
          <mxGeometry width="50" height="50" relative="1" as="geometry">
            <mxPoint x="39.3" y="984.2510000000001" as="sourcePoint" />
            <mxPoint x="787.49" y="984.2510000000001" as="targetPoint" />
          </mxGeometry>
        </mxCell>
        <mxCell id="6ik4fCtfQ_uQef5bXLx3-9" value="" style="endArrow=none;html=1;rounded=0;strokeWidth=1;" parent="6ik4fCtfQ_uQef5bXLx3-1" edge="1">
          <mxGeometry width="50" height="50" relative="1" as="geometry">
            <mxPoint x="547.24" y="1130" as="sourcePoint" />
            <mxPoint x="547.24" y="944.9" as="targetPoint" />
          </mxGeometry>
        </mxCell>
        <mxCell id="6ik4fCtfQ_uQef5bXLx3-10" value="" style="endArrow=none;html=1;rounded=0;strokeWidth=1;" parent="6ik4fCtfQ_uQef5bXLx3-1" edge="1">
          <mxGeometry width="50" height="50" relative="1" as="geometry">
            <mxPoint x="307.08849999999995" y="1129.9985" as="sourcePoint" />
            <mxPoint x="307.08849999999995" y="944.9" as="targetPoint" />
          </mxGeometry>
        </mxCell>
        <mxCell id="6ik4fCtfQ_uQef5bXLx3-11" value="" style="endArrow=none;html=1;rounded=0;entryX=1;entryY=0.75;entryDx=0;entryDy=0;exitX=0;exitY=0.75;exitDx=0;exitDy=0;strokeWidth=1;" parent="6ik4fCtfQ_uQef5bXLx3-1" edge="1">
          <mxGeometry width="50" height="50" relative="1" as="geometry">
            <mxPoint x="307.1" y="1023.6195" as="sourcePoint" />
            <mxPoint x="787.5" y="1023.6195" as="targetPoint" />
          </mxGeometry>
        </mxCell>
        <mxCell id="6ik4fCtfQ_uQef5bXLx3-12" value="" style="endArrow=none;html=1;rounded=0;entryX=1;entryY=0.75;entryDx=0;entryDy=0;exitX=0;exitY=0.75;exitDx=0;exitDy=0;strokeWidth=1;" parent="6ik4fCtfQ_uQef5bXLx3-1" edge="1">
          <mxGeometry width="50" height="50" relative="1" as="geometry">
            <mxPoint x="547.2" y="1090.548" as="sourcePoint" />
            <mxPoint x="787.5" y="1090.548" as="targetPoint" />
          </mxGeometry>
        </mxCell>
        <mxCell id="6ik4fCtfQ_uQef5bXLx3-13" value="" style="endArrow=none;html=1;rounded=0;strokeWidth=1;" parent="6ik4fCtfQ_uQef5bXLx3-1" edge="1">
          <mxGeometry width="50" height="50" relative="1" as="geometry">
            <mxPoint x="586.6084999999999" y="1129.9985" as="sourcePoint" />
            <mxPoint x="586.6084999999999" y="1090.5" as="targetPoint" />
          </mxGeometry>
        </mxCell>
        <mxCell id="6ik4fCtfQ_uQef5bXLx3-14" value="" style="endArrow=none;html=1;rounded=0;strokeWidth=1;" parent="6ik4fCtfQ_uQef5bXLx3-1" edge="1">
          <mxGeometry width="50" height="50" relative="1" as="geometry">
            <mxPoint x="728.347" y="1129.9969999999998" as="sourcePoint" />
            <mxPoint x="728.347" y="1090.4985" as="targetPoint" />
          </mxGeometry>
        </mxCell>
        <mxCell id="6ik4fCtfQ_uQef5bXLx3-15" value="" style="endArrow=none;html=1;rounded=0;strokeWidth=1;" parent="6ik4fCtfQ_uQef5bXLx3-1" edge="1">
          <mxGeometry width="50" height="50" relative="1" as="geometry">
            <mxPoint x="173.22699999999986" y="984.3" as="sourcePoint" />
            <mxPoint x="173.22699999999986" y="944.8784999999999" as="targetPoint" />
          </mxGeometry>
        </mxCell>
        <mxCell id="6ik4fCtfQ_uQef5bXLx3-16" value="&lt;font style=&quot;font-size: 10px;&quot;&gt;Unit&lt;/font&gt;" style="text;html=1;align=left;verticalAlign=middle;whiteSpace=wrap;rounded=0;fillColor=none;fontStyle=0;fontFamily=Verdana;fontSize=10;" parent="6ik4fCtfQ_uQef5bXLx3-1" vertex="1">
          <mxGeometry x="41.339999999999996" y="944.88" width="25.59" height="12.29" as="geometry" />
        </mxCell>
        <mxCell id="6ik4fCtfQ_uQef5bXLx3-17" value="&lt;font style=&quot;font-size: 10px;&quot;&gt;Scale&lt;/font&gt;" style="text;html=1;align=left;verticalAlign=middle;whiteSpace=wrap;rounded=0;fontStyle=0;fontFamily=Verdana;fontSize=10;" parent="6ik4fCtfQ_uQef5bXLx3-1" vertex="1">
          <mxGeometry x="175.19849999999997" y="944.8784999999999" width="25.59" height="12.29" as="geometry" />
        </mxCell>
        <mxCell id="6ik4fCtfQ_uQef5bXLx3-18" value="&lt;font style=&quot;font-size: 10px;&quot;&gt;&lt;span style=&quot;font-size: 10px;&quot;&gt;General tolerances&lt;/span&gt;&lt;/font&gt;" style="text;html=1;align=left;verticalAlign=middle;whiteSpace=wrap;rounded=0;fontStyle=0;fontFamily=Verdana;fontSize=10;" parent="6ik4fCtfQ_uQef5bXLx3-1" vertex="1">
          <mxGeometry x="309.06" y="944.88" width="124.01" height="12.29" as="geometry" />
        </mxCell>
        <mxCell id="6ik4fCtfQ_uQef5bXLx3-19" value="&lt;font style=&quot;font-size: 10px;&quot;&gt;Material&lt;/font&gt;" style="text;html=1;align=left;verticalAlign=middle;whiteSpace=wrap;rounded=0;fontStyle=0;fontFamily=Verdana;fontSize=10;" parent="6ik4fCtfQ_uQef5bXLx3-1" vertex="1">
          <mxGeometry x="549.22" y="944.88" width="47.24" height="12.29" as="geometry" />
        </mxCell>
        <mxCell id="6ik4fCtfQ_uQef5bXLx3-20" value="&lt;font style=&quot;font-size: 10px;&quot;&gt;Created by&lt;/font&gt;" style="text;html=1;align=left;verticalAlign=middle;whiteSpace=wrap;rounded=0;fontStyle=0;fontFamily=Verdana;fontSize=10;" parent="6ik4fCtfQ_uQef5bXLx3-1" vertex="1">
          <mxGeometry x="549.22" y="984.25" width="74.79" height="12.29" as="geometry" />
        </mxCell>
        <mxCell id="6ik4fCtfQ_uQef5bXLx3-21" value="&lt;font style=&quot;font-size: 10px;&quot;&gt;Project title&lt;/font&gt;" style="text;html=1;align=left;verticalAlign=middle;whiteSpace=wrap;rounded=0;fontStyle=0;fontFamily=Verdana;fontSize=10;" parent="6ik4fCtfQ_uQef5bXLx3-1" vertex="1">
          <mxGeometry x="309.06" y="984.25" width="80.7" height="12.29" as="geometry" />
        </mxCell>
        <mxCell id="6ik4fCtfQ_uQef5bXLx3-22" value="&lt;font style=&quot;font-size: 10px;&quot;&gt;Drawing title&lt;/font&gt;" style="text;html=1;align=left;verticalAlign=middle;whiteSpace=wrap;rounded=0;fontStyle=0;fontFamily=Verdana;fontSize=10;" parent="6ik4fCtfQ_uQef5bXLx3-1" vertex="1">
          <mxGeometry x="309.06" y="1023.62" width="82.67" height="12.29" as="geometry" />
        </mxCell>
        <mxCell id="6ik4fCtfQ_uQef5bXLx3-23" value="&lt;font style=&quot;font-size: 10px;&quot;&gt;Drawing number&lt;/font&gt;" style="text;html=1;align=left;verticalAlign=middle;whiteSpace=wrap;rounded=0;fontStyle=0;fontFamily=Verdana;fontSize=10;" parent="6ik4fCtfQ_uQef5bXLx3-1" vertex="1">
          <mxGeometry x="549.22" y="1023.62" width="98.42" height="12.29" as="geometry" />
        </mxCell>
        <mxCell id="6ik4fCtfQ_uQef5bXLx3-24" value="&lt;font style=&quot;font-size: 10px;&quot;&gt;Notes (Scale 1:1)&lt;/font&gt;" style="text;html=1;align=left;verticalAlign=middle;whiteSpace=wrap;rounded=0;fontStyle=0;fontFamily=Verdana;fontSize=10;" parent="6ik4fCtfQ_uQef5bXLx3-1" vertex="1">
          <mxGeometry x="41.34" y="984.25" width="106.3" height="12.29" as="geometry" />
        </mxCell>
        <mxCell id="6ik4fCtfQ_uQef5bXLx3-25" value="&lt;font style=&quot;font-size: 10px;&quot;&gt;Rev.&lt;/font&gt;" style="text;html=1;align=left;verticalAlign=middle;whiteSpace=wrap;rounded=0;fontStyle=0;fontFamily=Verdana;fontSize=10;" parent="6ik4fCtfQ_uQef5bXLx3-1" vertex="1">
          <mxGeometry x="549.22" y="1090.55" width="41.33" height="12.29" as="geometry" />
        </mxCell>
        <mxCell id="6ik4fCtfQ_uQef5bXLx3-26" value="&lt;font style=&quot;font-size: 10px;&quot;&gt;Date of issue&lt;/font&gt;" style="text;html=1;align=left;verticalAlign=middle;whiteSpace=wrap;rounded=0;fontStyle=0;fontFamily=Verdana;fontSize=10;" parent="6ik4fCtfQ_uQef5bXLx3-1" vertex="1">
          <mxGeometry x="588" y="1090.55" width="83.26" height="12.29" as="geometry" />
        </mxCell>
        <mxCell id="6ik4fCtfQ_uQef5bXLx3-27" value="&lt;font style=&quot;font-size: 10px;&quot;&gt;Sheet&lt;/font&gt;" style="text;html=1;align=left;verticalAlign=middle;whiteSpace=wrap;rounded=0;fontStyle=0;fontFamily=Verdana;fontSize=10;" parent="6ik4fCtfQ_uQef5bXLx3-1" vertex="1">
          <mxGeometry x="729.73" y="1090.55" width="61.61" height="12.29" as="geometry" />
        </mxCell>
        <mxCell id="6ik4fCtfQ_uQef5bXLx3-28" value="&lt;font style=&quot;font-size: 20px; font-weight: normal;&quot;&gt;millimeters&lt;/font&gt;" style="text;html=1;align=left;verticalAlign=middle;whiteSpace=wrap;rounded=0;fillColor=none;fontStyle=1;fontFamily=Verdana;" parent="6ik4fCtfQ_uQef5bXLx3-1" vertex="1">
          <mxGeometry x="41.34" y="964.5699999999999" width="49.21" height="12.29" as="geometry" />
        </mxCell>
        <mxCell id="6ik4fCtfQ_uQef5bXLx3-29" value="&lt;font style=&quot;font-size: 20px; font-weight: normal;&quot;&gt;4:1&lt;/font&gt;" style="text;html=1;align=left;verticalAlign=middle;whiteSpace=wrap;rounded=0;fillColor=none;fontStyle=1;fontFamily=Verdana;" parent="6ik4fCtfQ_uQef5bXLx3-1" vertex="1">
          <mxGeometry x="175.1985" y="964.5684999999999" width="49.21" height="12.29" as="geometry" />
        </mxCell>
        <mxCell id="6ik4fCtfQ_uQef5bXLx3-30" value="&lt;font style=&quot;font-weight: normal; font-size: 20px;&quot;&gt;ISO 2768-m&lt;/font&gt;" style="text;html=1;align=left;verticalAlign=middle;whiteSpace=wrap;rounded=0;fillColor=none;fontStyle=1;fontFamily=Verdana;" parent="6ik4fCtfQ_uQef5bXLx3-1" vertex="1">
          <mxGeometry x="311.03" y="964.57" width="226.37" height="12.29" as="geometry" />
        </mxCell>
        <mxCell id="6ik4fCtfQ_uQef5bXLx3-31" value="&lt;font style=&quot;font-size: 20px; font-weight: normal;&quot;&gt;Train Network&lt;/font&gt;" style="text;html=1;align=left;verticalAlign=middle;whiteSpace=wrap;rounded=0;fillColor=none;fontStyle=1;fontFamily=Verdana;" parent="6ik4fCtfQ_uQef5bXLx3-1" vertex="1">
          <mxGeometry x="311.03" y="1003.94" width="187" height="12.29" as="geometry" />
        </mxCell>
        <mxCell id="6ik4fCtfQ_uQef5bXLx3-32" value="&lt;font style=&quot;font-size: 20px; font-weight: normal;&quot;&gt;Polylactic Acid (PLA)&lt;/font&gt;" style="text;html=1;align=left;verticalAlign=middle;whiteSpace=wrap;rounded=0;fillColor=none;fontStyle=1;fontFamily=Verdana;" parent="6ik4fCtfQ_uQef5bXLx3-1" vertex="1">
          <mxGeometry x="551.18" y="964.57" width="226.38" height="12.29" as="geometry" />
        </mxCell>
        <mxCell id="6ik4fCtfQ_uQef5bXLx3-33" value="&lt;font style=&quot;font-size: 20px; font-weight: normal;&quot;&gt;teoelectric&lt;/font&gt;" style="text;html=1;align=left;verticalAlign=middle;whiteSpace=wrap;rounded=0;fillColor=none;fontStyle=1;fontFamily=Verdana;" parent="6ik4fCtfQ_uQef5bXLx3-1" vertex="1">
          <mxGeometry x="551.17" y="1003.94" width="145.67" height="12.29" as="geometry" />
        </mxCell>
        <mxCell id="6ik4fCtfQ_uQef5bXLx3-34" value="&lt;span style=&quot;font-size: 20px; font-weight: 400;&quot;&gt;44&lt;/span&gt;" style="text;html=1;align=center;verticalAlign=middle;whiteSpace=wrap;rounded=0;fillColor=none;fontStyle=1;fontFamily=Verdana;" parent="6ik4fCtfQ_uQef5bXLx3-1" vertex="1">
          <mxGeometry x="557.0899999999999" y="1053.15" width="220.47" height="12.29" as="geometry" />
        </mxCell>
        <mxCell id="6ik4fCtfQ_uQef5bXLx3-35" value="&lt;font style=&quot;font-size: 20px; font-weight: normal;&quot;&gt;Coupler Dimensions&lt;/font&gt;" style="text;html=1;align=left;verticalAlign=middle;whiteSpace=wrap;rounded=0;fillColor=none;fontStyle=1;fontFamily=Verdana;" parent="6ik4fCtfQ_uQef5bXLx3-1" vertex="1">
          <mxGeometry x="311.03" y="1068.9" width="244.09" height="12.29" as="geometry" />
        </mxCell>
        <mxCell id="6ik4fCtfQ_uQef5bXLx3-36" value="&lt;font style=&quot;font-size: 20px; font-weight: normal;&quot;&gt;1/1&lt;/font&gt;" style="text;html=1;align=left;verticalAlign=middle;whiteSpace=wrap;rounded=0;fillColor=none;fontStyle=1;fontFamily=Verdana;" parent="6ik4fCtfQ_uQef5bXLx3-1" vertex="1">
          <mxGeometry x="735.934" y="1106.2939999999994" width="49.21" height="12.29" as="geometry" />
        </mxCell>
        <mxCell id="6ik4fCtfQ_uQef5bXLx3-37" value="&lt;font style=&quot;font-size: 20px; font-weight: normal;&quot;&gt;17/08/2025&lt;/font&gt;" style="text;html=1;align=center;verticalAlign=middle;whiteSpace=wrap;rounded=0;fillColor=none;fontStyle=1;fontFamily=Verdana;" parent="6ik4fCtfQ_uQef5bXLx3-1" vertex="1">
          <mxGeometry x="647.64" y="1106.2900000000002" width="19.69" height="12.29" as="geometry" />
        </mxCell>
        <mxCell id="6ik4fCtfQ_uQef5bXLx3-38" value="&lt;font style=&quot;font-size: 20px; font-weight: normal;&quot;&gt;A&lt;/font&gt;" style="text;html=1;align=center;verticalAlign=middle;whiteSpace=wrap;rounded=0;fillColor=none;fontStyle=1;fontFamily=Verdana;" parent="6ik4fCtfQ_uQef5bXLx3-1" vertex="1">
          <mxGeometry x="557.0884999999998" y="1106.2985" width="19.69" height="12.29" as="geometry" />
        </mxCell>
        <mxCell id="6ik4fCtfQ_uQef5bXLx3-39" value="&lt;font style=&quot;font-size: 20px; font-weight: normal;&quot;&gt;Recess &lt;/font&gt;&lt;font style=&quot;font-size: 20px;&quot;&gt;(R1)&lt;/font&gt;&lt;font style=&quot;font-size: 20px; font-weight: normal;&quot;&gt; width: 2&lt;/font&gt;" style="text;html=1;align=left;verticalAlign=middle;whiteSpace=wrap;rounded=0;fillColor=none;fontStyle=1;fontFamily=Verdana;" parent="6ik4fCtfQ_uQef5bXLx3-1" vertex="1">
          <mxGeometry x="41.33" y="1003.94" width="259.85" height="12.29" as="geometry" />
        </mxCell>
        <mxCell id="6ik4fCtfQ_uQef5bXLx3-40" value="&lt;font style=&quot;font-size: 20px; font-weight: normal;&quot;&gt;Recess&amp;nbsp;&lt;/font&gt;&lt;font style=&quot;font-size: 20px;&quot;&gt;(R2) &lt;span style=&quot;font-weight: normal;&quot;&gt;width&lt;/span&gt;&lt;/font&gt;&lt;font style=&quot;font-size: 20px; font-weight: normal;&quot;&gt;: 3&lt;/font&gt;" style="text;html=1;align=left;verticalAlign=middle;whiteSpace=wrap;rounded=0;fillColor=none;fontStyle=1;fontFamily=Verdana;" parent="6ik4fCtfQ_uQef5bXLx3-1" vertex="1">
          <mxGeometry x="41.33" y="1027.56" width="259.85" height="12.29" as="geometry" />
        </mxCell>
        <mxCell id="bTe1DrjwdPlw612lmabr-8" value="&lt;font style=&quot;font-size: 8px;&quot;&gt;(R2)&lt;/font&gt;" style="text;html=1;align=center;verticalAlign=middle;whiteSpace=wrap;rounded=0;fontFamily=Verdana;fontSize=8;fontColor=#000000;fontStyle=1" parent="6ik4fCtfQ_uQef5bXLx3-1" vertex="1">
          <mxGeometry x="574.8024999999999" y="710.6325000000002" width="33.46" height="18.19" as="geometry" />
        </mxCell>
        <mxCell id="fRqcI0Y8gKNdYsNY9izP-0" value="&lt;font style=&quot;font-size: 8px;&quot;&gt;(R1)&lt;/font&gt;" style="text;html=1;align=center;verticalAlign=middle;whiteSpace=wrap;rounded=0;fontFamily=Verdana;fontSize=8;fontColor=#000000;fontStyle=1" vertex="1" parent="6ik4fCtfQ_uQef5bXLx3-1">
          <mxGeometry x="590.5509999999999" y="639.7610000000001" width="33.46" height="18.19" as="geometry" />
        </mxCell>
      </root>
    </mxGraphModel>
  </diagram>
</mxfile>
